<svg width="698" height="411" viewBox="0 0 698 411" fill="none" xmlns="http://www.w3.org/2000/svg">
<g filter="url(#filter0_d_184_219)">
<rect x="6" y="3" width="686" height="399" rx="20.9762" fill="white" shape-rendering="crispEdges"/>
<path d="M53.0361 52H51.2861V47.0078H45.4971V52H43.7471V40.7266H45.4971V45.4922H51.2861V40.7266H53.0361V52ZM57.7791 52.1562C55.4275 52.1562 53.8806 50.5391 53.8806 47.8906C53.8806 45.25 55.4353 43.6328 57.7791 43.6328C60.1228 43.6328 61.6775 45.25 61.6775 47.8906C61.6775 50.5391 60.1306 52.1562 57.7791 52.1562ZM57.7791 50.7656C59.1072 50.7656 59.9588 49.7188 59.9588 47.8906C59.9588 46.0703 59.0994 45.0234 57.7791 45.0234C56.4588 45.0234 55.5994 46.0703 55.5994 47.8906C55.5994 49.7188 56.4588 50.7656 57.7791 50.7656ZM69.3736 43.7812V52H67.7564V50.6094H67.7173C67.2642 51.5938 66.4282 52.1484 65.1704 52.1484C63.3814 52.1484 62.2876 50.9844 62.2876 49.1016V43.7812H63.9751V48.7734C63.9751 50.0234 64.5689 50.6953 65.7329 50.6953C66.9517 50.6953 67.6861 49.8516 67.6861 48.5703V43.7812H69.3736ZM70.2415 46.1094C70.2415 44.6406 71.5384 43.6328 73.4602 43.6328C75.2884 43.6328 76.5696 44.6562 76.6243 46.1172H75.0384C74.9602 45.375 74.3587 44.9141 73.4134 44.9141C72.4993 44.9141 71.8899 45.3594 71.8899 46.0078C71.8899 46.5156 72.2962 46.8594 73.1477 47.0703L74.5306 47.3906C76.1868 47.7891 76.8118 48.4141 76.8118 49.625C76.8118 51.125 75.4134 52.1562 73.3977 52.1562C71.4524 52.1562 70.1634 51.1484 70.0306 49.6406H71.7024C71.8352 50.4297 72.4446 50.8672 73.4759 50.8672C74.4915 50.8672 75.1165 50.4453 75.1165 49.7812C75.1165 49.2578 74.804 48.9688 73.9446 48.75L72.4759 48.3906C70.9915 48.0312 70.2415 47.2578 70.2415 46.1094ZM80.9063 44.9922C79.7266 44.9922 78.8985 45.8906 78.8125 47.1328H82.9219C82.8829 45.875 82.086 44.9922 80.9063 44.9922ZM82.9141 49.5859H84.5157C84.2813 51.0859 82.8594 52.1562 80.9766 52.1562C78.5625 52.1562 77.1016 50.5234 77.1016 47.9297C77.1016 45.3516 78.586 43.6328 80.9063 43.6328C83.1875 43.6328 84.6094 45.2422 84.6094 47.7344V48.3125H78.8047V48.4141C78.8047 49.8438 79.6641 50.7891 81.0157 50.7891C81.9766 50.7891 82.6875 50.3047 82.9141 49.5859ZM85.118 46.1094C85.118 44.6406 86.4149 43.6328 88.3367 43.6328C90.1649 43.6328 91.4461 44.6562 91.5008 46.1172H89.9149C89.8367 45.375 89.2352 44.9141 88.2899 44.9141C87.3758 44.9141 86.7664 45.3594 86.7664 46.0078C86.7664 46.5156 87.1727 46.8594 88.0242 47.0703L89.407 47.3906C91.0633 47.7891 91.6883 48.4141 91.6883 49.625C91.6883 51.125 90.2899 52.1562 88.2742 52.1562C86.3289 52.1562 85.0399 51.1484 84.907 49.6406H86.5789C86.7117 50.4297 87.3211 50.8672 88.3524 50.8672C89.368 50.8672 89.993 50.4453 89.993 49.7812C89.993 49.2578 89.6805 48.9688 88.8211 48.75L87.3524 48.3906C85.868 48.0312 85.118 47.2578 85.118 46.1094ZM99.9007 52.1875C96.7367 52.1875 94.7367 49.9531 94.7367 46.3594C94.7367 42.7891 96.7523 40.5391 99.9007 40.5391C102.455 40.5391 104.385 42.1094 104.682 44.4609H102.948C102.635 43.0156 101.432 42.0703 99.9007 42.0703C97.8538 42.0703 96.5257 43.75 96.5257 46.3594C96.5257 48.9922 97.8382 50.6562 99.9085 50.6562C101.479 50.6562 102.596 49.8516 102.948 48.4922H104.69C104.26 50.8203 102.494 52.1875 99.9007 52.1875ZM108.941 52.1562C106.589 52.1562 105.042 50.5391 105.042 47.8906C105.042 45.25 106.597 43.6328 108.941 43.6328C111.284 43.6328 112.839 45.25 112.839 47.8906C112.839 50.5391 111.292 52.1562 108.941 52.1562ZM108.941 50.7656C110.269 50.7656 111.12 49.7188 111.12 47.8906C111.12 46.0703 110.261 45.0234 108.941 45.0234C107.62 45.0234 106.761 46.0703 106.761 47.8906C106.761 49.7188 107.62 50.7656 108.941 50.7656ZM113.488 52V43.7812H115.098V45.1562H115.137C115.582 44.2188 116.457 43.6406 117.723 43.6406C119.535 43.6406 120.574 44.7969 120.574 46.6797V52H118.879V47.0078C118.879 45.7734 118.301 45.0938 117.129 45.0938C115.941 45.0938 115.176 45.9375 115.176 47.2109V52H113.488ZM121.403 46.1094C121.403 44.6406 122.7 43.6328 124.622 43.6328C126.45 43.6328 127.731 44.6562 127.786 46.1172H126.2C126.122 45.375 125.52 44.9141 124.575 44.9141C123.661 44.9141 123.051 45.3594 123.051 46.0078C123.051 46.5156 123.458 46.8594 124.309 47.0703L125.692 47.3906C127.348 47.7891 127.973 48.4141 127.973 49.625C127.973 51.125 126.575 52.1562 124.559 52.1562C122.614 52.1562 121.325 51.1484 121.192 49.6406H122.864C122.997 50.4297 123.606 50.8672 124.637 50.8672C125.653 50.8672 126.278 50.4453 126.278 49.7812C126.278 49.2578 125.965 48.9688 125.106 48.75L123.637 48.3906C122.153 48.0312 121.403 47.2578 121.403 46.1094ZM129.122 41.8359H130.818V43.7812H132.38V45.1172H130.818V49.6484C130.818 50.3594 131.13 50.6797 131.818 50.6797C131.99 50.6797 132.263 50.6641 132.372 50.6406V51.9766C132.185 52.0234 131.81 52.0547 131.435 52.0547C129.771 52.0547 129.122 51.4219 129.122 49.8359V45.1172H127.927V43.7812H129.122V41.8359ZM133.115 52V43.7812H134.725V45.1797H134.764C135.037 44.2188 135.772 43.6484 136.74 43.6484C136.983 43.6484 137.194 43.6875 137.319 43.7109V45.2812C137.186 45.2266 136.889 45.1875 136.561 45.1875C135.475 45.1875 134.803 45.9141 134.803 47.0781V52H133.115ZM144.757 43.7812V52H143.14V50.6094H143.101C142.647 51.5938 141.811 52.1484 140.554 52.1484C138.765 52.1484 137.671 50.9844 137.671 49.1016V43.7812H139.358V48.7734C139.358 50.0234 139.952 50.6953 141.116 50.6953C142.335 50.6953 143.069 49.8516 143.069 48.5703V43.7812H144.757ZM152.828 46.6094H151.218C151.047 45.7344 150.39 45.0391 149.289 45.0391C147.984 45.0391 147.125 46.125 147.125 47.8906C147.125 49.6953 147.992 50.7422 149.304 50.7422C150.343 50.7422 151.023 50.1719 151.218 49.2188H152.843C152.664 50.9688 151.265 52.1562 149.289 52.1562C146.937 52.1562 145.406 50.5469 145.406 47.8906C145.406 45.2812 146.937 43.6328 149.273 43.6328C151.39 43.6328 152.679 44.9922 152.828 46.6094ZM153.875 41.8359H155.571V43.7812H157.133V45.1172H155.571V49.6484C155.571 50.3594 155.883 50.6797 156.571 50.6797C156.743 50.6797 157.016 50.6641 157.125 50.6406V51.9766C156.938 52.0234 156.563 52.0547 156.188 52.0547C154.524 52.0547 153.875 51.4219 153.875 49.8359V45.1172H152.68V43.7812H153.875V41.8359ZM161.103 44.9922C159.923 44.9922 159.095 45.8906 159.009 47.1328H163.118C163.079 45.875 162.282 44.9922 161.103 44.9922ZM163.111 49.5859H164.712C164.478 51.0859 163.056 52.1562 161.173 52.1562C158.759 52.1562 157.298 50.5234 157.298 47.9297C157.298 45.3516 158.782 43.6328 161.103 43.6328C163.384 43.6328 164.806 45.2422 164.806 47.7344V48.3125H159.001V48.4141C159.001 49.8438 159.861 50.7891 161.212 50.7891C162.173 50.7891 162.884 50.3047 163.111 49.5859ZM168.549 52.1406C166.471 52.1406 165.096 50.4844 165.096 47.8906C165.096 45.2969 166.471 43.6484 168.533 43.6484C169.713 43.6484 170.65 44.2422 171.111 45.1484H171.143V40.7266H172.838V52H171.197V50.6016H171.166C170.682 51.5391 169.744 52.1406 168.549 52.1406ZM168.994 45.0703C167.658 45.0703 166.822 46.1641 166.822 47.8906C166.822 49.625 167.658 50.7109 168.994 50.7109C170.291 50.7109 171.158 49.6094 171.158 47.8906C171.158 46.1875 170.291 45.0703 168.994 45.0703ZM176.566 52V43.7812H178.253V52H176.566ZM177.41 42.5781C176.871 42.5781 176.433 42.1484 176.433 41.6172C176.433 41.0781 176.871 40.6484 177.41 40.6484C177.957 40.6484 178.394 41.0781 178.394 41.6172C178.394 42.1484 177.957 42.5781 177.41 42.5781ZM179.324 52V43.7812H180.934V45.1562H180.973C181.418 44.2188 182.293 43.6406 183.559 43.6406C185.371 43.6406 186.41 44.7969 186.41 46.6797V52H184.715V47.0078C184.715 45.7734 184.137 45.0938 182.965 45.0938C181.778 45.0938 181.012 45.9375 181.012 47.2109V52H179.324ZM189.928 44.0312C189.928 42 191.56 40.5156 193.803 40.5156C195.951 40.5156 197.553 41.8828 197.553 43.6719C197.553 44.9844 196.849 45.9609 195.201 47.6484L192.381 50.4844V50.5234H197.732V52H190.021V50.8125L194.092 46.6641C195.467 45.2344 195.826 44.6406 195.826 43.7578C195.826 42.7578 194.92 41.9609 193.748 41.9609C192.513 41.9609 191.584 42.8516 191.584 44.0234V44.0469H189.928V44.0312ZM202.741 52.2109C200.038 52.2109 198.436 49.9453 198.436 46.3516C198.436 42.7812 200.053 40.5156 202.741 40.5156C205.436 40.5156 207.03 42.7734 207.03 46.3438C207.03 49.9375 205.444 52.2109 202.741 52.2109ZM202.741 50.7422C204.35 50.7422 205.264 49.0781 205.264 46.3516C205.264 43.6641 204.335 41.9844 202.741 41.9844C201.147 41.9844 200.21 43.6719 200.21 46.3516C200.21 49.0703 201.131 50.7422 202.741 50.7422ZM207.726 44.0312C207.726 42 209.359 40.5156 211.601 40.5156C213.749 40.5156 215.351 41.8828 215.351 43.6719C215.351 44.9844 214.648 45.9609 212.999 47.6484L210.179 50.4844V50.5234H215.531V52H207.82V50.8125L211.89 46.6641C213.265 45.2344 213.624 44.6406 213.624 43.7578C213.624 42.7578 212.718 41.9609 211.546 41.9609C210.312 41.9609 209.382 42.8516 209.382 44.0234V44.0469H207.726V44.0312ZM220.539 52.2109C217.836 52.2109 216.234 49.9453 216.234 46.3516C216.234 42.7812 217.852 40.5156 220.539 40.5156C223.234 40.5156 224.828 42.7734 224.828 46.3438C224.828 49.9375 223.242 52.2109 220.539 52.2109ZM220.539 50.7422C222.148 50.7422 223.063 49.0781 223.063 46.3516C223.063 43.6641 222.133 41.9844 220.539 41.9844C218.945 41.9844 218.008 43.6719 218.008 46.3516C218.008 49.0703 218.93 50.7422 220.539 50.7422ZM230.899 48.1875H225.774V46.6641H230.899V48.1875ZM231.931 44.0312C231.931 42 233.564 40.5156 235.806 40.5156C237.955 40.5156 239.556 41.8828 239.556 43.6719C239.556 44.9844 238.853 45.9609 237.205 47.6484L234.384 50.4844V50.5234H239.736V52H232.025V50.8125L236.095 46.6641C237.47 45.2344 237.83 44.6406 237.83 43.7578C237.83 42.7578 236.923 41.9609 235.752 41.9609C234.517 41.9609 233.587 42.8516 233.587 44.0234V44.0469H231.931V44.0312ZM243.487 52V42.4609H243.448L240.502 44.5547V42.8359L243.471 40.7266H245.198V52H243.487Z" fill="#7A7A7A"/>
<path d="M49.0986 95.98H44.583V73.4331H48.5205L59.0518 88.1206H59.1768V73.4331H63.6924V95.98H59.7861L49.2393 81.2144H49.0986V95.98ZM74.7549 96.3394C69.6924 96.3394 66.458 93.0894 66.458 87.5894C66.458 82.1675 69.7393 78.8706 74.7549 78.8706C79.7705 78.8706 83.0518 82.1519 83.0518 87.5894C83.0518 93.105 79.8174 96.3394 74.7549 96.3394ZM74.7549 92.855C76.9893 92.855 78.4111 90.9644 78.4111 87.605C78.4111 84.2769 76.9736 82.355 74.7549 82.355C72.5361 82.355 71.083 84.2769 71.083 87.605C71.083 90.9644 72.5049 92.855 74.7549 92.855ZM87.9111 96.1675C86.5049 96.1675 85.3955 95.0425 85.3955 93.6519C85.3955 92.2456 86.5049 91.1362 87.9111 91.1362C89.3018 91.1362 90.4268 92.2456 90.4268 93.6519C90.4268 95.0425 89.3018 96.1675 87.9111 96.1675ZM106.005 96.3394C100.942 96.3394 97.708 93.0894 97.708 87.5894C97.708 82.1675 100.989 78.8706 106.005 78.8706C111.021 78.8706 114.302 82.1519 114.302 87.5894C114.302 93.105 111.067 96.3394 106.005 96.3394ZM106.005 92.855C108.239 92.855 109.661 90.9644 109.661 87.605C109.661 84.2769 108.224 82.355 106.005 82.355C103.786 82.355 102.333 84.2769 102.333 87.605C102.333 90.9644 103.755 92.855 106.005 92.855ZM117.88 95.98V82.6675H115.599V79.3081H117.88V78.0425C117.88 74.7612 119.427 73.23 123.396 73.23C124.239 73.23 125.192 73.3237 125.724 73.4331V76.4487C125.396 76.3862 124.942 76.355 124.489 76.355C122.989 76.355 122.333 77.0112 122.333 78.1987V79.3081H125.661V82.6675H122.442V95.98H117.88ZM134.802 73.4331H143.974C148.599 73.4331 151.786 76.5112 151.786 81.1519C151.786 85.7769 148.489 88.8706 143.739 88.8706H139.521V95.98H134.802V73.4331ZM139.521 77.1675V85.1831H142.708C145.411 85.1831 146.989 83.7456 146.989 81.1675C146.989 78.605 145.427 77.1675 142.724 77.1675H139.521ZM161.317 96.3394C156.255 96.3394 153.021 93.0894 153.021 87.5894C153.021 82.1675 156.302 78.8706 161.317 78.8706C166.333 78.8706 169.614 82.1519 169.614 87.5894C169.614 93.105 166.38 96.3394 161.317 96.3394ZM161.317 92.855C163.552 92.855 164.974 90.9644 164.974 87.605C164.974 84.2769 163.536 82.355 161.317 82.355C159.099 82.355 157.646 84.2769 157.646 87.605C157.646 90.9644 159.067 92.855 161.317 92.855ZM172.083 95.98V73.4331H176.646V95.98H172.083ZM179.802 95.98V79.23H184.364V95.98H179.802ZM182.083 77.3862C180.708 77.3862 179.646 76.3394 179.646 75.0269C179.646 73.6987 180.708 72.6675 182.083 72.6675C183.458 72.6675 184.521 73.6987 184.521 75.0269C184.521 76.3394 183.458 77.3862 182.083 77.3862ZM202.63 85.4644H198.396C198.13 83.6987 196.958 82.4487 195.083 82.4487C192.833 82.4487 191.427 84.355 191.427 87.5894C191.427 90.8862 192.833 92.7612 195.099 92.7612C196.927 92.7612 198.114 91.6675 198.396 89.8394H202.646C202.411 93.7925 199.458 96.3394 195.052 96.3394C190.005 96.3394 186.802 93.0581 186.802 87.5894C186.802 82.2144 190.005 78.8706 195.021 78.8706C199.552 78.8706 202.427 81.6675 202.63 85.4644ZM212.364 82.2456C210.364 82.2456 208.927 83.7612 208.771 85.855H215.88C215.786 83.7144 214.396 82.2456 212.364 82.2456ZM215.942 90.855H220.13C219.63 94.1362 216.63 96.3394 212.489 96.3394C207.333 96.3394 204.239 93.0425 204.239 87.6831C204.239 82.3394 207.364 78.8706 212.317 78.8706C217.192 78.8706 220.271 82.1675 220.271 87.2612V88.6519H208.724V88.9331C208.724 91.3237 210.239 92.9644 212.567 92.9644C214.239 92.9644 215.521 92.1362 215.942 90.855ZM239.536 96.3706C232.849 96.3706 228.661 91.9487 228.661 84.7144C228.661 77.5425 232.849 73.0425 239.536 73.0425C246.208 73.0425 250.396 77.5425 250.396 84.7144C250.396 88.6831 249.13 91.8706 246.802 93.7925L249.661 98.105H245.083L243.474 95.7456C242.271 96.1675 240.958 96.3706 239.536 96.3706ZM239.536 92.4644C240.114 92.4644 240.646 92.3862 241.146 92.2456L238.677 88.5581H242.942L243.927 89.9019C244.989 88.6831 245.583 86.8862 245.583 84.7144C245.583 79.98 243.224 76.9331 239.536 76.9331C235.833 76.9331 233.474 79.98 233.474 84.7144C233.474 89.4331 235.833 92.4644 239.536 92.4644ZM268.536 79.23V95.98H264.13V92.9644H264.036C263.208 95.0737 261.552 96.2925 259.021 96.2925C255.396 96.2925 252.989 93.9331 252.989 90.0269V79.23H257.552V89.0737C257.552 91.3081 258.661 92.4956 260.677 92.4956C262.708 92.4956 263.974 91.0425 263.974 88.8237V79.23H268.536ZM277.974 92.9487C279.958 92.9487 281.599 91.6519 281.599 89.8394V88.6206L278.067 88.8394C276.364 88.9644 275.396 89.73 275.396 90.9175C275.396 92.1675 276.427 92.9487 277.974 92.9487ZM276.474 96.2456C273.286 96.2456 270.864 94.1831 270.864 91.1675C270.864 88.1206 273.208 86.355 277.38 86.105L281.599 85.855V84.7456C281.599 83.1831 280.505 82.2769 278.786 82.2769C277.083 82.2769 276.005 83.1206 275.786 84.355H271.614C271.786 81.105 274.552 78.8706 278.989 78.8706C283.286 78.8706 286.083 81.0894 286.083 84.4644V95.98H281.677V93.4175H281.583C280.646 95.1987 278.567 96.2456 276.474 96.2456ZM289.036 95.98V79.23H293.442V82.2456H293.536C294.13 80.1206 295.552 78.9644 297.521 78.9644C298.052 78.9644 298.505 79.0425 298.817 79.1362V83.1519C298.442 82.9956 297.817 82.8862 297.161 82.8862C294.911 82.8862 293.599 84.2612 293.599 86.6206V95.98H289.036ZM301.911 75.3706H306.474V79.23H309.567V82.6675H306.474V90.6831C306.474 91.9644 307.099 92.5737 308.442 92.5737C308.849 92.5737 309.271 92.5425 309.552 92.4956V95.855C309.083 95.9644 308.302 96.0425 307.38 96.0425C303.442 96.0425 301.911 94.73 301.911 91.4644V82.6675H299.552V79.23H301.911V75.3706ZM319.333 82.2456C317.333 82.2456 315.896 83.7612 315.739 85.855H322.849C322.755 83.7144 321.364 82.2456 319.333 82.2456ZM322.911 90.855H327.099C326.599 94.1362 323.599 96.3394 319.458 96.3394C314.302 96.3394 311.208 93.0425 311.208 87.6831C311.208 82.3394 314.333 78.8706 319.286 78.8706C324.161 78.8706 327.239 82.1675 327.239 87.2612V88.6519H315.692V88.9331C315.692 91.3237 317.208 92.9644 319.536 92.9644C321.208 92.9644 322.489 92.1362 322.911 90.855ZM329.599 95.98V79.23H334.005V82.2456H334.099C334.692 80.1206 336.114 78.9644 338.083 78.9644C338.614 78.9644 339.067 79.0425 339.38 79.1362V83.1519C339.005 82.9956 338.38 82.8862 337.724 82.8862C335.474 82.8862 334.161 84.2612 334.161 86.6206V95.98H329.599ZM340.974 84.1519C340.974 80.9644 343.739 78.8706 348.036 78.8706C352.239 78.8706 354.974 80.9956 355.036 84.2456H350.833C350.739 82.9019 349.661 82.0737 347.974 82.0737C346.396 82.0737 345.364 82.7925 345.364 83.8706C345.364 84.6987 346.083 85.2612 347.552 85.605L350.755 86.2925C354.114 87.0425 355.474 88.3706 355.474 90.8706C355.474 94.1675 352.442 96.3394 348.021 96.3394C343.552 96.3394 340.802 94.1831 340.552 90.9175H345.005C345.224 92.3237 346.333 93.1362 348.146 93.1362C349.88 93.1362 350.927 92.4487 350.927 91.355C350.927 90.5112 350.364 90.0425 348.864 89.6831L345.771 88.9956C342.599 88.2769 340.974 86.6206 340.974 84.1519Z" fill="#242424"/>
<path d="M43.6252 150.931V149.888L46.8515 146.545C47.196 146.182 47.48 145.864 47.7034 145.591C47.93 145.314 48.0992 145.052 48.2109 144.804C48.3226 144.556 48.3785 144.292 48.3785 144.012C48.3785 143.696 48.304 143.423 48.155 143.193C48.0061 142.96 47.8028 142.782 47.5452 142.658C47.2875 142.53 46.9973 142.467 46.6746 142.467C46.3332 142.467 46.0352 142.537 45.7807 142.676C45.5262 142.816 45.3307 143.013 45.1941 143.268C45.0575 143.522 44.9892 143.82 44.9892 144.161H43.6158C43.6158 143.581 43.7493 143.074 44.0162 142.639C44.2831 142.205 44.6494 141.868 45.1149 141.629C45.5805 141.387 46.1097 141.266 46.7025 141.266C47.3015 141.266 47.8291 141.385 48.2854 141.624C48.7447 141.86 49.1032 142.183 49.3608 142.593C49.6184 142.999 49.7472 143.458 49.7472 143.971C49.7472 144.324 49.6805 144.67 49.5471 145.009C49.4167 145.347 49.1886 145.724 48.8627 146.14C48.5368 146.553 48.0836 147.054 47.5033 147.644L45.6084 149.627V149.697H49.9009V150.931H43.6252ZM54.157 151.061C53.5735 151.061 53.049 150.949 52.5834 150.726C52.121 150.499 51.7516 150.189 51.4754 149.795C51.1992 149.401 51.0517 148.95 51.0331 148.445H52.4298C52.4639 148.854 52.6455 149.191 52.9745 149.455C53.3035 149.719 53.6977 149.851 54.157 149.851C54.5232 149.851 54.8476 149.767 55.13 149.599C55.4156 149.428 55.639 149.194 55.8004 148.896C55.9649 148.598 56.0472 148.258 56.0472 147.877C56.0472 147.489 55.9634 147.143 55.7958 146.838C55.6282 146.534 55.3969 146.295 55.1021 146.121C54.8103 145.948 54.4751 145.859 54.0965 145.856C53.8078 145.856 53.5176 145.906 53.2259 146.005C52.9341 146.104 52.6983 146.235 52.5182 146.396L51.2007 146.201L51.7361 141.396H56.9783V142.63H52.9326L52.63 145.297H52.6858C52.8721 145.117 53.1188 144.967 53.4261 144.846C53.7365 144.725 54.0686 144.664 54.4224 144.664C55.0028 144.664 55.5195 144.802 55.9727 145.079C56.4289 145.355 56.7874 145.732 57.0481 146.21C57.3119 146.685 57.4423 147.231 57.4392 147.849C57.4423 148.466 57.3026 149.017 57.0202 149.501C56.7409 149.986 56.3529 150.367 55.8563 150.647C55.3628 150.923 54.7964 151.061 54.157 151.061ZM61.8036 151.089C61.068 151.086 60.4395 150.892 59.9181 150.507C59.3966 150.122 58.9978 149.562 58.7216 148.826C58.4453 148.091 58.3072 147.205 58.3072 146.168C58.3072 145.134 58.4453 144.251 58.7216 143.519C59.0009 142.787 59.4013 142.228 59.9227 141.843C60.4472 141.458 61.0742 141.266 61.8036 141.266C62.5329 141.266 63.1583 141.46 63.6798 141.848C64.2012 142.232 64.6 142.791 64.8762 143.524C65.1556 144.253 65.2952 145.134 65.2952 146.168C65.2952 147.208 65.1571 148.095 64.8809 148.831C64.6047 149.563 64.2058 150.124 63.6844 150.512C63.163 150.897 62.536 151.089 61.8036 151.089ZM61.8036 149.846C62.4491 149.846 62.9535 149.531 63.3166 148.901C63.6829 148.271 63.866 147.36 63.866 146.168C63.866 145.377 63.7822 144.708 63.6146 144.161C63.4501 143.612 63.2126 143.196 62.9023 142.914C62.595 142.628 62.2288 142.485 61.8036 142.485C61.1611 142.485 60.6567 142.802 60.2905 143.435C59.9243 144.068 59.7396 144.979 59.7365 146.168C59.7365 146.963 59.8187 147.635 59.9832 148.184C60.1508 148.73 60.3883 149.144 60.6955 149.427C61.0028 149.706 61.3721 149.846 61.8036 149.846ZM69.6107 151.089C68.8752 151.086 68.2466 150.892 67.7252 150.507C67.2038 150.122 66.805 149.562 66.5287 148.826C66.2525 148.091 66.1144 147.205 66.1144 146.168C66.1144 145.134 66.2525 144.251 66.5287 143.519C66.8081 142.787 67.2085 142.228 67.7299 141.843C68.2544 141.458 68.8814 141.266 69.6107 141.266C70.3401 141.266 70.9655 141.46 71.4869 141.848C72.0084 142.232 72.4072 142.791 72.6834 143.524C72.9628 144.253 73.1024 145.134 73.1024 146.168C73.1024 147.208 72.9643 148.095 72.6881 148.831C72.4118 149.563 72.013 150.124 71.4916 150.512C70.9702 150.897 70.3432 151.089 69.6107 151.089ZM69.6107 149.846C70.2563 149.846 70.7607 149.531 71.1238 148.901C71.49 148.271 71.6732 147.36 71.6732 146.168C71.6732 145.377 71.5894 144.708 71.4218 144.161C71.2573 143.612 71.0198 143.196 70.7095 142.914C70.4022 142.628 70.0359 142.485 69.6107 142.485C68.9683 142.485 68.4639 142.802 68.0977 143.435C67.7314 144.068 67.5468 144.979 67.5437 146.168C67.5437 146.963 67.6259 147.635 67.7904 148.184C67.958 148.73 68.1954 149.144 68.5027 149.427C68.81 149.706 69.1793 149.846 69.6107 149.846Z" fill="#464646"/>
<path d="M43.6252 187.328V186.285L46.8515 182.943C47.196 182.579 47.48 182.261 47.7034 181.988C47.93 181.712 48.0992 181.45 48.2109 181.201C48.3226 180.953 48.3785 180.689 48.3785 180.41C48.3785 180.093 48.304 179.82 48.155 179.591C48.0061 179.358 47.8028 179.179 47.5452 179.055C47.2875 178.928 46.9973 178.864 46.6746 178.864C46.3332 178.864 46.0352 178.934 45.7807 179.074C45.5262 179.213 45.3307 179.411 45.1941 179.665C45.0575 179.92 44.9892 180.218 44.9892 180.559H43.6158C43.6158 179.979 43.7493 179.471 44.0162 179.037C44.2831 178.602 44.6494 178.265 45.1149 178.026C45.5805 177.784 46.1097 177.663 46.7025 177.663C47.3015 177.663 47.8291 177.783 48.2854 178.022C48.7447 178.258 49.1032 178.58 49.3608 178.99C49.6184 179.397 49.7472 179.856 49.7472 180.368C49.7472 180.722 49.6805 181.068 49.5471 181.406C49.4167 181.745 49.1886 182.122 48.8627 182.538C48.5368 182.95 48.0836 183.452 47.5033 184.041L45.6084 186.025V186.094H49.9009V187.328H43.6252ZM54.3293 187.486C53.5937 187.483 52.9652 187.289 52.4438 186.904C51.9223 186.52 51.5235 185.959 51.2473 185.224C50.971 184.488 50.8329 183.602 50.8329 182.565C50.8329 181.532 50.971 180.649 51.2473 179.916C51.5266 179.184 51.927 178.625 52.4484 178.24C52.9729 177.856 53.5999 177.663 54.3293 177.663C55.0586 177.663 55.684 177.857 56.2055 178.245C56.7269 178.63 57.1257 179.189 57.4019 179.921C57.6813 180.65 57.8209 181.532 57.8209 182.565C57.8209 183.605 57.6828 184.493 57.4066 185.228C57.1304 185.961 56.7315 186.521 56.2101 186.909C55.6887 187.294 55.0617 187.486 54.3293 187.486ZM54.3293 186.243C54.9748 186.243 55.4792 185.928 55.8423 185.298C56.2086 184.668 56.3917 183.757 56.3917 182.565C56.3917 181.774 56.3079 181.105 56.1403 180.559C55.9758 180.01 55.7384 179.594 55.428 179.311C55.1207 179.026 54.7545 178.883 54.3293 178.883C53.6868 178.883 53.1824 179.199 52.8162 179.833C52.45 180.466 52.2653 181.377 52.2622 182.565C52.2622 183.36 52.3444 184.032 52.5089 184.581C52.6765 185.128 52.914 185.542 53.2212 185.824C53.5285 186.104 53.8978 186.243 54.3293 186.243ZM62.1364 187.486C61.4009 187.483 60.7724 187.289 60.2509 186.904C59.7295 186.52 59.3307 185.959 59.0544 185.224C58.7782 184.488 58.6401 183.602 58.6401 182.565C58.6401 181.532 58.7782 180.649 59.0544 179.916C59.3338 179.184 59.7342 178.625 60.2556 178.24C60.7801 177.856 61.4071 177.663 62.1364 177.663C62.8658 177.663 63.4912 177.857 64.0126 178.245C64.5341 178.63 64.9329 179.189 65.2091 179.921C65.4885 180.65 65.6281 181.532 65.6281 182.565C65.6281 183.605 65.49 184.493 65.2138 185.228C64.9375 185.961 64.5387 186.521 64.0173 186.909C63.4959 187.294 62.8689 187.486 62.1364 187.486ZM62.1364 186.243C62.782 186.243 63.2864 185.928 63.6495 185.298C64.0157 184.668 64.1989 183.757 64.1989 182.565C64.1989 181.774 64.1151 181.105 63.9475 180.559C63.783 180.01 63.5455 179.594 63.2352 179.311C62.9279 179.026 62.5616 178.883 62.1364 178.883C61.494 178.883 60.9896 179.199 60.6234 179.833C60.2571 180.466 60.0725 181.377 60.0694 182.565C60.0694 183.36 60.1516 184.032 60.3161 184.581C60.4837 185.128 60.7211 185.542 61.0284 185.824C61.3357 186.104 61.705 186.243 62.1364 186.243ZM69.9436 187.486C69.208 187.483 68.5795 187.289 68.0581 186.904C67.5367 186.52 67.1378 185.959 66.8616 185.224C66.5854 184.488 66.4473 183.602 66.4473 182.565C66.4473 181.532 66.5854 180.649 66.8616 179.916C67.1409 179.184 67.5413 178.625 68.0628 178.24C68.5873 177.856 69.2142 177.663 69.9436 177.663C70.673 177.663 71.2984 177.857 71.8198 178.245C72.3412 178.63 72.7401 179.189 73.0163 179.921C73.2956 180.65 73.4353 181.532 73.4353 182.565C73.4353 183.605 73.2972 184.493 73.0209 185.228C72.7447 185.961 72.3459 186.521 71.8245 186.909C71.303 187.294 70.6761 187.486 69.9436 187.486ZM69.9436 186.243C70.5892 186.243 71.0935 185.928 71.4567 185.298C71.8229 184.668 72.006 183.757 72.006 182.565C72.006 181.774 71.9222 181.105 71.7546 180.559C71.5901 180.01 71.3527 179.594 71.0423 179.311C70.7351 179.026 70.3688 178.883 69.9436 178.883C69.3011 178.883 68.7968 179.199 68.4305 179.833C68.0643 180.466 67.8796 181.377 67.8765 182.565C67.8765 183.36 67.9588 184.032 68.1233 184.581C68.2909 185.128 68.5283 185.542 68.8356 185.824C69.1428 186.104 69.5122 186.243 69.9436 186.243Z" fill="#464646"/>
<path d="M49.2425 214.191V223.726H47.7993V215.634H47.7434L45.4622 217.124V215.746L47.8412 214.191H49.2425ZM54.3134 223.856C53.7299 223.856 53.2054 223.744 52.7398 223.521C52.2774 223.294 51.908 222.984 51.6318 222.59C51.3556 222.195 51.2081 221.745 51.1895 221.24H52.5862C52.6203 221.649 52.8019 221.986 53.1309 222.25C53.4599 222.514 53.854 222.645 54.3134 222.645C54.6796 222.645 55.004 222.562 55.2864 222.394C55.572 222.223 55.7954 221.989 55.9568 221.691C56.1213 221.393 56.2036 221.053 56.2036 220.672C56.2036 220.284 56.1198 219.937 55.9522 219.633C55.7846 219.329 55.5533 219.09 55.2585 218.916C54.9667 218.743 54.6315 218.654 54.2529 218.651C53.9642 218.651 53.674 218.701 53.3823 218.8C53.0905 218.899 52.8546 219.03 52.6746 219.191L51.3571 218.996L51.8925 214.191H57.1347V215.425H53.089L52.7864 218.092H52.8422C53.0285 217.912 53.2752 217.762 53.5825 217.641C53.8928 217.52 54.2249 217.459 54.5788 217.459C55.1592 217.459 55.6759 217.597 56.1291 217.874C56.5853 218.15 56.9438 218.527 57.2045 219.005C57.4683 219.48 57.5987 220.026 57.5956 220.644C57.5987 221.261 57.459 221.812 57.1766 222.296C56.8972 222.781 56.5093 223.162 56.0127 223.442C55.5192 223.718 54.9528 223.856 54.3134 223.856ZM61.96 223.884C61.2244 223.881 60.5959 223.687 60.0744 223.302C59.553 222.917 59.1542 222.357 58.878 221.621C58.6017 220.886 58.4636 220 58.4636 218.963C58.4636 217.929 58.6017 217.046 58.878 216.314C59.1573 215.581 59.5577 215.023 60.0791 214.638C60.6036 214.253 61.2306 214.061 61.96 214.061C62.6893 214.061 63.3147 214.255 63.8362 214.643C64.3576 215.027 64.7564 215.586 65.0326 216.319C65.312 217.048 65.4516 217.929 65.4516 218.963C65.4516 220.003 65.3135 220.89 65.0373 221.626C64.7611 222.358 64.3622 222.919 63.8408 223.307C63.3194 223.691 62.6924 223.884 61.96 223.884ZM61.96 222.641C62.6055 222.641 63.1099 222.326 63.473 221.696C63.8393 221.066 64.0224 220.155 64.0224 218.963C64.0224 218.171 63.9386 217.503 63.771 216.956C63.6065 216.407 63.369 215.991 63.0587 215.709C62.7514 215.423 62.3852 215.28 61.96 215.28C61.3175 215.28 60.8131 215.597 60.4469 216.23C60.0807 216.863 59.896 217.774 59.8929 218.963C59.8929 219.757 59.9751 220.429 60.1396 220.979C60.3072 221.525 60.5447 221.939 60.8519 222.222C61.1592 222.501 61.5285 222.641 61.96 222.641ZM69.7671 223.884C69.0315 223.881 68.403 223.687 67.8816 223.302C67.3602 222.917 66.9614 222.357 66.6851 221.621C66.4089 220.886 66.2708 220 66.2708 218.963C66.2708 217.929 66.4089 217.046 66.6851 216.314C66.9645 215.581 67.3648 215.023 67.8863 214.638C68.4108 214.253 69.0378 214.061 69.7671 214.061C70.4965 214.061 71.1219 214.255 71.6433 214.643C72.1647 215.027 72.5636 215.586 72.8398 216.319C73.1191 217.048 73.2588 217.929 73.2588 218.963C73.2588 220.003 73.1207 220.89 72.8445 221.626C72.5682 222.358 72.1694 222.919 71.648 223.307C71.1266 223.691 70.4996 223.884 69.7671 223.884ZM69.7671 222.641C70.4127 222.641 70.9171 222.326 71.2802 221.696C71.6464 221.066 71.8295 220.155 71.8295 218.963C71.8295 218.171 71.7457 217.503 71.5781 216.956C71.4136 216.407 71.1762 215.991 70.8658 215.709C70.5586 215.423 70.1923 215.28 69.7671 215.28C69.1247 215.28 68.6203 215.597 68.2541 216.23C67.8878 216.863 67.7032 217.774 67.7 218.963C67.7 219.757 67.7823 220.429 67.9468 220.979C68.1144 221.525 68.3518 221.939 68.6591 222.222C68.9664 222.501 69.3357 222.641 69.7671 222.641Z" fill="#464646"/>
<path d="M49.2425 250.589V260.124H47.7993V252.032H47.7434L45.4622 253.522V252.144L47.8412 250.589H49.2425ZM54.4857 260.282C53.7501 260.279 53.1216 260.085 52.6001 259.7C52.0787 259.315 51.6799 258.755 51.4037 258.019C51.1274 257.284 50.9893 256.398 50.9893 255.361C50.9893 254.327 51.1274 253.444 51.4037 252.712C51.683 251.979 52.0834 251.421 52.6048 251.036C53.1293 250.651 53.7563 250.459 54.4857 250.459C55.215 250.459 55.8404 250.653 56.3619 251.041C56.8833 251.425 57.2821 251.984 57.5583 252.717C57.8377 253.446 57.9773 254.327 57.9773 255.361C57.9773 256.401 57.8392 257.288 57.563 258.024C57.2868 258.756 56.8879 259.317 56.3665 259.705C55.8451 260.089 55.2181 260.282 54.4857 260.282ZM54.4857 259.039C55.1312 259.039 55.6356 258.724 55.9987 258.094C56.365 257.464 56.5481 256.553 56.5481 255.361C56.5481 254.569 56.4643 253.901 56.2967 253.354C56.1322 252.805 55.8947 252.389 55.5844 252.107C55.2771 251.821 54.9109 251.678 54.4857 251.678C53.8432 251.678 53.3388 251.995 52.9726 252.628C52.6064 253.261 52.4217 254.172 52.4186 255.361C52.4186 256.155 52.5008 256.827 52.6653 257.377C52.8329 257.923 53.0704 258.337 53.3776 258.62C53.6849 258.899 54.0542 259.039 54.4857 259.039ZM62.2928 260.282C61.5572 260.279 60.9287 260.085 60.4073 259.7C59.8859 259.315 59.4871 258.755 59.2108 258.019C58.9346 257.284 58.7965 256.398 58.7965 255.361C58.7965 254.327 58.9346 253.444 59.2108 252.712C59.4902 251.979 59.8905 251.421 60.412 251.036C60.9365 250.651 61.5635 250.459 62.2928 250.459C63.0222 250.459 63.6476 250.653 64.169 251.041C64.6904 251.425 65.0893 251.984 65.3655 252.717C65.6448 253.446 65.7845 254.327 65.7845 255.361C65.7845 256.401 65.6464 257.288 65.3702 258.024C65.0939 258.756 64.6951 259.317 64.1737 259.705C63.6523 260.089 63.0253 260.282 62.2928 260.282ZM62.2928 259.039C62.9384 259.039 63.4428 258.724 63.8059 258.094C64.1721 257.464 64.3552 256.553 64.3552 255.361C64.3552 254.569 64.2714 253.901 64.1038 253.354C63.9393 252.805 63.7019 252.389 63.3915 252.107C63.0843 251.821 62.718 251.678 62.2928 251.678C61.6504 251.678 61.146 251.995 60.7798 252.628C60.4135 253.261 60.2289 254.172 60.2257 255.361C60.2257 256.155 60.308 256.827 60.4725 257.377C60.6401 257.923 60.8775 258.337 61.1848 258.62C61.4921 258.899 61.8614 259.039 62.2928 259.039ZM70.1 260.282C69.3644 260.279 68.7359 260.085 68.2145 259.7C67.6931 259.315 67.2942 258.755 67.018 258.019C66.7418 257.284 66.6037 256.398 66.6037 255.361C66.6037 254.327 66.7418 253.444 67.018 252.712C67.2973 251.979 67.6977 251.421 68.2191 251.036C68.7437 250.651 69.3706 250.459 70.1 250.459C70.8294 250.459 71.4548 250.653 71.9762 251.041C72.4976 251.425 72.8965 251.984 73.1727 252.717C73.452 253.446 73.5917 254.327 73.5917 255.361C73.5917 256.401 73.4536 257.288 73.1773 258.024C72.9011 258.756 72.5023 259.317 71.9809 259.705C71.4594 260.089 70.8325 260.282 70.1 260.282ZM70.1 259.039C70.7456 259.039 71.2499 258.724 71.6131 258.094C71.9793 257.464 72.1624 256.553 72.1624 255.361C72.1624 254.569 72.0786 253.901 71.911 253.354C71.7465 252.805 71.5091 252.389 71.1987 252.107C70.8914 251.821 70.5252 251.678 70.1 251.678C69.4575 251.678 68.9532 251.995 68.5869 252.628C68.2207 253.261 68.036 254.172 68.0329 255.361C68.0329 256.155 68.1152 256.827 68.2797 257.377C68.4473 257.923 68.6847 258.337 68.992 258.62C69.2992 258.899 69.6686 259.039 70.1 259.039Z" fill="#464646"/>
<path d="M54.7723 296.651C54.1888 296.651 53.6643 296.54 53.1987 296.316C52.7363 296.09 52.3669 295.779 52.0907 295.385C51.8145 294.991 51.6671 294.541 51.6484 294.035H53.0451C53.0792 294.445 53.2608 294.781 53.5898 295.045C53.9188 295.309 54.313 295.441 54.7723 295.441C55.1386 295.441 55.4629 295.357 55.7453 295.19C56.0309 295.019 56.2544 294.784 56.4157 294.487C56.5802 294.189 56.6625 293.849 56.6625 293.467C56.6625 293.079 56.5787 292.733 56.4111 292.429C56.2435 292.125 56.0123 291.886 55.7174 291.712C55.4257 291.538 55.0905 291.45 54.7118 291.446C54.4232 291.446 54.133 291.496 53.8412 291.595C53.5495 291.695 53.3136 291.825 53.1336 291.986L51.816 291.791L52.3514 286.986H57.5936V288.22H53.5479L53.2453 290.888H53.3012C53.4874 290.708 53.7341 290.557 54.0414 290.436C54.3518 290.315 54.6839 290.255 55.0377 290.255C55.6181 290.255 56.1349 290.393 56.588 290.669C57.0443 290.945 57.4027 291.322 57.6634 291.8C57.9273 292.275 58.0576 292.821 58.0545 293.439C58.0576 294.057 57.9179 294.608 57.6355 295.092C57.3562 295.576 56.9682 295.958 56.4716 296.237C55.9781 296.513 55.4117 296.651 54.7723 296.651ZM62.4189 296.679C61.6833 296.676 61.0548 296.482 60.5334 296.097C60.0119 295.712 59.6131 295.152 59.3369 294.417C59.0607 293.681 58.9225 292.795 58.9225 291.758C58.9225 290.725 59.0607 289.842 59.3369 289.109C59.6162 288.377 60.0166 287.818 60.538 287.433C61.0626 287.048 61.6895 286.856 62.4189 286.856C63.1483 286.856 63.7737 287.05 64.2951 287.438C64.8165 287.823 65.2153 288.381 65.4916 289.114C65.7709 289.843 65.9106 290.725 65.9106 291.758C65.9106 292.798 65.7725 293.686 65.4962 294.421C65.22 295.154 64.8212 295.714 64.2997 296.102C63.7783 296.487 63.1514 296.679 62.4189 296.679ZM62.4189 295.436C63.0645 295.436 63.5688 295.121 63.9319 294.491C64.2982 293.861 64.4813 292.95 64.4813 291.758C64.4813 290.967 64.3975 290.298 64.2299 289.752C64.0654 289.202 63.828 288.787 63.5176 288.504C63.2103 288.219 62.8441 288.076 62.4189 288.076C61.7764 288.076 61.2721 288.392 60.9058 289.026C60.5396 289.659 60.3549 290.57 60.3518 291.758C60.3518 292.553 60.4341 293.225 60.5986 293.774C60.7662 294.32 61.0036 294.735 61.3109 295.017C61.6181 295.297 61.9875 295.436 62.4189 295.436ZM70.2261 296.679C69.4905 296.676 68.862 296.482 68.3405 296.097C67.8191 295.712 67.4203 295.152 67.1441 294.417C66.8678 293.681 66.7297 292.795 66.7297 291.758C66.7297 290.725 66.8678 289.842 67.1441 289.109C67.4234 288.377 67.8238 287.818 68.3452 287.433C68.8697 287.048 69.4967 286.856 70.2261 286.856C70.9554 286.856 71.5808 287.05 72.1023 287.438C72.6237 287.823 73.0225 288.381 73.2987 289.114C73.5781 289.843 73.7177 290.725 73.7177 291.758C73.7177 292.798 73.5796 293.686 73.3034 294.421C73.0272 295.154 72.6283 295.714 72.1069 296.102C71.5855 296.487 70.9585 296.679 70.2261 296.679ZM70.2261 295.436C70.8716 295.436 71.376 295.121 71.7391 294.491C72.1054 293.861 72.2885 292.95 72.2885 291.758C72.2885 290.967 72.2047 290.298 72.0371 289.752C71.8726 289.202 71.6351 288.787 71.3248 288.504C71.0175 288.219 70.6513 288.076 70.2261 288.076C69.5836 288.076 69.0792 288.392 68.713 289.026C68.3468 289.659 68.1621 290.57 68.159 291.758C68.159 292.553 68.2412 293.225 68.4057 293.774C68.5733 294.32 68.8108 294.735 69.118 295.017C69.4253 295.297 69.7946 295.436 70.2261 295.436Z" fill="#464646"/>
<path d="M69.9446 333.077C69.209 333.074 68.5805 332.88 68.0591 332.495C67.5377 332.11 67.1388 331.55 66.8626 330.814C66.5864 330.079 66.4482 329.192 66.4482 328.156C66.4482 327.122 66.5864 326.239 66.8626 325.507C67.1419 324.774 67.5423 324.216 68.0637 323.831C68.5883 323.446 69.2152 323.253 69.9446 323.253C70.674 323.253 71.2994 323.447 71.8208 323.835C72.3422 324.22 72.741 324.779 73.0173 325.511C73.2966 326.241 73.4363 327.122 73.4363 328.156C73.4363 329.196 73.2982 330.083 73.0219 330.819C72.7457 331.551 72.3469 332.111 71.8254 332.499C71.304 332.884 70.6771 333.077 69.9446 333.077ZM69.9446 331.834C70.5902 331.834 71.0945 331.519 71.4576 330.889C71.8239 330.259 72.007 329.348 72.007 328.156C72.007 327.364 71.9232 326.696 71.7556 326.149C71.5911 325.6 71.3537 325.184 71.0433 324.902C70.736 324.616 70.3698 324.473 69.9446 324.473C69.3021 324.473 68.7978 324.79 68.4315 325.423C68.0653 326.056 67.8806 326.967 67.8775 328.156C67.8775 328.95 67.9598 329.622 68.1243 330.172C68.2919 330.718 68.5293 331.132 68.8366 331.415C69.1438 331.694 69.5132 331.834 69.9446 331.834Z" fill="#464646"/>
<g clip-path="url(#clip0_184_219)">
<line opacity="0.4" x1="88.8692" y1="141.923" x2="643.988" y2="140.614" stroke="#CCCCCC" stroke-width="0.749955" stroke-linecap="round" stroke-dasharray="13.11 10.49"/>
<line opacity="0.4" x1="88.8692" y1="180.058" x2="643.988" y2="178.749" stroke="#CCCCCC" stroke-width="0.749955" stroke-linecap="round" stroke-dasharray="13.11 10.49"/>
<line opacity="0.4" x1="88.8692" y1="218.194" x2="643.988" y2="216.885" stroke="#CCCCCC" stroke-width="0.749955" stroke-linecap="round" stroke-dasharray="13.11 10.49"/>
<line opacity="0.4" x1="88.8692" y1="256.329" x2="643.988" y2="255.02" stroke="#CCCCCC" stroke-width="0.749955" stroke-linecap="round" stroke-dasharray="13.11 10.49"/>
<line opacity="0.4" x1="88.8692" y1="294.465" x2="643.988" y2="293.156" stroke="#CCCCCC" stroke-width="0.749955" stroke-linecap="round" stroke-dasharray="13.11 10.49"/>
<line opacity="0.4" x1="88.8692" y1="332.6" x2="643.988" y2="331.291" stroke="#CCCCCC" stroke-width="0.749955" stroke-linecap="round" stroke-dasharray="13.11 10.49"/>
</g>
<rect x="153.792" y="190.485" width="46.4972" height="142.491" rx="7.86607" fill="#EAF5FF"/>
<mask id="mask0_184_219" style="mask-type:alpha" maskUnits="userSpaceOnUse" x="153" y="190" width="48" height="143">
<rect x="153.792" y="190.485" width="46.4972" height="142.491" rx="5.24404" fill="#D9D9D9"/>
</mask>
<g mask="url(#mask0_184_219)">
<path d="M155.587 17.6372L155.587 502.711" stroke="url(#paint0_linear_184_219)" stroke-width="1.96652"/>
<path d="M159.521 17.6372L159.521 502.711" stroke="url(#paint1_linear_184_219)" stroke-width="1.96652"/>
<path d="M163.453 17.6372L163.453 502.711" stroke="url(#paint2_linear_184_219)" stroke-width="1.96652"/>
<path d="M167.387 17.6372L167.387 502.711" stroke="url(#paint3_linear_184_219)" stroke-width="1.96652"/>
<path d="M171.319 17.6372L171.319 502.711" stroke="url(#paint4_linear_184_219)" stroke-width="1.96652"/>
<path d="M175.252 17.6372L175.252 502.711" stroke="url(#paint5_linear_184_219)" stroke-width="1.96652"/>
<path d="M179.186 17.6372L179.186 502.711" stroke="url(#paint6_linear_184_219)" stroke-width="1.96652"/>
<path d="M183.118 17.6372L183.118 502.711" stroke="url(#paint7_linear_184_219)" stroke-width="1.96652"/>
<path d="M187.052 17.6372L187.052 502.711" stroke="url(#paint8_linear_184_219)" stroke-width="1.96652"/>
<path d="M190.985 17.6372L190.985 502.711" stroke="url(#paint9_linear_184_219)" stroke-width="1.96652"/>
<path d="M194.918 17.6372L194.918 502.711" stroke="url(#paint10_linear_184_219)" stroke-width="1.96652"/>
<path d="M198.851 17.6372L198.851 502.711" stroke="url(#paint11_linear_184_219)" stroke-width="1.96652"/>
</g>
<rect x="153.792" y="194.985" width="46.4972" height="137.992" rx="5.24404" fill="url(#paint12_linear_184_219)"/>
<path d="M168.077 172.166V181.7H166.633V173.609H166.577L164.296 175.099V173.721L166.675 172.166H168.077ZM173.171 172.035C173.596 172.038 174.015 172.116 174.428 172.268C174.84 172.42 175.213 172.668 175.545 173.013C175.88 173.357 176.147 173.823 176.346 174.41C176.548 174.993 176.65 175.719 176.653 176.588C176.653 177.423 176.569 178.167 176.402 178.818C176.234 179.467 175.993 180.015 175.68 180.462C175.37 180.909 174.993 181.249 174.549 181.481C174.105 181.714 173.605 181.831 173.05 181.831C172.482 181.831 171.977 181.719 171.537 181.495C171.096 181.272 170.737 180.963 170.461 180.569C170.185 180.172 170.013 179.715 169.944 179.2H171.364C171.457 179.61 171.647 179.942 171.932 180.196C172.221 180.448 172.593 180.574 173.05 180.574C173.748 180.574 174.293 180.269 174.684 179.661C175.075 179.05 175.272 178.196 175.275 177.1H175.2C175.039 177.367 174.837 177.597 174.595 177.79C174.356 177.982 174.088 178.131 173.79 178.236C173.492 178.342 173.174 178.395 172.835 178.395C172.286 178.395 171.786 178.26 171.336 177.99C170.886 177.72 170.528 177.349 170.261 176.877C169.994 176.405 169.861 175.867 169.861 175.262C169.861 174.659 169.997 174.113 170.27 173.623C170.546 173.132 170.931 172.744 171.425 172.459C171.921 172.17 172.503 172.029 173.171 172.035ZM173.175 173.246C172.812 173.246 172.485 173.336 172.193 173.516C171.904 173.693 171.676 173.933 171.509 174.237C171.341 174.538 171.257 174.874 171.257 175.243C171.257 175.612 171.338 175.947 171.499 176.249C171.664 176.546 171.887 176.784 172.17 176.961C172.455 177.135 172.781 177.222 173.147 177.222C173.421 177.222 173.675 177.169 173.911 177.063C174.147 176.958 174.353 176.812 174.53 176.626C174.707 176.436 174.845 176.222 174.944 175.983C175.044 175.744 175.093 175.493 175.093 175.229C175.093 174.878 175.01 174.552 174.842 174.251C174.678 173.95 174.451 173.708 174.162 173.525C173.874 173.339 173.545 173.246 173.175 173.246ZM180.827 181.831C180.243 181.831 179.718 181.719 179.253 181.495C178.79 181.269 178.421 180.958 178.145 180.564C177.869 180.17 177.721 179.72 177.703 179.214H179.099C179.133 179.624 179.315 179.961 179.644 180.224C179.973 180.488 180.367 180.62 180.827 180.62C181.193 180.62 181.517 180.536 181.8 180.369C182.085 180.198 182.309 179.964 182.47 179.666C182.634 179.368 182.717 179.028 182.717 178.646C182.717 178.258 182.633 177.912 182.465 177.608C182.298 177.304 182.066 177.065 181.772 176.891C181.48 176.717 181.145 176.629 180.766 176.626C180.477 176.626 180.187 176.675 179.895 176.775C179.604 176.874 179.368 177.004 179.188 177.166L177.87 176.97L178.406 172.166H183.648V173.399H179.602L179.299 176.067H179.355C179.542 175.887 179.788 175.736 180.096 175.615C180.406 175.494 180.738 175.434 181.092 175.434C181.672 175.434 182.189 175.572 182.642 175.848C183.098 176.124 183.457 176.501 183.718 176.979C183.981 177.454 184.112 178.001 184.109 178.618C184.112 179.236 183.972 179.787 183.69 180.271C183.41 180.755 183.022 181.137 182.526 181.416C182.032 181.692 181.466 181.831 180.827 181.831ZM188.771 172.166V181.7H187.328V173.609H187.272L184.991 175.099V173.721L187.37 172.166H188.771Z" fill="#509DE4"/>
<rect x="258.785" y="208.484" width="46.4972" height="124.492" rx="7.86607" fill="#EAF5FF"/>
<mask id="mask1_184_219" style="mask-type:alpha" maskUnits="userSpaceOnUse" x="258" y="208" width="48" height="125">
<rect x="258.785" y="208.484" width="46.4972" height="124.492" rx="5.24404" fill="#D9D9D9"/>
</mask>
<g mask="url(#mask1_184_219)">
<path d="M260.58 26.6357L260.58 511.71" stroke="url(#paint13_linear_184_219)" stroke-width="1.96652"/>
<path d="M264.514 26.6357L264.514 511.71" stroke="url(#paint14_linear_184_219)" stroke-width="1.96652"/>
<path d="M268.446 26.6357L268.446 511.71" stroke="url(#paint15_linear_184_219)" stroke-width="1.96652"/>
<path d="M272.38 26.6357L272.38 511.71" stroke="url(#paint16_linear_184_219)" stroke-width="1.96652"/>
<path d="M276.313 26.6357L276.313 511.71" stroke="url(#paint17_linear_184_219)" stroke-width="1.96652"/>
<path d="M280.245 26.6357L280.245 511.71" stroke="url(#paint18_linear_184_219)" stroke-width="1.96652"/>
<path d="M284.179 26.6357L284.179 511.71" stroke="url(#paint19_linear_184_219)" stroke-width="1.96652"/>
<path d="M288.111 26.6357L288.111 511.71" stroke="url(#paint20_linear_184_219)" stroke-width="1.96652"/>
<path d="M292.045 26.6357L292.045 511.71" stroke="url(#paint21_linear_184_219)" stroke-width="1.96652"/>
<path d="M295.978 26.6357L295.978 511.71" stroke="url(#paint22_linear_184_219)" stroke-width="1.96652"/>
<path d="M299.911 26.6357L299.911 511.71" stroke="url(#paint23_linear_184_219)" stroke-width="1.96652"/>
<path d="M303.844 26.6357L303.844 511.71" stroke="url(#paint24_linear_184_219)" stroke-width="1.96652"/>
</g>
<rect x="258.785" y="211.483" width="46.4972" height="121.493" rx="5.24404" fill="url(#paint25_linear_184_219)"/>
<path d="M273.07 193.45V202.985H271.626V194.893H271.571L269.289 196.383V195.005L271.668 193.45H273.07ZM275.315 202.985L279.477 194.754V194.684H274.663V193.45H280.966V194.726L276.818 202.985H275.315ZM285.045 203.143C284.309 203.14 283.68 202.946 283.159 202.561C282.638 202.176 282.239 201.616 281.963 200.881C281.686 200.145 281.548 199.259 281.548 198.222C281.548 197.189 281.686 196.306 281.963 195.573C282.242 194.841 282.642 194.282 283.164 193.897C283.688 193.512 284.315 193.32 285.045 193.32C285.774 193.32 286.399 193.514 286.921 193.902C287.442 194.287 287.841 194.845 288.117 195.578C288.397 196.307 288.536 197.189 288.536 198.222C288.536 199.262 288.398 200.15 288.122 200.885C287.846 201.618 287.447 202.178 286.925 202.566C286.404 202.951 285.777 203.143 285.045 203.143ZM285.045 201.9C285.69 201.9 286.194 201.585 286.558 200.955C286.924 200.325 287.107 199.414 287.107 198.222C287.107 197.431 287.023 196.762 286.856 196.216C286.691 195.666 286.454 195.25 286.143 194.968C285.836 194.682 285.47 194.54 285.045 194.54C284.402 194.54 283.898 194.856 283.531 195.489C283.165 196.123 282.981 197.033 282.977 198.222C282.977 199.017 283.06 199.689 283.224 200.238C283.392 200.784 283.629 201.199 283.937 201.481C284.244 201.76 284.613 201.9 285.045 201.9ZM292.679 203.115C292.096 203.115 291.571 203.003 291.106 202.78C290.643 202.553 290.274 202.243 289.998 201.849C289.722 201.455 289.574 201.005 289.556 200.499H290.952C290.986 200.908 291.168 201.245 291.497 201.509C291.826 201.773 292.22 201.905 292.679 201.905C293.046 201.905 293.37 201.821 293.652 201.653C293.938 201.483 294.161 201.248 294.323 200.95C294.487 200.652 294.57 200.313 294.57 199.931C294.57 199.543 294.486 199.197 294.318 198.893C294.151 198.588 293.919 198.349 293.625 198.176C293.333 198.002 292.998 197.913 292.619 197.91C292.33 197.91 292.04 197.96 291.748 198.059C291.457 198.159 291.221 198.289 291.041 198.45L289.723 198.255L290.259 193.45H295.501V194.684H291.455L291.152 197.352H291.208C291.395 197.172 291.641 197.021 291.949 196.9C292.259 196.779 292.591 196.718 292.945 196.718C293.525 196.718 294.042 196.857 294.495 197.133C294.951 197.409 295.31 197.786 295.571 198.264C295.834 198.739 295.965 199.285 295.962 199.903C295.965 200.521 295.825 201.071 295.543 201.556C295.263 202.04 294.875 202.422 294.379 202.701C293.885 202.977 293.319 203.115 292.679 203.115Z" fill="#509DE4"/>
<rect x="363.779" y="263.98" width="46.4972" height="68.9958" rx="7.86607" fill="#EAF5FF"/>
<mask id="mask2_184_219" style="mask-type:alpha" maskUnits="userSpaceOnUse" x="363" y="263" width="48" height="70">
<rect x="363.779" y="263.98" width="46.4972" height="68.9958" rx="5.24404" fill="#D9D9D9"/>
</mask>
<g mask="url(#mask2_184_219)">
<path d="M365.574 54.1323L365.574 539.206" stroke="url(#paint26_linear_184_219)" stroke-width="1.96652"/>
<path d="M369.508 54.1323L369.508 539.206" stroke="url(#paint27_linear_184_219)" stroke-width="1.96652"/>
<path d="M373.441 54.1323L373.441 539.206" stroke="url(#paint28_linear_184_219)" stroke-width="1.96652"/>
<path d="M377.374 54.1323L377.374 539.206" stroke="url(#paint29_linear_184_219)" stroke-width="1.96652"/>
<path d="M381.307 54.1323L381.307 539.206" stroke="url(#paint30_linear_184_219)" stroke-width="1.96652"/>
<path d="M385.239 54.1323L385.239 539.206" stroke="url(#paint31_linear_184_219)" stroke-width="1.96652"/>
<path d="M389.173 54.1323L389.173 539.206" stroke="url(#paint32_linear_184_219)" stroke-width="1.96652"/>
<path d="M393.106 54.1323L393.106 539.206" stroke="url(#paint33_linear_184_219)" stroke-width="1.96652"/>
<path d="M397.039 54.1323L397.039 539.206" stroke="url(#paint34_linear_184_219)" stroke-width="1.96652"/>
<path d="M400.972 54.1323L400.972 539.206" stroke="url(#paint35_linear_184_219)" stroke-width="1.96652"/>
<path d="M404.905 54.1323L404.905 539.206" stroke="url(#paint36_linear_184_219)" stroke-width="1.96652"/>
<path d="M408.838 54.1323L408.838 539.206" stroke="url(#paint37_linear_184_219)" stroke-width="1.96652"/>
</g>
<rect x="363.779" y="268.48" width="46.4972" height="64.4961" rx="5.24404" fill="url(#paint38_linear_184_219)"/>
<path d="M379.916 258.612C379.249 258.612 378.659 258.497 378.147 258.268C377.638 258.038 377.239 257.722 376.951 257.318C376.662 256.915 376.519 256.455 376.522 255.94C376.519 255.537 376.601 255.166 376.769 254.827C376.94 254.486 377.171 254.202 377.463 253.975C377.754 253.746 378.08 253.6 378.44 253.538V253.482C377.965 253.367 377.585 253.112 377.3 252.718C377.014 252.324 376.873 251.871 376.876 251.359C376.873 250.872 377.002 250.437 377.262 250.055C377.526 249.67 377.888 249.368 378.347 249.147C378.807 248.927 379.33 248.817 379.916 248.817C380.497 248.817 381.015 248.929 381.471 249.152C381.93 249.373 382.292 249.675 382.556 250.06C382.82 250.442 382.953 250.875 382.956 251.359C382.953 251.871 382.807 252.324 382.519 252.718C382.23 253.112 381.854 253.367 381.392 253.482V253.538C381.749 253.6 382.07 253.746 382.356 253.975C382.644 254.202 382.874 254.486 383.045 254.827C383.219 255.166 383.307 255.537 383.31 255.94C383.307 256.455 383.161 256.915 382.872 257.318C382.584 257.722 382.183 258.038 381.671 258.268C381.162 258.497 380.577 258.612 379.916 258.612ZM379.916 257.434C380.31 257.434 380.652 257.369 380.94 257.239C381.229 257.105 381.452 256.921 381.611 256.685C381.769 256.446 381.85 256.167 381.853 255.847C381.85 255.515 381.763 255.221 381.592 254.967C381.425 254.712 381.196 254.512 380.908 254.366C380.619 254.221 380.289 254.148 379.916 254.148C379.541 254.148 379.207 254.221 378.915 254.366C378.623 254.512 378.394 254.712 378.226 254.967C378.059 255.221 377.976 255.515 377.979 255.847C377.976 256.167 378.052 256.446 378.208 256.685C378.366 256.921 378.591 257.105 378.883 257.239C379.174 257.369 379.519 257.434 379.916 257.434ZM379.916 252.998C380.233 252.998 380.514 252.934 380.759 252.807C381.004 252.68 381.196 252.503 381.336 252.276C381.479 252.049 381.552 251.784 381.555 251.48C381.552 251.182 381.48 250.921 381.341 250.698C381.204 250.474 381.013 250.302 380.768 250.181C380.523 250.057 380.239 249.995 379.916 249.995C379.587 249.995 379.299 250.057 379.05 250.181C378.805 250.302 378.614 250.474 378.478 250.698C378.341 250.921 378.274 251.182 378.277 251.48C378.274 251.784 378.343 252.049 378.482 252.276C378.622 252.503 378.814 252.68 379.06 252.807C379.308 252.934 379.593 252.998 379.916 252.998ZM387.47 258.612C386.886 258.612 386.362 258.501 385.896 258.277C385.434 258.051 385.064 257.74 384.788 257.346C384.512 256.952 384.364 256.502 384.346 255.996H385.742C385.777 256.406 385.958 256.742 386.287 257.006C386.616 257.27 387.01 257.402 387.47 257.402C387.836 257.402 388.16 257.318 388.443 257.15C388.728 256.98 388.952 256.745 389.113 256.447C389.278 256.149 389.36 255.81 389.36 255.428C389.36 255.04 389.276 254.694 389.108 254.39C388.941 254.086 388.71 253.847 388.415 253.673C388.123 253.499 387.788 253.41 387.409 253.407C387.12 253.407 386.83 253.457 386.538 253.556C386.247 253.656 386.011 253.786 385.831 253.947L384.513 253.752L385.049 248.947H390.291V250.181H386.245L385.943 252.849H385.998C386.185 252.669 386.431 252.518 386.739 252.397C387.049 252.276 387.381 252.216 387.735 252.216C388.315 252.216 388.832 252.354 389.285 252.63C389.742 252.906 390.1 253.283 390.361 253.761C390.625 254.236 390.755 254.782 390.752 255.4C390.755 256.018 390.615 256.568 390.333 257.053C390.053 257.537 389.665 257.919 389.169 258.198C388.675 258.474 388.109 258.612 387.47 258.612ZM395.414 248.947V258.482H393.971V250.391H393.915L391.634 251.88V250.502L394.013 248.947H395.414Z" fill="#509DE4"/>
<rect x="468.773" y="161.987" width="46.4972" height="170.99" rx="7.86607" fill="#EAF5FF"/>
<mask id="mask3_184_219" style="mask-type:alpha" maskUnits="userSpaceOnUse" x="468" y="161" width="48" height="172">
<rect x="468.773" y="161.987" width="46.4972" height="170.99" rx="5.24404" fill="#D9D9D9"/>
</mask>
<g mask="url(#mask3_184_219)">
<path d="M470.569 3.13867L470.569 488.213" stroke="url(#paint39_linear_184_219)" stroke-width="1.96652"/>
<path d="M474.502 3.13867L474.502 488.213" stroke="url(#paint40_linear_184_219)" stroke-width="1.96652"/>
<path d="M478.435 3.13867L478.435 488.213" stroke="url(#paint41_linear_184_219)" stroke-width="1.96652"/>
<path d="M482.368 3.13867L482.368 488.213" stroke="url(#paint42_linear_184_219)" stroke-width="1.96652"/>
<path d="M486.301 3.13867L486.301 488.213" stroke="url(#paint43_linear_184_219)" stroke-width="1.96652"/>
<path d="M490.234 3.13867L490.234 488.213" stroke="url(#paint44_linear_184_219)" stroke-width="1.96652"/>
<path d="M494.167 3.13867L494.167 488.213" stroke="url(#paint45_linear_184_219)" stroke-width="1.96652"/>
<path d="M498.1 3.13867L498.1 488.213" stroke="url(#paint46_linear_184_219)" stroke-width="1.96652"/>
<path d="M502.033 3.13867L502.033 488.213" stroke="url(#paint47_linear_184_219)" stroke-width="1.96652"/>
<path d="M505.966 3.13867L505.966 488.213" stroke="url(#paint48_linear_184_219)" stroke-width="1.96652"/>
<path d="M509.9 3.13867L509.9 488.213" stroke="url(#paint49_linear_184_219)" stroke-width="1.96652"/>
<path d="M513.832 3.13867V488.213" stroke="url(#paint50_linear_184_219)" stroke-width="1.96652"/>
</g>
<rect x="468.773" y="164.986" width="46.4972" height="167.99" rx="5.24404" fill="url(#paint51_linear_184_219)"/>
<path d="M478.69 156.488V155.445L481.916 152.102C482.26 151.739 482.544 151.421 482.768 151.148C482.994 150.872 483.164 150.609 483.275 150.361C483.387 150.113 483.443 149.849 483.443 149.57C483.443 149.253 483.368 148.98 483.219 148.75C483.071 148.517 482.867 148.339 482.61 148.215C482.352 148.088 482.062 148.024 481.739 148.024C481.398 148.024 481.1 148.094 480.845 148.233C480.591 148.373 480.395 148.57 480.259 148.825C480.122 149.079 480.054 149.377 480.054 149.719H478.68C478.68 149.138 478.814 148.631 479.081 148.196C479.348 147.762 479.714 147.425 480.179 147.186C480.645 146.944 481.174 146.823 481.767 146.823C482.366 146.823 482.894 146.942 483.35 147.181C483.809 147.417 484.168 147.74 484.425 148.15C484.683 148.556 484.812 149.016 484.812 149.528C484.812 149.882 484.745 150.228 484.612 150.566C484.481 150.904 484.253 151.281 483.927 151.697C483.601 152.11 483.148 152.611 482.568 153.201L480.673 155.184V155.254H484.965V156.488H478.69ZM489.394 156.618C488.754 156.618 488.183 156.508 487.68 156.288C487.181 156.067 486.785 155.762 486.493 155.37C486.205 154.976 486.049 154.52 486.028 154.002H487.49C487.508 154.284 487.603 154.529 487.774 154.737C487.947 154.942 488.174 155.1 488.453 155.212C488.733 155.324 489.043 155.38 489.384 155.38C489.76 155.38 490.092 155.315 490.381 155.184C490.672 155.054 490.901 154.872 491.065 154.64C491.23 154.404 491.312 154.132 491.312 153.825C491.312 153.505 491.23 153.224 491.065 152.982C490.904 152.737 490.666 152.545 490.353 152.405C490.042 152.265 489.667 152.195 489.226 152.195H488.421V151.022H489.226C489.58 151.022 489.89 150.959 490.157 150.831C490.427 150.704 490.638 150.527 490.79 150.301C490.942 150.071 491.019 149.802 491.019 149.495C491.019 149.2 490.952 148.944 490.818 148.727C490.688 148.507 490.502 148.334 490.26 148.21C490.021 148.086 489.738 148.024 489.412 148.024C489.102 148.024 488.812 148.081 488.542 148.196C488.275 148.308 488.058 148.469 487.89 148.68C487.722 148.888 487.632 149.138 487.62 149.43H486.228C486.243 148.915 486.396 148.462 486.684 148.071C486.976 147.679 487.361 147.374 487.839 147.153C488.317 146.933 488.847 146.823 489.431 146.823C490.042 146.823 490.57 146.942 491.014 147.181C491.461 147.417 491.805 147.732 492.047 148.126C492.293 148.521 492.414 148.952 492.411 149.421C492.414 149.954 492.265 150.408 491.964 150.78C491.666 151.152 491.268 151.402 490.772 151.53V151.604C491.405 151.7 491.895 151.952 492.243 152.358C492.594 152.765 492.767 153.269 492.764 153.871C492.767 154.396 492.622 154.866 492.327 155.282C492.035 155.698 491.636 156.025 491.13 156.264C490.624 156.5 490.045 156.618 489.394 156.618ZM494.19 156.488L498.352 148.257V148.187H493.538V146.953H499.842V148.229L495.694 156.488H494.19ZM504.423 146.953V156.488H502.979V148.396H502.924L500.642 149.886V148.508L503.021 146.953H504.423Z" fill="#509DE4"/>
<path d="M150.342 354.918V353.725L154.033 349.901C154.428 349.486 154.753 349.122 155.008 348.809C155.267 348.493 155.461 348.193 155.589 347.909C155.717 347.625 155.781 347.323 155.781 347.003C155.781 346.641 155.695 346.329 155.525 346.066C155.354 345.8 155.122 345.596 154.827 345.453C154.532 345.308 154.2 345.235 153.831 345.235C153.44 345.235 153.1 345.315 152.808 345.475C152.517 345.635 152.293 345.86 152.137 346.151C151.981 346.442 151.903 346.783 151.903 347.174H150.332C150.332 346.51 150.484 345.929 150.79 345.432C151.095 344.935 151.514 344.55 152.047 344.276C152.579 343.999 153.185 343.861 153.863 343.861C154.548 343.861 155.152 343.998 155.674 344.271C156.2 344.541 156.61 344.91 156.904 345.379C157.199 345.844 157.346 346.37 157.346 346.956C157.346 347.36 157.27 347.756 157.117 348.143C156.968 348.53 156.707 348.962 156.334 349.438C155.962 349.91 155.443 350.483 154.779 351.158L152.611 353.427V353.507H157.522V354.918H150.342ZM162.683 355.1C161.842 355.096 161.123 354.874 160.526 354.434C159.929 353.993 159.473 353.353 159.157 352.511C158.841 351.669 158.683 350.656 158.683 349.47C158.683 348.287 158.841 347.277 159.157 346.439C159.477 345.601 159.935 344.962 160.531 344.521C161.131 344.081 161.849 343.861 162.683 343.861C163.518 343.861 164.233 344.083 164.83 344.527C165.426 344.967 165.883 345.606 166.199 346.444C166.518 347.279 166.678 348.287 166.678 349.47C166.678 350.659 166.52 351.675 166.204 352.516C165.888 353.354 165.432 353.995 164.835 354.439C164.238 354.879 163.521 355.1 162.683 355.1ZM162.683 353.677C163.422 353.677 163.999 353.317 164.414 352.596C164.833 351.875 165.043 350.833 165.043 349.47C165.043 348.564 164.947 347.799 164.755 347.174C164.567 346.545 164.295 346.07 163.94 345.746C163.589 345.42 163.17 345.256 162.683 345.256C161.948 345.256 161.371 345.619 160.952 346.343C160.533 347.067 160.322 348.11 160.318 349.47C160.318 350.379 160.412 351.147 160.601 351.776C160.792 352.401 161.064 352.875 161.415 353.198C161.767 353.518 162.19 353.677 162.683 353.677ZM172.051 344.01V354.918H170.399V345.661H170.335L167.726 347.366V345.789L170.447 344.01H172.051ZM174.713 354.918L179.475 345.501V345.422H173.968V344.01H181.18V345.469L176.434 354.918H174.713ZM187.218 348.772V350.157H182.382V348.772H187.218ZM192.802 344.01V354.918H191.151V345.661H191.087L188.477 347.366V345.789L191.199 344.01H192.802ZM198.784 355.068C198.02 355.068 197.345 354.936 196.76 354.673C196.177 354.411 195.721 354.048 195.391 353.587C195.06 353.125 194.897 352.6 194.901 352.01C194.897 351.549 194.991 351.124 195.183 350.737C195.378 350.347 195.643 350.022 195.977 349.763C196.31 349.5 196.683 349.333 197.095 349.262V349.198C196.552 349.067 196.117 348.775 195.79 348.324C195.463 347.873 195.302 347.355 195.305 346.769C195.302 346.212 195.449 345.714 195.748 345.278C196.049 344.837 196.463 344.491 196.989 344.239C197.514 343.987 198.112 343.861 198.784 343.861C199.448 343.861 200.041 343.989 200.563 344.244C201.088 344.497 201.502 344.843 201.804 345.283C202.105 345.72 202.258 346.215 202.262 346.769C202.258 347.355 202.091 347.873 201.761 348.324C201.431 348.775 201.001 349.067 200.472 349.198V349.262C200.88 349.333 201.248 349.5 201.575 349.763C201.905 350.022 202.168 350.347 202.363 350.737C202.562 351.124 202.663 351.549 202.666 352.01C202.663 352.6 202.496 353.125 202.166 353.587C201.836 354.048 201.377 354.411 200.792 354.673C200.209 354.936 199.54 355.068 198.784 355.068ZM198.784 353.72C199.235 353.72 199.625 353.645 199.955 353.496C200.286 353.344 200.541 353.132 200.722 352.862C200.903 352.589 200.996 352.269 200.999 351.904C200.996 351.524 200.896 351.188 200.701 350.897C200.509 350.606 200.248 350.377 199.918 350.21C199.588 350.043 199.21 349.96 198.784 349.96C198.354 349.96 197.972 350.043 197.638 350.21C197.305 350.377 197.042 350.606 196.85 350.897C196.658 351.188 196.564 351.524 196.568 351.904C196.564 352.269 196.651 352.589 196.829 352.862C197.01 353.132 197.267 353.344 197.601 353.496C197.935 353.645 198.329 353.72 198.784 353.72ZM198.784 348.644C199.146 348.644 199.467 348.571 199.748 348.426C200.028 348.28 200.248 348.078 200.408 347.818C200.571 347.559 200.655 347.256 200.658 346.908C200.655 346.567 200.573 346.268 200.413 346.013C200.257 345.757 200.039 345.56 199.758 345.422C199.478 345.279 199.153 345.208 198.784 345.208C198.407 345.208 198.077 345.279 197.793 345.422C197.512 345.56 197.294 345.757 197.138 346.013C196.981 346.268 196.905 346.567 196.909 346.908C196.905 347.256 196.983 347.559 197.143 347.818C197.303 348.078 197.523 348.28 197.803 348.426C198.088 348.571 198.414 348.644 198.784 348.644Z" fill="#7A7A7A"/>
<path d="M255.335 354.918V353.725L259.027 349.901C259.421 349.486 259.746 349.122 260.001 348.809C260.261 348.493 260.454 348.193 260.582 347.909C260.71 347.625 260.774 347.323 260.774 347.003C260.774 346.641 260.688 346.329 260.518 346.066C260.348 345.8 260.115 345.596 259.82 345.453C259.526 345.308 259.194 345.235 258.824 345.235C258.434 345.235 258.093 345.315 257.802 345.475C257.51 345.635 257.287 345.86 257.13 346.151C256.974 346.442 256.896 346.783 256.896 347.174H255.325C255.325 346.51 255.477 345.929 255.783 345.432C256.088 344.935 256.507 344.55 257.04 344.276C257.573 343.999 258.178 343.861 258.856 343.861C259.541 343.861 260.145 343.998 260.667 344.271C261.193 344.541 261.603 344.91 261.898 345.379C262.192 345.844 262.34 346.37 262.34 346.956C262.34 347.36 262.263 347.756 262.111 348.143C261.961 348.53 261.7 348.962 261.328 349.438C260.955 349.91 260.436 350.483 259.772 351.158L257.604 353.427V353.507H262.515V354.918H255.335ZM267.676 355.1C266.835 355.096 266.116 354.874 265.519 354.434C264.923 353.993 264.466 353.353 264.15 352.511C263.834 351.669 263.676 350.656 263.676 349.47C263.676 348.287 263.834 347.277 264.15 346.439C264.47 345.601 264.928 344.962 265.524 344.521C266.125 344.081 266.842 343.861 267.676 343.861C268.511 343.861 269.226 344.083 269.823 344.527C270.419 344.967 270.876 345.606 271.192 346.444C271.511 347.279 271.671 348.287 271.671 349.47C271.671 350.659 271.513 351.675 271.197 352.516C270.881 353.354 270.425 353.995 269.828 354.439C269.232 354.879 268.514 355.1 267.676 355.1ZM267.676 353.677C268.415 353.677 268.992 353.317 269.407 352.596C269.826 351.875 270.036 350.833 270.036 349.47C270.036 348.564 269.94 347.799 269.748 347.174C269.56 346.545 269.288 346.07 268.933 345.746C268.582 345.42 268.163 345.256 267.676 345.256C266.941 345.256 266.364 345.619 265.945 346.343C265.526 347.067 265.315 348.11 265.311 349.47C265.311 350.379 265.405 351.147 265.594 351.776C265.785 352.401 266.057 352.875 266.409 353.198C266.76 353.518 267.183 353.677 267.676 353.677ZM277.044 344.01V354.918H275.393V345.661H275.329L272.719 347.366V345.789L275.44 344.01H277.044ZM283.025 355.068C282.261 355.068 281.587 354.936 281.001 354.673C280.419 354.411 279.962 354.048 279.632 353.587C279.302 353.125 279.138 352.6 279.142 352.01C279.138 351.549 279.232 351.124 279.424 350.737C279.62 350.347 279.884 350.022 280.218 349.763C280.552 349.5 280.925 349.333 281.336 349.262V349.198C280.793 349.067 280.358 348.775 280.031 348.324C279.705 347.873 279.543 347.355 279.547 346.769C279.543 346.212 279.691 345.714 279.989 345.278C280.291 344.837 280.704 344.491 281.23 344.239C281.755 343.987 282.354 343.861 283.025 343.861C283.689 343.861 284.282 343.989 284.804 344.244C285.329 344.497 285.743 344.843 286.045 345.283C286.347 345.72 286.499 346.215 286.503 346.769C286.499 347.355 286.333 347.873 286.002 348.324C285.672 348.775 285.242 349.067 284.713 349.198V349.262C285.122 349.333 285.489 349.5 285.816 349.763C286.146 350.022 286.409 350.347 286.604 350.737C286.803 351.124 286.904 351.549 286.908 352.01C286.904 352.6 286.737 353.125 286.407 353.587C286.077 354.048 285.619 354.411 285.033 354.673C284.451 354.936 283.781 355.068 283.025 355.068ZM283.025 353.72C283.476 353.72 283.866 353.645 284.197 353.496C284.527 353.344 284.783 353.132 284.964 352.862C285.145 352.589 285.237 352.269 285.241 351.904C285.237 351.524 285.138 351.188 284.942 350.897C284.751 350.606 284.49 350.377 284.159 350.21C283.829 350.043 283.451 349.96 283.025 349.96C282.595 349.96 282.213 350.043 281.88 350.21C281.546 350.377 281.283 350.606 281.091 350.897C280.9 351.188 280.806 351.524 280.809 351.904C280.806 352.269 280.893 352.589 281.07 352.862C281.251 353.132 281.509 353.344 281.842 353.496C282.176 353.645 282.57 353.72 283.025 353.72ZM283.025 348.644C283.387 348.644 283.708 348.571 283.989 348.426C284.269 348.28 284.49 348.078 284.649 347.818C284.813 347.559 284.896 347.256 284.9 346.908C284.896 346.567 284.815 346.268 284.655 346.013C284.499 345.757 284.28 345.56 284 345.422C283.719 345.279 283.394 345.208 283.025 345.208C282.648 345.208 282.318 345.279 282.034 345.422C281.754 345.56 281.535 345.757 281.379 346.013C281.223 346.268 281.146 346.567 281.15 346.908C281.146 347.256 281.225 347.559 281.384 347.818C281.544 348.078 281.764 348.28 282.045 348.426C282.329 348.571 282.656 348.644 283.025 348.644ZM293.002 348.772V350.157H288.166V348.772H293.002ZM298.587 344.01V354.918H296.935V345.661H296.871L294.261 347.366V345.789L296.983 344.01H298.587ZM304.509 343.861C304.996 343.864 305.475 343.953 305.947 344.127C306.419 344.301 306.846 344.585 307.226 344.979C307.609 345.374 307.914 345.906 308.142 346.577C308.372 347.245 308.49 348.076 308.493 349.07C308.493 350.025 308.397 350.876 308.206 351.621C308.014 352.364 307.739 352.99 307.38 353.502C307.025 354.013 306.593 354.402 306.086 354.668C305.578 354.934 305.006 355.068 304.371 355.068C303.721 355.068 303.144 354.94 302.64 354.684C302.135 354.428 301.725 354.075 301.409 353.624C301.093 353.17 300.896 352.648 300.818 352.058H302.442C302.549 352.527 302.766 352.907 303.092 353.198C303.423 353.486 303.849 353.629 304.371 353.629C305.17 353.629 305.793 353.281 306.24 352.586C306.688 351.886 306.913 350.909 306.917 349.656H306.831C306.647 349.961 306.416 350.224 306.139 350.444C305.866 350.664 305.558 350.835 305.218 350.956C304.877 351.076 304.513 351.137 304.126 351.137C303.497 351.137 302.925 350.982 302.411 350.673C301.896 350.364 301.485 349.94 301.18 349.4C300.875 348.861 300.722 348.244 300.722 347.552C300.722 346.863 300.878 346.238 301.191 345.677C301.507 345.116 301.947 344.672 302.512 344.346C303.08 344.015 303.746 343.854 304.509 343.861ZM304.514 345.246C304.099 345.246 303.724 345.349 303.391 345.555C303.06 345.757 302.799 346.032 302.608 346.38C302.416 346.725 302.32 347.108 302.32 347.531C302.32 347.953 302.412 348.337 302.597 348.681C302.785 349.022 303.041 349.294 303.364 349.496C303.691 349.695 304.063 349.794 304.482 349.794C304.795 349.794 305.086 349.734 305.356 349.613C305.626 349.493 305.862 349.326 306.064 349.113C306.267 348.896 306.425 348.651 306.538 348.378C306.652 348.104 306.709 347.817 306.709 347.515C306.709 347.114 306.613 346.741 306.421 346.396C306.233 346.052 305.974 345.775 305.644 345.565C305.313 345.352 304.937 345.246 304.514 345.246Z" fill="#7A7A7A"/>
<path d="M360.329 354.918V353.725L364.02 349.901C364.414 349.486 364.739 349.122 364.995 348.809C365.254 348.493 365.447 348.193 365.575 347.909C365.703 347.625 365.767 347.323 365.767 347.003C365.767 346.641 365.682 346.329 365.511 346.066C365.341 345.8 365.108 345.596 364.813 345.453C364.519 345.308 364.187 345.235 363.817 345.235C363.427 345.235 363.086 345.315 362.795 345.475C362.504 345.635 362.28 345.86 362.124 346.151C361.967 346.442 361.889 346.783 361.889 347.174H360.318C360.318 346.51 360.471 345.929 360.776 345.432C361.081 344.935 361.5 344.55 362.033 344.276C362.566 343.999 363.171 343.861 363.849 343.861C364.535 343.861 365.138 343.998 365.66 344.271C366.186 344.541 366.596 344.91 366.891 345.379C367.185 345.844 367.333 346.37 367.333 346.956C367.333 347.36 367.256 347.756 367.104 348.143C366.955 348.53 366.694 348.962 366.321 349.438C365.948 349.91 365.429 350.483 364.765 351.158L362.598 353.427V353.507H367.509V354.918H360.329ZM372.669 355.1C371.828 355.096 371.109 354.874 370.512 354.434C369.916 353.993 369.459 353.353 369.143 352.511C368.827 351.669 368.669 350.656 368.669 349.47C368.669 348.287 368.827 347.277 369.143 346.439C369.463 345.601 369.921 344.962 370.518 344.521C371.118 344.081 371.835 343.861 372.669 343.861C373.504 343.861 374.219 344.083 374.816 344.527C375.413 344.967 375.869 345.606 376.185 346.444C376.504 347.279 376.664 348.287 376.664 349.47C376.664 350.659 376.506 351.675 376.19 352.516C375.874 353.354 375.418 353.995 374.821 354.439C374.225 354.879 373.507 355.1 372.669 355.1ZM372.669 353.677C373.408 353.677 373.985 353.317 374.401 352.596C374.82 351.875 375.029 350.833 375.029 349.47C375.029 348.564 374.933 347.799 374.741 347.174C374.553 346.545 374.282 346.07 373.926 345.746C373.575 345.42 373.156 345.256 372.669 345.256C371.934 345.256 371.357 345.619 370.938 346.343C370.519 347.067 370.308 348.11 370.305 349.47C370.305 350.379 370.399 351.147 370.587 351.776C370.779 352.401 371.05 352.875 371.402 353.198C371.753 353.518 372.176 353.677 372.669 353.677ZM382.037 344.01V354.918H380.386V345.661H380.322L377.712 347.366V345.789L380.434 344.01H382.037ZM387.959 343.861C388.446 343.864 388.925 343.953 389.398 344.127C389.87 344.301 390.296 344.585 390.676 344.979C391.059 345.374 391.365 345.906 391.592 346.577C391.823 347.245 391.94 348.076 391.944 349.07C391.944 350.025 391.848 350.876 391.656 351.621C391.464 352.364 391.189 352.99 390.83 353.502C390.475 354.013 390.044 354.402 389.536 354.668C389.028 354.934 388.457 355.068 387.821 355.068C387.171 355.068 386.594 354.94 386.09 354.684C385.586 354.428 385.176 354.075 384.859 353.624C384.543 353.17 384.346 352.648 384.268 352.058H385.893C385.999 352.527 386.216 352.907 386.543 353.198C386.873 353.486 387.299 353.629 387.821 353.629C388.62 353.629 389.243 353.281 389.691 352.586C390.138 351.886 390.363 350.909 390.367 349.656H390.282C390.097 349.961 389.866 350.224 389.589 350.444C389.316 350.664 389.009 350.835 388.668 350.956C388.327 351.076 387.963 351.137 387.576 351.137C386.947 351.137 386.376 350.982 385.861 350.673C385.346 350.364 384.936 349.94 384.63 349.4C384.325 348.861 384.172 348.244 384.172 347.552C384.172 346.863 384.329 346.238 384.641 345.677C384.957 345.116 385.397 344.672 385.962 344.346C386.53 344.015 387.196 343.854 387.959 343.861ZM387.965 345.246C387.549 345.246 387.175 345.349 386.841 345.555C386.511 345.757 386.25 346.032 386.058 346.38C385.866 346.725 385.77 347.108 385.77 347.531C385.77 347.953 385.863 348.337 386.047 348.681C386.235 349.022 386.491 349.294 386.814 349.496C387.141 349.695 387.514 349.794 387.933 349.794C388.245 349.794 388.536 349.734 388.806 349.613C389.076 349.493 389.312 349.326 389.515 349.113C389.717 348.896 389.875 348.651 389.989 348.378C390.102 348.104 390.159 347.817 390.159 347.515C390.159 347.114 390.063 346.741 389.872 346.396C389.683 346.052 389.424 345.775 389.094 345.565C388.764 345.352 388.387 345.246 387.965 345.246ZM398.054 348.772V350.157H393.218V348.772H398.054ZM399.06 354.918V353.725L402.751 349.901C403.146 349.486 403.47 349.122 403.726 348.809C403.985 348.493 404.179 348.193 404.307 347.909C404.435 347.625 404.498 347.323 404.498 347.003C404.498 346.641 404.413 346.329 404.243 346.066C404.072 345.8 403.84 345.596 403.545 345.453C403.25 345.308 402.918 345.235 402.549 345.235C402.158 345.235 401.818 345.315 401.526 345.475C401.235 345.635 401.011 345.86 400.855 346.151C400.699 346.442 400.621 346.783 400.621 347.174H399.05C399.05 346.51 399.202 345.929 399.508 345.432C399.813 344.935 400.232 344.55 400.765 344.276C401.297 343.999 401.903 343.861 402.581 343.861C403.266 343.861 403.87 343.998 404.392 344.271C404.917 344.541 405.328 344.91 405.622 345.379C405.917 345.844 406.064 346.37 406.064 346.956C406.064 347.36 405.988 347.756 405.835 348.143C405.686 348.53 405.425 348.962 405.052 349.438C404.68 349.91 404.161 350.483 403.497 351.158L401.329 353.427V353.507H406.24V354.918H399.06ZM411.401 355.1C410.56 355.096 409.84 354.874 409.244 354.434C408.647 353.993 408.191 353.353 407.875 352.511C407.559 351.669 407.401 350.656 407.401 349.47C407.401 348.287 407.559 347.277 407.875 346.439C408.195 345.601 408.653 344.962 409.249 344.521C409.849 344.081 410.567 343.861 411.401 343.861C412.236 343.861 412.951 344.083 413.548 344.527C414.144 344.967 414.6 345.606 414.917 346.444C415.236 347.279 415.396 348.287 415.396 349.47C415.396 350.659 415.238 351.675 414.922 352.516C414.606 353.354 414.15 353.995 413.553 354.439C412.956 354.879 412.239 355.1 411.401 355.1ZM411.401 353.677C412.14 353.677 412.717 353.317 413.132 352.596C413.551 351.875 413.761 350.833 413.761 349.47C413.761 348.564 413.665 347.799 413.473 347.174C413.285 346.545 413.013 346.07 412.658 345.746C412.307 345.42 411.888 345.256 411.401 345.256C410.666 345.256 410.089 345.619 409.67 346.343C409.251 347.067 409.04 348.11 409.036 349.47C409.036 350.379 409.13 351.147 409.318 351.776C409.51 352.401 409.782 352.875 410.133 353.198C410.485 353.518 410.908 353.677 411.401 353.677Z" fill="#7A7A7A"/>
<path d="M464.573 354.918V353.725L468.264 349.901C468.658 349.486 468.983 349.122 469.239 348.809C469.498 348.493 469.691 348.193 469.819 347.909C469.947 347.625 470.011 347.323 470.011 347.003C470.011 346.641 469.926 346.329 469.755 346.066C469.585 345.8 469.352 345.596 469.058 345.453C468.763 345.308 468.431 345.235 468.062 345.235C467.671 345.235 467.33 345.315 467.039 345.475C466.748 345.635 466.524 345.86 466.368 346.151C466.211 346.442 466.133 346.783 466.133 347.174H464.562C464.562 346.51 464.715 345.929 465.02 345.432C465.326 344.935 465.745 344.55 466.277 344.276C466.81 343.999 467.415 343.861 468.093 343.861C468.779 343.861 469.382 343.998 469.904 344.271C470.43 344.541 470.84 344.91 471.135 345.379C471.43 345.844 471.577 346.37 471.577 346.956C471.577 347.36 471.501 347.756 471.348 348.143C471.199 348.53 470.938 348.962 470.565 349.438C470.192 349.91 469.674 350.483 469.01 351.158L466.842 353.427V353.507H471.753V354.918H464.573ZM476.914 355.1C476.072 355.096 475.353 354.874 474.756 354.434C474.16 353.993 473.704 353.353 473.388 352.511C473.072 351.669 472.913 350.656 472.913 349.47C472.913 348.287 473.072 347.277 473.388 346.439C473.707 345.601 474.165 344.962 474.762 344.521C475.362 344.081 476.079 343.861 476.914 343.861C477.748 343.861 478.464 344.083 479.06 344.527C479.657 344.967 480.113 345.606 480.429 346.444C480.749 347.279 480.908 348.287 480.908 349.47C480.908 350.659 480.75 351.675 480.434 352.516C480.118 353.354 479.662 353.995 479.065 354.439C478.469 354.879 477.752 355.1 476.914 355.1ZM476.914 353.677C477.652 353.677 478.229 353.317 478.645 352.596C479.064 351.875 479.273 350.833 479.273 349.47C479.273 348.564 479.177 347.799 478.986 347.174C478.797 346.545 478.526 346.07 478.171 345.746C477.819 345.42 477.4 345.256 476.914 345.256C476.179 345.256 475.602 345.619 475.183 346.343C474.764 347.067 474.552 348.11 474.549 349.47C474.549 350.379 474.643 351.147 474.831 351.776C475.023 352.401 475.294 352.875 475.646 353.198C475.997 353.518 476.42 353.677 476.914 353.677ZM482.142 354.918V353.725L485.834 349.901C486.228 349.486 486.553 349.122 486.808 348.809C487.068 348.493 487.261 348.193 487.389 347.909C487.517 347.625 487.581 347.323 487.581 347.003C487.581 346.641 487.495 346.329 487.325 346.066C487.155 345.8 486.922 345.596 486.627 345.453C486.333 345.308 486 345.235 485.631 345.235C485.241 345.235 484.9 345.315 484.609 345.475C484.317 345.635 484.094 345.86 483.937 346.151C483.781 346.442 483.703 346.783 483.703 347.174H482.132C482.132 346.51 482.284 345.929 482.59 345.432C482.895 344.935 483.314 344.55 483.847 344.276C484.379 343.999 484.985 343.861 485.663 343.861C486.348 343.861 486.952 343.998 487.474 344.271C488 344.541 488.41 344.91 488.705 345.379C488.999 345.844 489.147 346.37 489.147 346.956C489.147 347.36 489.07 347.756 488.918 348.143C488.768 348.53 488.507 348.962 488.135 349.438C487.762 349.91 487.243 350.483 486.579 351.158L484.411 353.427V353.507H489.322V354.918H482.142ZM494.483 355.1C493.642 355.096 492.923 354.874 492.326 354.434C491.73 353.993 491.273 353.353 490.957 352.511C490.641 351.669 490.483 350.656 490.483 349.47C490.483 348.287 490.641 347.277 490.957 346.439C491.277 345.601 491.735 344.962 492.331 344.521C492.932 344.081 493.649 343.861 494.483 343.861C495.318 343.861 496.033 344.083 496.63 344.527C497.226 344.967 497.683 345.606 497.999 346.444C498.318 347.279 498.478 348.287 498.478 349.47C498.478 350.659 498.32 351.675 498.004 352.516C497.688 353.354 497.232 353.995 496.635 354.439C496.039 354.879 495.321 355.1 494.483 355.1ZM494.483 353.677C495.222 353.677 495.799 353.317 496.214 352.596C496.633 351.875 496.843 350.833 496.843 349.47C496.843 348.564 496.747 347.799 496.555 347.174C496.367 346.545 496.095 346.07 495.74 345.746C495.389 345.42 494.97 345.256 494.483 345.256C493.748 345.256 493.171 345.619 492.752 346.343C492.333 347.067 492.122 348.11 492.118 349.47C492.118 350.379 492.212 351.147 492.401 351.776C492.592 352.401 492.864 352.875 493.216 353.198C493.567 353.518 493.99 353.677 494.483 353.677ZM504.554 348.772V350.157H499.717V348.772H504.554ZM505.56 354.918V353.725L509.251 349.901C509.645 349.486 509.97 349.122 510.226 348.809C510.485 348.493 510.679 348.193 510.807 347.909C510.934 347.625 510.998 347.323 510.998 347.003C510.998 346.641 510.913 346.329 510.743 346.066C510.572 345.8 510.34 345.596 510.045 345.453C509.75 345.308 509.418 345.235 509.049 345.235C508.658 345.235 508.317 345.315 508.026 345.475C507.735 345.635 507.511 345.86 507.355 346.151C507.199 346.442 507.121 346.783 507.121 347.174H505.549C505.549 346.51 505.702 345.929 506.008 345.432C506.313 344.935 506.732 344.55 507.265 344.276C507.797 343.999 508.403 343.861 509.081 343.861C509.766 343.861 510.37 343.998 510.892 344.271C511.417 344.541 511.827 344.91 512.122 345.379C512.417 345.844 512.564 346.37 512.564 346.956C512.564 347.36 512.488 347.756 512.335 348.143C512.186 348.53 511.925 348.962 511.552 349.438C511.179 349.91 510.661 350.483 509.997 351.158L507.829 353.427V353.507H512.74V354.918H505.56ZM518.242 344.01V354.918H516.591V345.661H516.527L513.917 347.366V345.789L516.639 344.01H518.242Z" fill="#7A7A7A"/>
<rect x="6.74995" y="3.74995" width="684.5" height="397.5" rx="20.2262" stroke="#F9F9F9" stroke-width="1.49991" shape-rendering="crispEdges"/>
</g>
<defs>
<filter id="filter0_d_184_219" x="0.00036335" y="0.000181675" width="697.999" height="410.999" filterUnits="userSpaceOnUse" color-interpolation-filters="sRGB">
<feFlood flood-opacity="0" result="BackgroundImageFix"/>
<feColorMatrix in="SourceAlpha" type="matrix" values="0 0 0 0 0 0 0 0 0 0 0 0 0 0 0 0 0 0 127 0" result="hardAlpha"/>
<feOffset dy="2.99982"/>
<feGaussianBlur stdDeviation="2.99982"/>
<feComposite in2="hardAlpha" operator="out"/>
<feColorMatrix type="matrix" values="0 0 0 0 0 0 0 0 0 0 0 0 0 0 0 0 0 0 0.04 0"/>
<feBlend mode="normal" in2="BackgroundImageFix" result="effect1_dropShadow_184_219"/>
<feBlend mode="normal" in="SourceGraphic" in2="effect1_dropShadow_184_219" result="shape"/>
</filter>
<linearGradient id="paint0_linear_184_219" x1="155.345" y1="324.752" x2="154.103" y2="324.754" gradientUnits="userSpaceOnUse">
<stop stop-color="#F1F8FF"/>
<stop offset="1" stop-color="#FEFDFF"/>
</linearGradient>
<linearGradient id="paint1_linear_184_219" x1="159.278" y1="324.752" x2="158.036" y2="324.754" gradientUnits="userSpaceOnUse">
<stop stop-color="#F1F8FF"/>
<stop offset="1" stop-color="#FEFDFF"/>
</linearGradient>
<linearGradient id="paint2_linear_184_219" x1="163.211" y1="324.752" x2="161.969" y2="324.754" gradientUnits="userSpaceOnUse">
<stop stop-color="#F1F8FF"/>
<stop offset="1" stop-color="#FEFDFF"/>
</linearGradient>
<linearGradient id="paint3_linear_184_219" x1="167.144" y1="324.752" x2="165.902" y2="324.754" gradientUnits="userSpaceOnUse">
<stop stop-color="#F1F8FF"/>
<stop offset="1" stop-color="#FEFDFF"/>
</linearGradient>
<linearGradient id="paint4_linear_184_219" x1="171.077" y1="324.752" x2="169.835" y2="324.754" gradientUnits="userSpaceOnUse">
<stop stop-color="#F1F8FF"/>
<stop offset="1" stop-color="#FEFDFF"/>
</linearGradient>
<linearGradient id="paint5_linear_184_219" x1="175.01" y1="324.752" x2="173.768" y2="324.754" gradientUnits="userSpaceOnUse">
<stop stop-color="#F1F8FF"/>
<stop offset="1" stop-color="#FEFDFF"/>
</linearGradient>
<linearGradient id="paint6_linear_184_219" x1="178.943" y1="324.752" x2="177.701" y2="324.754" gradientUnits="userSpaceOnUse">
<stop stop-color="#F1F8FF"/>
<stop offset="1" stop-color="#FEFDFF"/>
</linearGradient>
<linearGradient id="paint7_linear_184_219" x1="182.876" y1="324.752" x2="181.634" y2="324.754" gradientUnits="userSpaceOnUse">
<stop stop-color="#F1F8FF"/>
<stop offset="1" stop-color="#FEFDFF"/>
</linearGradient>
<linearGradient id="paint8_linear_184_219" x1="186.81" y1="324.752" x2="185.567" y2="324.754" gradientUnits="userSpaceOnUse">
<stop stop-color="#F1F8FF"/>
<stop offset="1" stop-color="#FEFDFF"/>
</linearGradient>
<linearGradient id="paint9_linear_184_219" x1="190.742" y1="324.752" x2="189.5" y2="324.754" gradientUnits="userSpaceOnUse">
<stop stop-color="#F1F8FF"/>
<stop offset="1" stop-color="#FEFDFF"/>
</linearGradient>
<linearGradient id="paint10_linear_184_219" x1="194.676" y1="324.752" x2="193.434" y2="324.754" gradientUnits="userSpaceOnUse">
<stop stop-color="#F1F8FF"/>
<stop offset="1" stop-color="#FEFDFF"/>
</linearGradient>
<linearGradient id="paint11_linear_184_219" x1="198.608" y1="324.752" x2="197.366" y2="324.754" gradientUnits="userSpaceOnUse">
<stop stop-color="#F1F8FF"/>
<stop offset="1" stop-color="#FEFDFF"/>
</linearGradient>
<linearGradient id="paint12_linear_184_219" x1="177.041" y1="194.985" x2="178.102" y2="298.962" gradientUnits="userSpaceOnUse">
<stop stop-color="#1E5E98" stop-opacity="0.38"/>
<stop offset="1" stop-color="#184D7D" stop-opacity="0.94"/>
</linearGradient>
<linearGradient id="paint13_linear_184_219" x1="260.338" y1="333.75" x2="259.096" y2="333.753" gradientUnits="userSpaceOnUse">
<stop stop-color="#F1F8FF"/>
<stop offset="1" stop-color="#FEFDFF"/>
</linearGradient>
<linearGradient id="paint14_linear_184_219" x1="264.271" y1="333.75" x2="263.029" y2="333.753" gradientUnits="userSpaceOnUse">
<stop stop-color="#F1F8FF"/>
<stop offset="1" stop-color="#FEFDFF"/>
</linearGradient>
<linearGradient id="paint15_linear_184_219" x1="268.204" y1="333.75" x2="266.962" y2="333.753" gradientUnits="userSpaceOnUse">
<stop stop-color="#F1F8FF"/>
<stop offset="1" stop-color="#FEFDFF"/>
</linearGradient>
<linearGradient id="paint16_linear_184_219" x1="272.138" y1="333.75" x2="270.896" y2="333.753" gradientUnits="userSpaceOnUse">
<stop stop-color="#F1F8FF"/>
<stop offset="1" stop-color="#FEFDFF"/>
</linearGradient>
<linearGradient id="paint17_linear_184_219" x1="276.07" y1="333.75" x2="274.828" y2="333.753" gradientUnits="userSpaceOnUse">
<stop stop-color="#F1F8FF"/>
<stop offset="1" stop-color="#FEFDFF"/>
</linearGradient>
<linearGradient id="paint18_linear_184_219" x1="280.003" y1="333.75" x2="278.761" y2="333.753" gradientUnits="userSpaceOnUse">
<stop stop-color="#F1F8FF"/>
<stop offset="1" stop-color="#FEFDFF"/>
</linearGradient>
<linearGradient id="paint19_linear_184_219" x1="283.936" y1="333.75" x2="282.694" y2="333.753" gradientUnits="userSpaceOnUse">
<stop stop-color="#F1F8FF"/>
<stop offset="1" stop-color="#FEFDFF"/>
</linearGradient>
<linearGradient id="paint20_linear_184_219" x1="287.869" y1="333.75" x2="286.627" y2="333.753" gradientUnits="userSpaceOnUse">
<stop stop-color="#F1F8FF"/>
<stop offset="1" stop-color="#FEFDFF"/>
</linearGradient>
<linearGradient id="paint21_linear_184_219" x1="291.803" y1="333.75" x2="290.561" y2="333.753" gradientUnits="userSpaceOnUse">
<stop stop-color="#F1F8FF"/>
<stop offset="1" stop-color="#FEFDFF"/>
</linearGradient>
<linearGradient id="paint22_linear_184_219" x1="295.735" y1="333.75" x2="294.493" y2="333.753" gradientUnits="userSpaceOnUse">
<stop stop-color="#F1F8FF"/>
<stop offset="1" stop-color="#FEFDFF"/>
</linearGradient>
<linearGradient id="paint23_linear_184_219" x1="299.669" y1="333.75" x2="298.427" y2="333.753" gradientUnits="userSpaceOnUse">
<stop stop-color="#F1F8FF"/>
<stop offset="1" stop-color="#FEFDFF"/>
</linearGradient>
<linearGradient id="paint24_linear_184_219" x1="303.602" y1="333.75" x2="302.359" y2="333.753" gradientUnits="userSpaceOnUse">
<stop stop-color="#F1F8FF"/>
<stop offset="1" stop-color="#FEFDFF"/>
</linearGradient>
<linearGradient id="paint25_linear_184_219" x1="282.034" y1="211.483" x2="282.857" y2="303.031" gradientUnits="userSpaceOnUse">
<stop stop-color="#1E5E98" stop-opacity="0.38"/>
<stop offset="1" stop-color="#184D7D" stop-opacity="0.94"/>
</linearGradient>
<linearGradient id="paint26_linear_184_219" x1="365.332" y1="361.247" x2="364.09" y2="361.249" gradientUnits="userSpaceOnUse">
<stop stop-color="#F1F8FF"/>
<stop offset="1" stop-color="#FEFDFF"/>
</linearGradient>
<linearGradient id="paint27_linear_184_219" x1="369.266" y1="361.247" x2="368.024" y2="361.249" gradientUnits="userSpaceOnUse">
<stop stop-color="#F1F8FF"/>
<stop offset="1" stop-color="#FEFDFF"/>
</linearGradient>
<linearGradient id="paint28_linear_184_219" x1="373.198" y1="361.247" x2="371.956" y2="361.249" gradientUnits="userSpaceOnUse">
<stop stop-color="#F1F8FF"/>
<stop offset="1" stop-color="#FEFDFF"/>
</linearGradient>
<linearGradient id="paint29_linear_184_219" x1="377.132" y1="361.247" x2="375.89" y2="361.249" gradientUnits="userSpaceOnUse">
<stop stop-color="#F1F8FF"/>
<stop offset="1" stop-color="#FEFDFF"/>
</linearGradient>
<linearGradient id="paint30_linear_184_219" x1="381.064" y1="361.247" x2="379.822" y2="361.249" gradientUnits="userSpaceOnUse">
<stop stop-color="#F1F8FF"/>
<stop offset="1" stop-color="#FEFDFF"/>
</linearGradient>
<linearGradient id="paint31_linear_184_219" x1="384.997" y1="361.247" x2="383.755" y2="361.249" gradientUnits="userSpaceOnUse">
<stop stop-color="#F1F8FF"/>
<stop offset="1" stop-color="#FEFDFF"/>
</linearGradient>
<linearGradient id="paint32_linear_184_219" x1="388.931" y1="361.247" x2="387.689" y2="361.249" gradientUnits="userSpaceOnUse">
<stop stop-color="#F1F8FF"/>
<stop offset="1" stop-color="#FEFDFF"/>
</linearGradient>
<linearGradient id="paint33_linear_184_219" x1="392.863" y1="361.247" x2="391.621" y2="361.249" gradientUnits="userSpaceOnUse">
<stop stop-color="#F1F8FF"/>
<stop offset="1" stop-color="#FEFDFF"/>
</linearGradient>
<linearGradient id="paint34_linear_184_219" x1="396.797" y1="361.247" x2="395.555" y2="361.249" gradientUnits="userSpaceOnUse">
<stop stop-color="#F1F8FF"/>
<stop offset="1" stop-color="#FEFDFF"/>
</linearGradient>
<linearGradient id="paint35_linear_184_219" x1="400.729" y1="361.247" x2="399.487" y2="361.249" gradientUnits="userSpaceOnUse">
<stop stop-color="#F1F8FF"/>
<stop offset="1" stop-color="#FEFDFF"/>
</linearGradient>
<linearGradient id="paint36_linear_184_219" x1="404.663" y1="361.247" x2="403.421" y2="361.249" gradientUnits="userSpaceOnUse">
<stop stop-color="#F1F8FF"/>
<stop offset="1" stop-color="#FEFDFF"/>
</linearGradient>
<linearGradient id="paint37_linear_184_219" x1="408.596" y1="361.247" x2="407.354" y2="361.249" gradientUnits="userSpaceOnUse">
<stop stop-color="#F1F8FF"/>
<stop offset="1" stop-color="#FEFDFF"/>
</linearGradient>
<linearGradient id="paint38_linear_184_219" x1="387.028" y1="268.48" x2="387.26" y2="317.083" gradientUnits="userSpaceOnUse">
<stop stop-color="#1E5E98" stop-opacity="0.38"/>
<stop offset="1" stop-color="#184D7D" stop-opacity="0.94"/>
</linearGradient>
<linearGradient id="paint39_linear_184_219" x1="470.326" y1="310.253" x2="469.084" y2="310.256" gradientUnits="userSpaceOnUse">
<stop stop-color="#F1F8FF"/>
<stop offset="1" stop-color="#FEFDFF"/>
</linearGradient>
<linearGradient id="paint40_linear_184_219" x1="474.26" y1="310.253" x2="473.018" y2="310.256" gradientUnits="userSpaceOnUse">
<stop stop-color="#F1F8FF"/>
<stop offset="1" stop-color="#FEFDFF"/>
</linearGradient>
<linearGradient id="paint41_linear_184_219" x1="478.192" y1="310.253" x2="476.95" y2="310.256" gradientUnits="userSpaceOnUse">
<stop stop-color="#F1F8FF"/>
<stop offset="1" stop-color="#FEFDFF"/>
</linearGradient>
<linearGradient id="paint42_linear_184_219" x1="482.126" y1="310.253" x2="480.884" y2="310.256" gradientUnits="userSpaceOnUse">
<stop stop-color="#F1F8FF"/>
<stop offset="1" stop-color="#FEFDFF"/>
</linearGradient>
<linearGradient id="paint43_linear_184_219" x1="486.059" y1="310.253" x2="484.816" y2="310.256" gradientUnits="userSpaceOnUse">
<stop stop-color="#F1F8FF"/>
<stop offset="1" stop-color="#FEFDFF"/>
</linearGradient>
<linearGradient id="paint44_linear_184_219" x1="489.991" y1="310.253" x2="488.749" y2="310.256" gradientUnits="userSpaceOnUse">
<stop stop-color="#F1F8FF"/>
<stop offset="1" stop-color="#FEFDFF"/>
</linearGradient>
<linearGradient id="paint45_linear_184_219" x1="493.925" y1="310.253" x2="492.683" y2="310.256" gradientUnits="userSpaceOnUse">
<stop stop-color="#F1F8FF"/>
<stop offset="1" stop-color="#FEFDFF"/>
</linearGradient>
<linearGradient id="paint46_linear_184_219" x1="497.857" y1="310.253" x2="496.615" y2="310.256" gradientUnits="userSpaceOnUse">
<stop stop-color="#F1F8FF"/>
<stop offset="1" stop-color="#FEFDFF"/>
</linearGradient>
<linearGradient id="paint47_linear_184_219" x1="501.791" y1="310.253" x2="500.549" y2="310.256" gradientUnits="userSpaceOnUse">
<stop stop-color="#F1F8FF"/>
<stop offset="1" stop-color="#FEFDFF"/>
</linearGradient>
<linearGradient id="paint48_linear_184_219" x1="505.724" y1="310.253" x2="504.482" y2="310.256" gradientUnits="userSpaceOnUse">
<stop stop-color="#F1F8FF"/>
<stop offset="1" stop-color="#FEFDFF"/>
</linearGradient>
<linearGradient id="paint49_linear_184_219" x1="509.657" y1="310.253" x2="508.415" y2="310.256" gradientUnits="userSpaceOnUse">
<stop stop-color="#F1F8FF"/>
<stop offset="1" stop-color="#FEFDFF"/>
</linearGradient>
<linearGradient id="paint50_linear_184_219" x1="513.59" y1="310.253" x2="512.348" y2="310.256" gradientUnits="userSpaceOnUse">
<stop stop-color="#F1F8FF"/>
<stop offset="1" stop-color="#FEFDFF"/>
</linearGradient>
<linearGradient id="paint51_linear_184_219" x1="492.022" y1="164.986" x2="493.596" y2="291.561" gradientUnits="userSpaceOnUse">
<stop stop-color="#1E5E98" stop-opacity="0.38"/>
<stop offset="1" stop-color="#184D7D" stop-opacity="0.94"/>
</linearGradient>
<clipPath id="clip0_184_219">
<rect width="448.473" height="191.988" fill="white" transform="translate(88.4951 140.988)"/>
</clipPath>
</defs>
</svg>
