<svg width="529" height="312" viewBox="0 0 529 312" fill="none" xmlns="http://www.w3.org/2000/svg">
<g filter="url(#filter0_d_209_5620)">
<rect x="4.69141" y="2.6416" width="519.475" height="302.143" rx="15.8842" fill="white" shape-rendering="crispEdges"/>
<path d="M33.1828 115.061V114.271L35.6259 111.74C35.8868 111.465 36.1019 111.224 36.2711 111.017C36.4427 110.808 36.5707 110.61 36.6554 110.422C36.74 110.234 36.7823 110.034 36.7823 109.822C36.7823 109.582 36.7259 109.376 36.6131 109.202C36.5002 109.025 36.3463 108.89 36.1512 108.796C35.9561 108.7 35.7364 108.652 35.492 108.652C35.2334 108.652 35.0078 108.705 34.8151 108.81C34.6224 108.916 34.4743 109.065 34.3709 109.258C34.2675 109.451 34.2157 109.677 34.2157 109.935H33.1757C33.1757 109.496 33.2768 109.111 33.4789 108.782C33.6811 108.453 33.9584 108.198 34.3109 108.017C34.6635 107.834 35.0642 107.742 35.5131 107.742C35.9667 107.742 36.3663 107.833 36.7118 108.014C37.0596 108.192 37.3311 108.437 37.5261 108.747C37.7212 109.055 37.8188 109.403 37.8188 109.79C37.8188 110.058 37.7682 110.32 37.6672 110.577C37.5684 110.833 37.3957 111.118 37.1489 111.433C36.9021 111.746 36.559 112.126 36.1195 112.572L34.6846 114.074V114.127H37.9351V115.061H33.1828ZM41.1581 115.16C40.7162 115.16 40.319 115.075 39.9665 114.906C39.6163 114.734 39.3366 114.499 39.1274 114.201C38.9182 113.902 38.8066 113.562 38.7925 113.178H39.8501C39.876 113.489 40.0135 113.744 40.2626 113.943C40.5117 114.143 40.8102 114.243 41.1581 114.243C41.4354 114.243 41.681 114.18 41.8949 114.053C42.1111 113.923 42.2803 113.746 42.4025 113.52C42.5271 113.295 42.5894 113.037 42.5894 112.748C42.5894 112.455 42.5259 112.192 42.399 111.962C42.2721 111.732 42.097 111.551 41.8737 111.419C41.6528 111.288 41.399 111.221 41.1122 111.218C40.8936 111.218 40.6739 111.256 40.453 111.331C40.232 111.406 40.0534 111.505 39.9171 111.627L38.9194 111.479L39.3248 107.841H43.2945V108.775H40.2309L40.0017 110.795H40.044C40.185 110.659 40.3719 110.545 40.6046 110.453C40.8396 110.362 41.0911 110.316 41.359 110.316C41.7985 110.316 42.1898 110.42 42.533 110.63C42.8785 110.839 43.1499 111.124 43.3474 111.486C43.5471 111.846 43.6458 112.259 43.6435 112.727C43.6458 113.195 43.5401 113.612 43.3262 113.979C43.1147 114.345 42.8209 114.634 42.4448 114.846C42.0711 115.055 41.6422 115.16 41.1581 115.16ZM46.9484 115.181C46.3914 115.179 45.9155 115.032 45.5206 114.74C45.1258 114.449 44.8238 114.025 44.6146 113.468C44.4054 112.911 44.3008 112.24 44.3008 111.455C44.3008 110.672 44.4054 110.003 44.6146 109.449C44.8261 108.894 45.1293 108.471 45.5241 108.179C45.9213 107.888 46.3961 107.742 46.9484 107.742C47.5007 107.742 47.9743 107.889 48.3692 108.183C48.764 108.474 49.066 108.897 49.2752 109.452C49.4867 110.004 49.5925 110.672 49.5925 111.455C49.5925 112.242 49.4879 112.914 49.2787 113.471C49.0696 114.026 48.7675 114.45 48.3727 114.744C47.9779 115.035 47.5031 115.181 46.9484 115.181ZM46.9484 114.24C47.4373 114.24 47.8192 114.001 48.0942 113.524C48.3715 113.047 48.5102 112.357 48.5102 111.455C48.5102 110.855 48.4467 110.349 48.3198 109.935C48.1953 109.519 48.0155 109.204 47.7804 108.99C47.5477 108.774 47.2704 108.666 46.9484 108.666C46.4619 108.666 46.08 108.906 45.8027 109.385C45.5253 109.865 45.3855 110.554 45.3831 111.455C45.3831 112.056 45.4454 112.565 45.57 112.981C45.6969 113.395 45.8767 113.708 46.1094 113.922C46.342 114.134 46.6217 114.24 46.9484 114.24ZM52.8604 115.181C52.3034 115.179 51.8275 115.032 51.4326 114.74C51.0378 114.449 50.7357 114.025 50.5266 113.468C50.3174 112.911 50.2128 112.24 50.2128 111.455C50.2128 110.672 50.3174 110.003 50.5266 109.449C50.7381 108.894 51.0413 108.471 51.4361 108.179C51.8333 107.888 52.3081 107.742 52.8604 107.742C53.4127 107.742 53.8863 107.889 54.2812 108.183C54.676 108.474 54.978 108.897 55.1872 109.452C55.3987 110.004 55.5045 110.672 55.5045 111.455C55.5045 112.242 55.3999 112.914 55.1907 113.471C54.9816 114.026 54.6795 114.45 54.2847 114.744C53.8898 115.035 53.4151 115.181 52.8604 115.181ZM52.8604 114.24C53.3493 114.24 53.7312 114.001 54.0062 113.524C54.2835 113.047 54.4222 112.357 54.4222 111.455C54.4222 110.855 54.3587 110.349 54.2318 109.935C54.1072 109.519 53.9274 109.204 53.6924 108.99C53.4597 108.774 53.1824 108.666 52.8604 108.666C52.3739 108.666 51.992 108.906 51.7146 109.385C51.4373 109.865 51.2975 110.554 51.2951 111.455C51.2951 112.056 51.3574 112.565 51.482 112.981C51.6089 113.395 51.7887 113.708 52.0214 113.922C52.254 114.134 52.5337 114.24 52.8604 114.24Z" fill="#464646"/>
<path d="M33.1828 142.701V141.911L35.6259 139.38C35.8868 139.105 36.1019 138.864 36.2711 138.657C36.4427 138.448 36.5707 138.249 36.6554 138.061C36.74 137.873 36.7823 137.673 36.7823 137.462C36.7823 137.222 36.7259 137.015 36.6131 136.841C36.5002 136.665 36.3463 136.53 36.1512 136.436C35.9561 136.34 35.7364 136.291 35.492 136.291C35.2334 136.291 35.0078 136.344 34.8151 136.45C34.6224 136.556 34.4743 136.705 34.3709 136.898C34.2675 137.091 34.2157 137.316 34.2157 137.575H33.1757C33.1757 137.135 33.2768 136.751 33.4789 136.422C33.6811 136.093 33.9584 135.838 34.3109 135.657C34.6635 135.474 35.0642 135.382 35.5131 135.382C35.9667 135.382 36.3663 135.472 36.7118 135.653C37.0596 135.832 37.3311 136.076 37.5261 136.387C37.7212 136.695 37.8188 137.042 37.8188 137.43C37.8188 137.698 37.7682 137.96 37.6672 138.216C37.5684 138.473 37.3957 138.758 37.1489 139.073C36.9021 139.386 36.559 139.765 36.1195 140.212L34.6846 141.714V141.766H37.9351V142.701H33.1828ZM41.2885 142.821C40.7315 142.818 40.2555 142.671 39.8607 142.38C39.4658 142.088 39.1638 141.664 38.9547 141.107C38.7455 140.55 38.6409 139.879 38.6409 139.094C38.6409 138.312 38.7455 137.643 38.9547 137.088C39.1662 136.534 39.4694 136.11 39.8642 135.819C40.2614 135.528 40.7362 135.382 41.2885 135.382C41.8408 135.382 42.3144 135.529 42.7092 135.823C43.1041 136.114 43.4061 136.537 43.6153 137.092C43.8268 137.644 43.9326 138.312 43.9326 139.094C43.9326 139.882 43.828 140.554 43.6188 141.111C43.4096 141.665 43.1076 142.09 42.7128 142.383C42.3179 142.675 41.8432 142.821 41.2885 142.821ZM41.2885 141.879C41.7774 141.879 42.1593 141.641 42.4343 141.164C42.7116 140.686 42.8503 139.997 42.8503 139.094C42.8503 138.495 42.7868 137.988 42.6599 137.575C42.5353 137.159 42.3555 136.844 42.1205 136.63C41.8878 136.414 41.6105 136.306 41.2885 136.306C40.802 136.306 40.4201 136.545 40.1427 137.025C39.8654 137.504 39.7255 138.194 39.7232 139.094C39.7232 139.696 39.7855 140.205 39.91 140.621C40.037 141.034 40.2168 141.348 40.4494 141.562C40.6821 141.773 40.9618 141.879 41.2885 141.879ZM47.2005 142.821C46.6435 142.818 46.1675 142.671 45.7727 142.38C45.3778 142.088 45.0758 141.664 44.8666 141.107C44.6575 140.55 44.5529 139.879 44.5529 139.094C44.5529 138.312 44.6575 137.643 44.8666 137.088C45.0782 136.534 45.3814 136.11 45.7762 135.819C46.1734 135.528 46.6482 135.382 47.2005 135.382C47.7528 135.382 48.2264 135.529 48.6212 135.823C49.0161 136.114 49.3181 136.537 49.5273 137.092C49.7388 137.644 49.8446 138.312 49.8446 139.094C49.8446 139.882 49.74 140.554 49.5308 141.111C49.3216 141.665 49.0196 142.09 48.6248 142.383C48.2299 142.675 47.7552 142.821 47.2005 142.821ZM47.2005 141.879C47.6894 141.879 48.0713 141.641 48.3463 141.164C48.6236 140.686 48.7623 139.997 48.7623 139.094C48.7623 138.495 48.6988 137.988 48.5719 137.575C48.4473 137.159 48.2675 136.844 48.0325 136.63C47.7998 136.414 47.5225 136.306 47.2005 136.306C46.714 136.306 46.3321 136.545 46.0547 137.025C45.7774 137.504 45.6375 138.194 45.6352 139.094C45.6352 139.696 45.6975 140.205 45.822 140.621C45.949 141.034 46.1288 141.348 46.3614 141.562C46.5941 141.773 46.8738 141.879 47.2005 141.879ZM53.1125 142.821C52.5555 142.818 52.0795 142.671 51.6847 142.38C51.2898 142.088 50.9878 141.664 50.7786 141.107C50.5695 140.55 50.4649 139.879 50.4649 139.094C50.4649 138.312 50.5695 137.643 50.7786 137.088C50.9902 136.534 51.2934 136.11 51.6882 135.819C52.0854 135.528 52.5602 135.382 53.1125 135.382C53.6648 135.382 54.1384 135.529 54.5332 135.823C54.9281 136.114 55.2301 136.537 55.4393 137.092C55.6508 137.644 55.7566 138.312 55.7566 139.094C55.7566 139.882 55.652 140.554 55.4428 141.111C55.2336 141.665 54.9316 142.09 54.5368 142.383C54.1419 142.675 53.6672 142.821 53.1125 142.821ZM53.1125 141.879C53.6013 141.879 53.9833 141.641 54.2583 141.164C54.5356 140.686 54.6743 139.997 54.6743 139.094C54.6743 138.495 54.6108 137.988 54.4839 137.575C54.3593 137.159 54.1795 136.844 53.9445 136.63C53.7118 136.414 53.4345 136.306 53.1125 136.306C52.626 136.306 52.244 136.545 51.9667 137.025C51.6894 137.504 51.5495 138.194 51.5472 139.094C51.5472 139.696 51.6095 140.205 51.734 140.621C51.861 141.034 52.0407 141.348 52.2734 141.562C52.5061 141.773 52.7858 141.879 53.1125 141.879Z" fill="#464646"/>
<path d="M36.9221 163.12V170.34H35.8292V164.213H35.7869L34.0594 165.341V164.298L35.8609 163.12H36.9221ZM40.762 170.439C40.3201 170.439 39.9229 170.354 39.5704 170.185C39.2202 170.014 38.9405 169.779 38.7313 169.48C38.5221 169.182 38.4105 168.841 38.3964 168.458H39.454C39.4799 168.768 39.6174 169.023 39.8665 169.223C40.1156 169.423 40.4141 169.522 40.762 169.522C41.0393 169.522 41.2849 169.459 41.4988 169.332C41.715 169.203 41.8842 169.025 42.0065 168.8C42.131 168.574 42.1933 168.317 42.1933 168.028C42.1933 167.734 42.1299 167.472 42.0029 167.241C41.876 167.011 41.7009 166.83 41.4776 166.699C41.2567 166.567 41.0029 166.5 40.7161 166.498C40.4976 166.498 40.2778 166.535 40.0569 166.61C39.836 166.686 39.6573 166.784 39.521 166.907L38.5233 166.758L38.9287 163.12H42.8984V164.054H39.8348L39.6056 166.075H39.6479C39.789 165.938 39.9758 165.824 40.2085 165.733C40.4435 165.641 40.695 165.595 40.9629 165.595C41.4024 165.595 41.7938 165.7 42.1369 165.909C42.4824 166.118 42.7539 166.404 42.9513 166.766C43.1511 167.125 43.2498 167.539 43.2474 168.006C43.2498 168.474 43.144 168.891 42.9301 169.258C42.7186 169.625 42.4248 169.914 42.0488 170.125C41.6751 170.334 41.2461 170.439 40.762 170.439ZM46.5523 170.46C45.9953 170.458 45.5194 170.311 45.1245 170.02C44.7297 169.728 44.4277 169.304 44.2185 168.747C44.0093 168.19 43.9047 167.519 43.9047 166.734C43.9047 165.951 44.0093 165.282 44.2185 164.728C44.43 164.173 44.7332 163.75 45.1281 163.459C45.5253 163.167 46 163.022 46.5523 163.022C47.1047 163.022 47.5782 163.168 47.9731 163.462C48.3679 163.754 48.67 164.177 48.8791 164.731C49.0907 165.284 49.1964 165.951 49.1964 166.734C49.1964 167.521 49.0918 168.193 48.8827 168.75C48.6735 169.305 48.3715 169.729 47.9766 170.023C47.5818 170.314 47.107 170.46 46.5523 170.46ZM46.5523 169.519C47.0412 169.519 47.4231 169.28 47.6981 168.803C47.9754 168.326 48.1141 167.636 48.1141 166.734C48.1141 166.134 48.0507 165.628 47.9237 165.214C47.7992 164.798 47.6194 164.483 47.3843 164.27C47.1517 164.053 46.8743 163.945 46.5523 163.945C46.0658 163.945 45.6839 164.185 45.4066 164.664C45.1292 165.144 44.9894 165.834 44.987 166.734C44.987 167.335 45.0493 167.844 45.1739 168.26C45.3008 168.674 45.4806 168.988 45.7133 169.202C45.946 169.413 46.2257 169.519 46.5523 169.519ZM52.4643 170.46C51.9073 170.458 51.4314 170.311 51.0365 170.02C50.6417 169.728 50.3397 169.304 50.1305 168.747C49.9213 168.19 49.8167 167.519 49.8167 166.734C49.8167 165.951 49.9213 165.282 50.1305 164.728C50.342 164.173 50.6452 163.75 51.0401 163.459C51.4373 163.167 51.912 163.022 52.4643 163.022C53.0167 163.022 53.4902 163.168 53.8851 163.462C54.2799 163.754 54.582 164.177 54.7911 164.731C55.0027 165.284 55.1084 165.951 55.1084 166.734C55.1084 167.521 55.0038 168.193 54.7947 168.75C54.5855 169.305 54.2835 169.729 53.8886 170.023C53.4938 170.314 53.019 170.46 52.4643 170.46ZM52.4643 169.519C52.9532 169.519 53.3351 169.28 53.6101 168.803C53.8874 168.326 54.0261 167.636 54.0261 166.734C54.0261 166.134 53.9627 165.628 53.8357 165.214C53.7112 164.798 53.5314 164.483 53.2963 164.27C53.0637 164.053 52.7863 163.945 52.4643 163.945C51.9778 163.945 51.5959 164.185 51.3186 164.664C51.0412 165.144 50.9014 165.834 50.899 166.734C50.899 167.335 50.9613 167.844 51.0859 168.26C51.2128 168.674 51.3926 168.988 51.6253 169.202C51.858 169.413 52.1376 169.519 52.4643 169.519Z" fill="#464646"/>
<path d="M36.9221 190.76V197.98H35.8292V191.853H35.7869L34.0594 192.981V191.937L35.8609 190.76H36.9221ZM40.8924 198.1C40.3354 198.097 39.8595 197.951 39.4646 197.659C39.0698 197.368 38.7678 196.943 38.5586 196.386C38.3494 195.829 38.2448 195.158 38.2448 194.373C38.2448 193.591 38.3494 192.922 38.5586 192.367C38.7701 191.813 39.0733 191.39 39.4681 191.098C39.8653 190.807 40.3401 190.661 40.8924 190.661C41.4447 190.661 41.9183 190.808 42.3132 191.102C42.708 191.393 43.01 191.816 43.2192 192.371C43.4307 192.923 43.5365 193.591 43.5365 194.373C43.5365 195.161 43.4319 195.833 43.2227 196.39C43.0136 196.945 42.7115 197.369 42.3167 197.663C41.9218 197.954 41.4471 198.1 40.8924 198.1ZM40.8924 197.159C41.3813 197.159 41.7632 196.92 42.0382 196.443C42.3155 195.966 42.4542 195.276 42.4542 194.373C42.4542 193.774 42.3907 193.268 42.2638 192.854C42.1393 192.438 41.9595 192.123 41.7244 191.909C41.4917 191.693 41.2144 191.585 40.8924 191.585C40.4059 191.585 40.024 191.825 39.7467 192.304C39.4693 192.783 39.3295 193.473 39.3271 194.373C39.3271 194.975 39.3894 195.484 39.514 195.9C39.6409 196.314 39.8207 196.627 40.0534 196.841C40.286 197.053 40.5657 197.159 40.8924 197.159ZM46.8044 198.1C46.2474 198.097 45.7715 197.951 45.3766 197.659C44.9818 197.368 44.6797 196.943 44.4706 196.386C44.2614 195.829 44.1568 195.158 44.1568 194.373C44.1568 193.591 44.2614 192.922 44.4706 192.367C44.6821 191.813 44.9853 191.39 45.3801 191.098C45.7773 190.807 46.2521 190.661 46.8044 190.661C47.3567 190.661 47.8303 190.808 48.2252 191.102C48.62 191.393 48.922 191.816 49.1312 192.371C49.3427 192.923 49.4485 193.591 49.4485 194.373C49.4485 195.161 49.3439 195.833 49.1347 196.39C48.9256 196.945 48.6235 197.369 48.2287 197.663C47.8338 197.954 47.3591 198.1 46.8044 198.1ZM46.8044 197.159C47.2933 197.159 47.6752 196.92 47.9502 196.443C48.2275 195.966 48.3662 195.276 48.3662 194.373C48.3662 193.774 48.3027 193.268 48.1758 192.854C48.0512 192.438 47.8714 192.123 47.6364 191.909C47.4037 191.693 47.1264 191.585 46.8044 191.585C46.3179 191.585 45.936 191.825 45.6586 192.304C45.3813 192.783 45.2415 193.473 45.2391 194.373C45.2391 194.975 45.3014 195.484 45.426 195.9C45.5529 196.314 45.7327 196.627 45.9654 196.841C46.198 197.053 46.4777 197.159 46.8044 197.159ZM52.7164 198.1C52.1594 198.097 51.6835 197.951 51.2886 197.659C50.8938 197.368 50.5917 196.943 50.3826 196.386C50.1734 195.829 50.0688 195.158 50.0688 194.373C50.0688 193.591 50.1734 192.922 50.3826 192.367C50.5941 191.813 50.8973 191.39 51.2921 191.098C51.6893 190.807 52.1641 190.661 52.7164 190.661C53.2687 190.661 53.7423 190.808 54.1372 191.102C54.532 191.393 54.834 191.816 55.0432 192.371C55.2547 192.923 55.3605 193.591 55.3605 194.373C55.3605 195.161 55.2559 195.833 55.0467 196.39C54.8376 196.945 54.5355 197.369 54.1407 197.663C53.7458 197.954 53.2711 198.1 52.7164 198.1ZM52.7164 197.159C53.2053 197.159 53.5872 196.92 53.8622 196.443C54.1395 195.966 54.2782 195.276 54.2782 194.373C54.2782 193.774 54.2147 193.268 54.0878 192.854C53.9632 192.438 53.7834 192.123 53.5484 191.909C53.3157 191.693 53.0384 191.585 52.7164 191.585C52.2299 191.585 51.848 191.825 51.5706 192.304C51.2933 192.783 51.1535 193.473 51.1511 194.373C51.1511 194.975 51.2134 195.484 51.338 195.9C51.4649 196.314 51.6447 196.627 51.8774 196.841C52.11 197.053 52.3897 197.159 52.7164 197.159Z" fill="#464646"/>
<path d="M41.566 225.718C41.1241 225.718 40.7269 225.634 40.3744 225.465C40.0242 225.293 39.7445 225.058 39.5353 224.759C39.3262 224.461 39.2145 224.12 39.2004 223.737H40.2581C40.2839 224.047 40.4214 224.302 40.6705 224.502C40.9197 224.702 41.2182 224.802 41.566 224.802C41.8433 224.802 42.0889 224.738 42.3028 224.611C42.519 224.482 42.6883 224.305 42.8105 224.079C42.935 223.853 42.9973 223.596 42.9973 223.307C42.9973 223.013 42.9339 222.751 42.807 222.521C42.68 222.29 42.5049 222.109 42.2817 221.978C42.0607 221.846 41.8069 221.779 41.5202 221.777C41.3016 221.777 41.0818 221.814 40.8609 221.89C40.64 221.965 40.4614 222.064 40.325 222.186L39.3273 222.038L39.7328 218.4H43.7024V219.334H40.6388L40.4096 221.354H40.452C40.593 221.218 40.7798 221.104 41.0125 221.012C41.2475 220.92 41.499 220.874 41.7669 220.874C42.2064 220.874 42.5978 220.979 42.9409 221.188C43.2864 221.397 43.5579 221.683 43.7553 222.045C43.9551 222.404 44.0538 222.818 44.0514 223.286C44.0538 223.753 43.948 224.171 43.7341 224.537C43.5226 224.904 43.2288 225.193 42.8528 225.405C42.4791 225.614 42.0502 225.718 41.566 225.718ZM47.3564 225.739C46.7993 225.737 46.3234 225.59 45.9286 225.299C45.5337 225.007 45.2317 224.583 45.0225 224.026C44.8133 223.469 44.7088 222.798 44.7088 222.013C44.7088 221.23 44.8133 220.562 45.0225 220.007C45.234 219.452 45.5372 219.029 45.9321 218.738C46.3293 218.447 46.804 218.301 47.3564 218.301C47.9087 218.301 48.3823 218.448 48.7771 218.741C49.172 219.033 49.474 219.456 49.6832 220.011C49.8947 220.563 50.0004 221.23 50.0004 222.013C50.0004 222.8 49.8959 223.473 49.6867 224.03C49.4775 224.584 49.1755 225.009 48.7806 225.302C48.3858 225.594 47.911 225.739 47.3564 225.739ZM47.3564 224.798C47.8452 224.798 48.2271 224.56 48.5021 224.083C48.7795 223.605 48.9181 222.916 48.9181 222.013C48.9181 221.414 48.8547 220.907 48.7278 220.494C48.6032 220.078 48.4234 219.763 48.1884 219.549C47.9557 219.333 47.6784 219.224 47.3564 219.224C46.8698 219.224 46.4879 219.464 46.2106 219.944C45.9333 220.423 45.7934 221.113 45.7911 222.013C45.7911 222.615 45.8533 223.124 45.9779 223.54C46.1048 223.953 46.2846 224.267 46.5173 224.481C46.75 224.692 47.0297 224.798 47.3564 224.798ZM53.2684 225.739C52.7113 225.737 52.2354 225.59 51.8405 225.299C51.4457 225.007 51.1437 224.583 50.9345 224.026C50.7253 223.469 50.6207 222.798 50.6207 222.013C50.6207 221.23 50.7253 220.562 50.9345 220.007C51.146 219.452 51.4492 219.029 51.8441 218.738C52.2413 218.447 52.716 218.301 53.2684 218.301C53.8207 218.301 54.2943 218.448 54.6891 218.741C55.084 219.033 55.386 219.456 55.5951 220.011C55.8067 220.563 55.9124 221.23 55.9124 222.013C55.9124 222.8 55.8078 223.473 55.5987 224.03C55.3895 224.584 55.0875 225.009 54.6926 225.302C54.2978 225.594 53.823 225.739 53.2684 225.739ZM53.2684 224.798C53.7572 224.798 54.1391 224.56 54.4141 224.083C54.6915 223.605 54.8301 222.916 54.8301 222.013C54.8301 221.414 54.7667 220.907 54.6398 220.494C54.5152 220.078 54.3354 219.763 54.1004 219.549C53.8677 219.333 53.5903 219.224 53.2684 219.224C52.7818 219.224 52.3999 219.464 52.1226 219.944C51.8452 220.423 51.7054 221.113 51.7031 222.013C51.7031 222.615 51.7653 223.124 51.8899 223.54C52.0168 223.953 52.1966 224.267 52.4293 224.481C52.662 224.692 52.9417 224.798 53.2684 224.798Z" fill="#464646"/>
<path d="M52.6964 253.379C52.1394 253.377 51.6635 253.23 51.2686 252.938C50.8738 252.647 50.5718 252.223 50.3626 251.666C50.1534 251.109 50.0488 250.438 50.0488 249.653C50.0488 248.87 50.1534 248.201 50.3626 247.647C50.5741 247.092 50.8773 246.669 51.2722 246.378C51.6694 246.086 52.1441 245.94 52.6964 245.94C53.2488 245.94 53.7223 246.087 54.1172 246.381C54.512 246.673 54.8141 247.096 55.0232 247.65C55.2348 248.203 55.3405 248.87 55.3405 249.653C55.3405 250.44 55.2359 251.112 55.0268 251.669C54.8176 252.224 54.5156 252.648 54.1207 252.942C53.7259 253.233 53.2511 253.379 52.6964 253.379ZM52.6964 252.438C53.1853 252.438 53.5672 252.199 53.8422 251.722C54.1195 251.245 54.2582 250.555 54.2582 249.653C54.2582 249.053 54.1947 248.547 54.0678 248.133C53.9433 247.717 53.7635 247.402 53.5284 247.188C53.2958 246.972 53.0184 246.864 52.6964 246.864C52.2099 246.864 51.828 247.104 51.5507 247.583C51.2733 248.063 51.1335 248.753 51.1311 249.653C51.1311 250.254 51.1934 250.763 51.318 251.179C51.4449 251.593 51.6247 251.907 51.8574 252.121C52.0901 252.332 52.3697 252.438 52.6964 252.438Z" fill="#464646"/>
<g clip-path="url(#clip0_209_5620)">
<line opacity="0.4" x1="67.4444" y1="107.841" x2="487.809" y2="106.849" stroke="#CCCCCC" stroke-width="0.567904" stroke-linecap="round" stroke-dasharray="9.93 7.94"/>
<line opacity="0.4" x1="67.4444" y1="136.719" x2="487.809" y2="135.727" stroke="#CCCCCC" stroke-width="0.567904" stroke-linecap="round" stroke-dasharray="9.93 7.94"/>
<line opacity="0.4" x1="67.4444" y1="165.597" x2="487.809" y2="164.606" stroke="#CCCCCC" stroke-width="0.567904" stroke-linecap="round" stroke-dasharray="9.93 7.94"/>
<line opacity="0.4" x1="67.4444" y1="194.476" x2="487.809" y2="193.484" stroke="#CCCCCC" stroke-width="0.567904" stroke-linecap="round" stroke-dasharray="9.93 7.94"/>
<line opacity="0.4" x1="67.4444" y1="223.354" x2="487.809" y2="222.362" stroke="#CCCCCC" stroke-width="0.567904" stroke-linecap="round" stroke-dasharray="9.93 7.94"/>
<line opacity="0.4" x1="67.4444" y1="252.231" x2="487.809" y2="251.24" stroke="#CCCCCC" stroke-width="0.567904" stroke-linecap="round" stroke-dasharray="9.93 7.94"/>
</g>
<rect x="116.607" y="144.615" width="35.2101" height="107.902" rx="5.95659" fill="#EAF5FF"/>
<mask id="mask0_209_5620" style="mask-type:alpha" maskUnits="userSpaceOnUse" x="116" y="144" width="36" height="109">
<rect x="116.607" y="144.615" width="35.2101" height="107.902" rx="3.97106" fill="#D9D9D9"/>
</mask>
<g mask="url(#mask0_209_5620)">
<path d="M117.967 13.9609L117.967 381.284" stroke="url(#paint0_linear_209_5620)" stroke-width="1.48915"/>
<path d="M120.944 13.9609L120.944 381.284" stroke="url(#paint1_linear_209_5620)" stroke-width="1.48915"/>
<path d="M123.923 13.9609L123.923 381.284" stroke="url(#paint2_linear_209_5620)" stroke-width="1.48915"/>
<path d="M126.902 13.9609L126.902 381.284" stroke="url(#paint3_linear_209_5620)" stroke-width="1.48915"/>
<path d="M129.88 13.9609L129.88 381.284" stroke="url(#paint4_linear_209_5620)" stroke-width="1.48915"/>
<path d="M132.859 13.9609L132.859 381.284" stroke="url(#paint5_linear_209_5620)" stroke-width="1.48915"/>
<path d="M135.836 13.9609L135.836 381.284" stroke="url(#paint6_linear_209_5620)" stroke-width="1.48915"/>
<path d="M138.815 13.9609L138.815 381.284" stroke="url(#paint7_linear_209_5620)" stroke-width="1.48915"/>
<path d="M141.793 13.9609L141.793 381.284" stroke="url(#paint8_linear_209_5620)" stroke-width="1.48915"/>
<path d="M144.772 13.9609L144.772 381.284" stroke="url(#paint9_linear_209_5620)" stroke-width="1.48915"/>
<path d="M147.749 13.9609L147.749 381.284" stroke="url(#paint10_linear_209_5620)" stroke-width="1.48915"/>
<path d="M150.728 13.9609L150.728 381.284" stroke="url(#paint11_linear_209_5620)" stroke-width="1.48915"/>
</g>
<rect x="116.607" y="148.022" width="35.2101" height="104.494" rx="3.97106" fill="url(#paint12_linear_209_5620)"/>
<path d="M127.424 131.141V138.361H126.331V132.234H126.289L124.561 133.362V132.319L126.363 131.141H127.424ZM131.282 131.043C131.604 131.045 131.921 131.104 132.233 131.219C132.546 131.334 132.828 131.522 133.08 131.783C133.333 132.044 133.535 132.396 133.686 132.84C133.839 133.282 133.916 133.832 133.919 134.49C133.919 135.123 133.855 135.686 133.728 136.179C133.601 136.67 133.419 137.085 133.182 137.424C132.947 137.762 132.661 138.019 132.325 138.196C131.989 138.372 131.611 138.46 131.19 138.46C130.76 138.46 130.378 138.375 130.044 138.206C129.71 138.037 129.439 137.803 129.23 137.505C129.021 137.204 128.89 136.858 128.838 136.468H129.914C129.984 136.778 130.128 137.03 130.344 137.223C130.562 137.413 130.844 137.508 131.19 137.508C131.719 137.508 132.131 137.278 132.427 136.817C132.723 136.354 132.873 135.708 132.875 134.878H132.819C132.696 135.08 132.544 135.254 132.36 135.4C132.179 135.546 131.976 135.658 131.75 135.738C131.525 135.818 131.284 135.858 131.028 135.858C130.612 135.858 130.233 135.756 129.893 135.552C129.552 135.347 129.28 135.066 129.078 134.709C128.876 134.352 128.775 133.944 128.775 133.486C128.775 133.03 128.878 132.616 129.085 132.245C129.294 131.873 129.586 131.58 129.96 131.363C130.336 131.145 130.776 131.038 131.282 131.043ZM131.285 131.959C131.01 131.959 130.762 132.027 130.541 132.164C130.323 132.298 130.15 132.48 130.023 132.71C129.896 132.938 129.833 133.192 129.833 133.472C129.833 133.751 129.894 134.005 130.016 134.233C130.14 134.459 130.31 134.638 130.524 134.772C130.74 134.904 130.987 134.97 131.264 134.97C131.471 134.97 131.663 134.93 131.842 134.85C132.021 134.77 132.177 134.66 132.311 134.519C132.445 134.375 132.55 134.213 132.625 134.032C132.7 133.851 132.738 133.661 132.738 133.461C132.738 133.195 132.674 132.949 132.547 132.721C132.423 132.493 132.251 132.309 132.032 132.171C131.814 132.03 131.565 131.959 131.285 131.959ZM137.079 138.46C136.637 138.46 136.24 138.375 135.887 138.206C135.537 138.035 135.257 137.8 135.048 137.501C134.839 137.203 134.728 136.862 134.713 136.479H135.771C135.797 136.789 135.934 137.044 136.184 137.244C136.433 137.444 136.731 137.543 137.079 137.543C137.356 137.543 137.602 137.48 137.816 137.353C138.032 137.224 138.201 137.046 138.323 136.821C138.448 136.595 138.51 136.338 138.51 136.049C138.51 135.755 138.447 135.493 138.32 135.262C138.193 135.032 138.018 134.851 137.795 134.72C137.574 134.588 137.32 134.521 137.033 134.519C136.815 134.519 136.595 134.556 136.374 134.631C136.153 134.707 135.974 134.805 135.838 134.928L134.84 134.779L135.246 131.141H139.215V132.075H136.152L135.923 134.096H135.965C136.106 133.959 136.293 133.845 136.525 133.754C136.761 133.662 137.012 133.616 137.28 133.616C137.719 133.616 138.111 133.721 138.454 133.93C138.799 134.139 139.071 134.425 139.268 134.787C139.468 135.146 139.567 135.56 139.564 136.027C139.567 136.495 139.461 136.912 139.247 137.279C139.036 137.646 138.742 137.935 138.366 138.146C137.992 138.355 137.563 138.46 137.079 138.46ZM143.095 131.141V138.361H142.002V132.234H141.96L140.232 133.362V132.319L142.034 131.141H143.095Z" fill="#509DE4"/>
<rect x="196.114" y="158.245" width="35.2101" height="94.2721" rx="5.95659" fill="#EAF5FF"/>
<mask id="mask1_209_5620" style="mask-type:alpha" maskUnits="userSpaceOnUse" x="196" y="158" width="36" height="95">
<rect x="196.114" y="158.245" width="35.2101" height="94.2721" rx="3.97106" fill="#D9D9D9"/>
</mask>
<g mask="url(#mask1_209_5620)">
<path d="M197.474 20.5898L197.474 387.913" stroke="url(#paint13_linear_209_5620)" stroke-width="1.48915"/>
<path d="M200.451 20.5898L200.451 387.913" stroke="url(#paint14_linear_209_5620)" stroke-width="1.48915"/>
<path d="M203.43 20.5898L203.43 387.913" stroke="url(#paint15_linear_209_5620)" stroke-width="1.48915"/>
<path d="M206.408 20.5898L206.408 387.913" stroke="url(#paint16_linear_209_5620)" stroke-width="1.48915"/>
<path d="M209.387 20.5898L209.387 387.913" stroke="url(#paint17_linear_209_5620)" stroke-width="1.48915"/>
<path d="M212.365 20.5898L212.365 387.913" stroke="url(#paint18_linear_209_5620)" stroke-width="1.48915"/>
<path d="M215.343 20.5898L215.343 387.913" stroke="url(#paint19_linear_209_5620)" stroke-width="1.48915"/>
<path d="M218.321 20.5898L218.321 387.913" stroke="url(#paint20_linear_209_5620)" stroke-width="1.48915"/>
<path d="M221.3 20.5898L221.3 387.913" stroke="url(#paint21_linear_209_5620)" stroke-width="1.48915"/>
<path d="M224.278 20.5898L224.278 387.913" stroke="url(#paint22_linear_209_5620)" stroke-width="1.48915"/>
<path d="M227.256 20.5898L227.256 387.913" stroke="url(#paint23_linear_209_5620)" stroke-width="1.48915"/>
<path d="M230.235 20.5898L230.235 387.913" stroke="url(#paint24_linear_209_5620)" stroke-width="1.48915"/>
</g>
<rect x="196.114" y="160.516" width="35.2101" height="92.0005" rx="3.97106" fill="url(#paint25_linear_209_5620)"/>
<path d="M206.932 147.259V154.479H205.839V148.352H205.797L204.069 149.48V148.436L205.871 147.259H206.932ZM208.632 154.479L211.784 148.246V148.193H208.138V147.259H212.912V148.225L209.771 154.479H208.632ZM216 154.599C215.443 154.597 214.967 154.45 214.572 154.158C214.177 153.867 213.875 153.443 213.666 152.886C213.457 152.328 213.352 151.657 213.352 150.872C213.352 150.09 213.457 149.421 213.666 148.866C213.877 148.312 214.181 147.889 214.576 147.597C214.973 147.306 215.447 147.16 216 147.16C216.552 147.16 217.026 147.307 217.421 147.601C217.815 147.892 218.117 148.315 218.327 148.87C218.538 149.422 218.644 150.09 218.644 150.872C218.644 151.66 218.539 152.332 218.33 152.889C218.121 153.444 217.819 153.868 217.424 154.162C217.029 154.453 216.554 154.599 216 154.599ZM216 153.658C216.489 153.658 216.871 153.419 217.146 152.942C217.423 152.465 217.562 151.775 217.562 150.872C217.562 150.273 217.498 149.767 217.371 149.353C217.247 148.937 217.067 148.622 216.832 148.408C216.599 148.192 216.322 148.084 216 148.084C215.513 148.084 215.131 148.324 214.854 148.803C214.577 149.282 214.437 149.972 214.435 150.872C214.435 151.474 214.497 151.983 214.621 152.399C214.748 152.813 214.928 153.126 215.161 153.34C215.393 153.552 215.673 153.658 216 153.658ZM221.781 154.578C221.339 154.578 220.942 154.493 220.59 154.324C220.24 154.152 219.96 153.917 219.751 153.619C219.542 153.32 219.43 152.98 219.416 152.596H220.473C220.499 152.907 220.637 153.162 220.886 153.361C221.135 153.561 221.434 153.661 221.781 153.661C222.059 153.661 222.304 153.598 222.518 153.471C222.734 153.341 222.904 153.164 223.026 152.938C223.15 152.713 223.213 152.455 223.213 152.166C223.213 151.873 223.149 151.61 223.022 151.38C222.895 151.15 222.72 150.969 222.497 150.837C222.276 150.706 222.022 150.639 221.736 150.636C221.517 150.636 221.297 150.674 221.076 150.749C220.855 150.824 220.677 150.923 220.54 151.045L219.543 150.897L219.948 147.259H223.918V148.193H220.854L220.625 150.213H220.667C220.808 150.077 220.995 149.963 221.228 149.871C221.463 149.78 221.714 149.734 221.982 149.734C222.422 149.734 222.813 149.838 223.156 150.048C223.502 150.257 223.773 150.542 223.971 150.904C224.17 151.264 224.269 151.677 224.267 152.145C224.269 152.613 224.163 153.03 223.95 153.397C223.738 153.763 223.444 154.052 223.068 154.264C222.694 154.473 222.266 154.578 221.781 154.578Z" fill="#509DE4"/>
<rect x="275.621" y="200.27" width="35.2101" height="52.2472" rx="5.95659" fill="#EAF5FF"/>
<mask id="mask2_209_5620" style="mask-type:alpha" maskUnits="userSpaceOnUse" x="275" y="200" width="36" height="53">
<rect x="275.621" y="200.27" width="35.2101" height="52.2472" rx="3.97106" fill="#D9D9D9"/>
</mask>
<g mask="url(#mask2_209_5620)">
<path d="M276.981 41.6152V408.938" stroke="url(#paint26_linear_209_5620)" stroke-width="1.48915"/>
<path d="M279.958 41.6152V408.938" stroke="url(#paint27_linear_209_5620)" stroke-width="1.48915"/>
<path d="M282.937 41.6152V408.938" stroke="url(#paint28_linear_209_5620)" stroke-width="1.48915"/>
<path d="M285.915 41.6152V408.938" stroke="url(#paint29_linear_209_5620)" stroke-width="1.48915"/>
<path d="M288.894 41.6152V408.938" stroke="url(#paint30_linear_209_5620)" stroke-width="1.48915"/>
<path d="M291.872 41.6152V408.938" stroke="url(#paint31_linear_209_5620)" stroke-width="1.48915"/>
<path d="M294.85 41.6152V408.938" stroke="url(#paint32_linear_209_5620)" stroke-width="1.48915"/>
<path d="M297.828 41.6152V408.938" stroke="url(#paint33_linear_209_5620)" stroke-width="1.48915"/>
<path d="M300.807 41.6152V408.938" stroke="url(#paint34_linear_209_5620)" stroke-width="1.48915"/>
<path d="M303.785 41.6152V408.938" stroke="url(#paint35_linear_209_5620)" stroke-width="1.48915"/>
<path d="M306.763 41.6152V408.938" stroke="url(#paint36_linear_209_5620)" stroke-width="1.48915"/>
<path d="M309.741 41.6152V408.938" stroke="url(#paint37_linear_209_5620)" stroke-width="1.48915"/>
</g>
<rect x="275.621" y="203.677" width="35.2101" height="48.8398" rx="3.97106" fill="url(#paint38_linear_209_5620)"/>
<path d="M287.841 196.603C287.336 196.603 286.889 196.516 286.501 196.342C286.116 196.168 285.814 195.929 285.595 195.623C285.377 195.317 285.269 194.97 285.271 194.58C285.269 194.274 285.331 193.993 285.458 193.737C285.587 193.478 285.762 193.263 285.983 193.092C286.204 192.918 286.451 192.807 286.724 192.76V192.718C286.364 192.631 286.076 192.438 285.86 192.14C285.644 191.841 285.537 191.498 285.539 191.11C285.537 190.741 285.634 190.412 285.832 190.123C286.031 189.832 286.305 189.603 286.653 189.436C287.001 189.269 287.397 189.186 287.841 189.186C288.281 189.186 288.673 189.27 289.019 189.439C289.366 189.606 289.64 189.835 289.84 190.127C290.04 190.416 290.141 190.744 290.143 191.11C290.141 191.498 290.03 191.841 289.812 192.14C289.593 192.438 289.309 192.631 288.959 192.718V192.76C289.229 192.807 289.472 192.918 289.688 193.092C289.907 193.263 290.081 193.478 290.21 193.737C290.342 193.993 290.409 194.274 290.411 194.58C290.409 194.97 290.298 195.317 290.08 195.623C289.861 195.929 289.558 196.168 289.17 196.342C288.785 196.516 288.342 196.603 287.841 196.603ZM287.841 195.711C288.14 195.711 288.398 195.662 288.617 195.563C288.835 195.462 289.005 195.322 289.124 195.144C289.244 194.963 289.305 194.751 289.308 194.509C289.305 194.258 289.24 194.035 289.11 193.843C288.983 193.65 288.811 193.498 288.592 193.388C288.373 193.277 288.123 193.222 287.841 193.222C287.557 193.222 287.304 193.277 287.083 193.388C286.862 193.498 286.688 193.65 286.561 193.843C286.434 194.035 286.372 194.258 286.375 194.509C286.372 194.751 286.43 194.963 286.547 195.144C286.667 195.322 286.838 195.462 287.059 195.563C287.279 195.662 287.54 195.711 287.841 195.711ZM287.841 192.351C288.081 192.351 288.294 192.303 288.479 192.207C288.665 192.111 288.811 191.977 288.916 191.805C289.025 191.633 289.08 191.432 289.082 191.202C289.08 190.976 289.026 190.779 288.92 190.61C288.817 190.441 288.672 190.31 288.486 190.219C288.301 190.125 288.086 190.078 287.841 190.078C287.592 190.078 287.373 190.125 287.185 190.219C287 190.31 286.855 190.441 286.752 190.61C286.648 190.779 286.598 190.976 286.6 191.202C286.598 191.432 286.65 191.633 286.755 191.805C286.861 191.977 287.007 192.111 287.192 192.207C287.38 192.303 287.597 192.351 287.841 192.351ZM293.561 196.603C293.119 196.603 292.722 196.518 292.369 196.349C292.019 196.178 291.74 195.943 291.53 195.644C291.321 195.346 291.21 195.005 291.195 194.622H292.253C292.279 194.932 292.416 195.187 292.666 195.387C292.915 195.587 293.213 195.686 293.561 195.686C293.838 195.686 294.084 195.623 294.298 195.496C294.514 195.367 294.683 195.189 294.805 194.964C294.93 194.738 294.992 194.481 294.992 194.192C294.992 193.898 294.929 193.636 294.802 193.406C294.675 193.175 294.5 192.994 294.277 192.863C294.056 192.731 293.802 192.664 293.515 192.662C293.297 192.662 293.077 192.699 292.856 192.774C292.635 192.85 292.456 192.948 292.32 193.071L291.322 192.923L291.728 189.284H295.697V190.219H292.634L292.405 192.239H292.447C292.588 192.102 292.775 191.988 293.008 191.897C293.243 191.805 293.494 191.759 293.762 191.759C294.201 191.759 294.593 191.864 294.936 192.073C295.281 192.282 295.553 192.568 295.75 192.93C295.95 193.289 296.049 193.703 296.046 194.171C296.049 194.638 295.943 195.055 295.729 195.422C295.518 195.789 295.224 196.078 294.848 196.289C294.474 196.499 294.045 196.603 293.561 196.603ZM299.577 189.284V196.504H298.484V190.377H298.442L296.714 191.505V190.462L298.516 189.284H299.577Z" fill="#509DE4"/>
<rect x="355.127" y="123.035" width="35.2101" height="129.482" rx="5.95659" fill="#EAF5FF"/>
<mask id="mask3_209_5620" style="mask-type:alpha" maskUnits="userSpaceOnUse" x="355" y="123" width="36" height="130">
<rect x="355.127" y="123.035" width="35.2101" height="129.482" rx="3.97106" fill="#D9D9D9"/>
</mask>
<g mask="url(#mask3_209_5620)">
<path d="M356.486 3.38037V370.703" stroke="url(#paint39_linear_209_5620)" stroke-width="1.48915"/>
<path d="M359.464 3.38037V370.703" stroke="url(#paint40_linear_209_5620)" stroke-width="1.48915"/>
<path d="M362.443 3.38037V370.703" stroke="url(#paint41_linear_209_5620)" stroke-width="1.48915"/>
<path d="M365.421 3.38037V370.703" stroke="url(#paint42_linear_209_5620)" stroke-width="1.48915"/>
<path d="M368.4 3.38037V370.703" stroke="url(#paint43_linear_209_5620)" stroke-width="1.48915"/>
<path d="M371.378 3.38037V370.703" stroke="url(#paint44_linear_209_5620)" stroke-width="1.48915"/>
<path d="M374.356 3.38037V370.703" stroke="url(#paint45_linear_209_5620)" stroke-width="1.48915"/>
<path d="M377.334 3.38037V370.703" stroke="url(#paint46_linear_209_5620)" stroke-width="1.48915"/>
<path d="M380.313 3.38037V370.703" stroke="url(#paint47_linear_209_5620)" stroke-width="1.48915"/>
<path d="M383.291 3.38037V370.703" stroke="url(#paint48_linear_209_5620)" stroke-width="1.48915"/>
<path d="M386.269 3.38037V370.703" stroke="url(#paint49_linear_209_5620)" stroke-width="1.48915"/>
<path d="M389.247 3.38037V370.703" stroke="url(#paint50_linear_209_5620)" stroke-width="1.48915"/>
</g>
<rect x="355.127" y="125.306" width="35.2101" height="127.211" rx="3.97106" fill="url(#paint51_linear_209_5620)"/>
<path d="M362.637 119.269V118.479L365.08 115.948C365.341 115.673 365.556 115.432 365.725 115.225C365.897 115.016 366.025 114.818 366.109 114.63C366.194 114.442 366.236 114.242 366.236 114.03C366.236 113.791 366.18 113.584 366.067 113.41C365.954 113.233 365.8 113.098 365.605 113.004C365.41 112.908 365.19 112.86 364.946 112.86C364.688 112.86 364.462 112.913 364.269 113.018C364.076 113.124 363.928 113.273 363.825 113.466C363.722 113.659 363.67 113.885 363.67 114.143H362.63C362.63 113.704 362.731 113.319 362.933 112.99C363.135 112.661 363.412 112.406 363.765 112.225C364.118 112.042 364.518 111.95 364.967 111.95C365.421 111.95 365.82 112.041 366.166 112.222C366.514 112.4 366.785 112.645 366.98 112.955C367.175 113.263 367.273 113.611 367.273 113.999C367.273 114.266 367.222 114.528 367.121 114.785C367.023 115.041 366.85 115.326 366.603 115.641C366.356 115.954 366.013 116.334 365.574 116.78L364.139 118.282V118.335H367.389V119.269H362.637ZM370.743 119.368C370.258 119.368 369.826 119.284 369.445 119.117C369.067 118.951 368.767 118.719 368.546 118.423C368.328 118.124 368.21 117.779 368.194 117.386H369.301C369.315 117.6 369.386 117.786 369.516 117.943C369.647 118.099 369.819 118.218 370.03 118.303C370.242 118.388 370.477 118.43 370.736 118.43C371.02 118.43 371.271 118.381 371.49 118.282C371.711 118.183 371.884 118.046 372.008 117.869C372.133 117.691 372.195 117.485 372.195 117.252C372.195 117.01 372.133 116.798 372.008 116.614C371.886 116.429 371.706 116.283 371.469 116.177C371.234 116.071 370.949 116.019 370.616 116.019H370.006V115.13H370.616C370.884 115.13 371.119 115.082 371.321 114.986C371.525 114.889 371.685 114.755 371.8 114.584C371.915 114.41 371.973 114.207 371.973 113.974C371.973 113.751 371.922 113.557 371.821 113.392C371.723 113.225 371.582 113.095 371.398 113.001C371.217 112.907 371.003 112.86 370.757 112.86C370.522 112.86 370.302 112.903 370.097 112.99C369.895 113.075 369.731 113.197 369.604 113.357C369.477 113.514 369.409 113.704 369.399 113.924H368.345C368.357 113.534 368.472 113.191 368.691 112.895C368.912 112.599 369.203 112.367 369.565 112.201C369.927 112.034 370.329 111.95 370.771 111.95C371.234 111.95 371.633 112.041 371.969 112.222C372.308 112.4 372.569 112.639 372.752 112.937C372.938 113.236 373.029 113.563 373.027 113.917C373.029 114.322 372.917 114.665 372.689 114.947C372.463 115.229 372.162 115.418 371.786 115.514V115.571C372.266 115.644 372.637 115.834 372.9 116.142C373.166 116.45 373.297 116.832 373.295 117.288C373.297 117.685 373.187 118.041 372.964 118.356C372.743 118.671 372.441 118.919 372.058 119.1C371.674 119.278 371.236 119.368 370.743 119.368ZM374.375 119.269L377.526 113.036V112.983H373.881V112.049H378.654V113.015L375.513 119.269H374.375ZM382.123 112.049V119.269H381.03V113.142H380.988L379.261 114.27V113.226L381.062 112.049H382.123Z" fill="#509DE4"/>
<path d="M113.995 269.259V268.356L116.79 265.46C117.088 265.145 117.334 264.87 117.528 264.633C117.724 264.394 117.871 264.166 117.968 263.951C118.064 263.736 118.113 263.508 118.113 263.266C118.113 262.991 118.048 262.755 117.919 262.556C117.79 262.354 117.614 262.199 117.391 262.092C117.168 261.982 116.916 261.927 116.637 261.927C116.341 261.927 116.083 261.987 115.862 262.108C115.642 262.229 115.472 262.4 115.354 262.62C115.236 262.841 115.177 263.099 115.177 263.395H113.987C113.987 262.892 114.102 262.452 114.334 262.076C114.565 261.699 114.882 261.408 115.285 261.201C115.689 260.991 116.147 260.886 116.661 260.886C117.18 260.886 117.637 260.989 118.032 261.196C118.43 261.401 118.741 261.68 118.964 262.035C119.187 262.388 119.299 262.786 119.299 263.229C119.299 263.536 119.241 263.836 119.125 264.129C119.012 264.422 118.815 264.749 118.532 265.109C118.25 265.467 117.857 265.901 117.355 266.412L115.713 268.13V268.19H119.432V269.259H113.995ZM123.34 269.396C122.703 269.394 122.158 269.226 121.706 268.892C121.255 268.559 120.909 268.073 120.67 267.436C120.43 266.799 120.311 266.031 120.311 265.133C120.311 264.238 120.43 263.473 120.67 262.838C120.912 262.203 121.259 261.719 121.71 261.386C122.165 261.053 122.708 260.886 123.34 260.886C123.972 260.886 124.514 261.054 124.965 261.39C125.417 261.724 125.763 262.208 126.002 262.842C126.244 263.474 126.365 264.238 126.365 265.133C126.365 266.034 126.245 266.803 126.006 267.44C125.767 268.075 125.421 268.56 124.969 268.896C124.518 269.23 123.975 269.396 123.34 269.396ZM123.34 268.319C123.899 268.319 124.336 268.047 124.651 267.501C124.968 266.955 125.127 266.166 125.127 265.133C125.127 264.447 125.054 263.868 124.909 263.395C124.766 262.919 124.561 262.558 124.292 262.314C124.026 262.066 123.708 261.943 123.34 261.943C122.783 261.943 122.346 262.217 122.029 262.765C121.712 263.314 121.552 264.103 121.549 265.133C121.549 265.821 121.62 266.404 121.763 266.88C121.908 267.353 122.114 267.712 122.38 267.956C122.646 268.198 122.966 268.319 123.34 268.319ZM130.433 260.999V269.259H129.183V262.249H129.135L127.158 263.54V262.346L129.219 260.999H130.433ZM132.45 269.259L136.056 262.128V262.068H131.885V260.999H137.346V262.104L133.753 269.259H132.45ZM141.919 264.605V265.653H138.257V264.605H141.919ZM146.148 260.999V269.259H144.897V262.249H144.849L142.873 263.54V262.346L144.934 260.999H146.148ZM150.677 269.372C150.099 269.372 149.588 269.273 149.144 269.074C148.703 268.875 148.358 268.6 148.108 268.251C147.858 267.901 147.734 267.503 147.737 267.057C147.734 266.707 147.805 266.386 147.95 266.093C148.098 265.797 148.299 265.551 148.551 265.355C148.804 265.156 149.087 265.03 149.398 264.976V264.927C148.987 264.828 148.658 264.607 148.41 264.266C148.163 263.924 148.041 263.532 148.043 263.088C148.041 262.666 148.152 262.29 148.378 261.959C148.607 261.625 148.92 261.363 149.318 261.172C149.716 260.981 150.169 260.886 150.677 260.886C151.18 260.886 151.629 260.983 152.024 261.176C152.422 261.367 152.735 261.629 152.964 261.963C153.193 262.294 153.308 262.669 153.311 263.088C153.308 263.532 153.182 263.924 152.932 264.266C152.682 264.607 152.356 264.828 151.956 264.927V264.976C152.265 265.03 152.543 265.156 152.791 265.355C153.041 265.551 153.24 265.797 153.387 266.093C153.538 266.386 153.615 266.707 153.617 267.057C153.615 267.503 153.488 267.901 153.238 268.251C152.988 268.6 152.641 268.875 152.198 269.074C151.757 269.273 151.25 269.372 150.677 269.372ZM150.677 268.352C151.019 268.352 151.314 268.295 151.564 268.182C151.814 268.067 152.008 267.907 152.145 267.702C152.282 267.495 152.352 267.253 152.355 266.976C152.352 266.689 152.277 266.435 152.129 266.214C151.984 265.994 151.786 265.82 151.536 265.694C151.286 265.567 151 265.504 150.677 265.504C150.352 265.504 150.063 265.567 149.81 265.694C149.557 265.82 149.358 265.994 149.213 266.214C149.068 266.435 148.996 266.689 148.999 266.976C148.996 267.253 149.062 267.495 149.197 267.702C149.334 267.907 149.529 268.067 149.782 268.182C150.034 268.295 150.333 268.352 150.677 268.352ZM150.677 264.508C150.951 264.508 151.195 264.453 151.407 264.343C151.619 264.232 151.786 264.079 151.907 263.883C152.031 263.686 152.094 263.457 152.097 263.193C152.094 262.935 152.032 262.709 151.911 262.515C151.793 262.322 151.628 262.173 151.415 262.068C151.203 261.96 150.957 261.906 150.677 261.906C150.392 261.906 150.142 261.96 149.927 262.068C149.714 262.173 149.549 262.322 149.431 262.515C149.312 262.709 149.255 262.935 149.257 263.193C149.255 263.457 149.314 263.686 149.435 263.883C149.556 264.079 149.722 264.232 149.935 264.343C150.15 264.453 150.397 264.508 150.677 264.508Z" fill="#7A7A7A"/>
<path d="M193.502 269.259V268.356L196.297 265.46C196.595 265.145 196.841 264.87 197.035 264.633C197.231 264.394 197.378 264.166 197.475 263.951C197.571 263.736 197.62 263.508 197.62 263.266C197.62 262.991 197.555 262.755 197.426 262.556C197.297 262.354 197.121 262.199 196.898 262.092C196.675 261.982 196.423 261.927 196.143 261.927C195.848 261.927 195.59 261.987 195.369 262.108C195.149 262.229 194.979 262.4 194.861 262.62C194.743 262.841 194.683 263.099 194.683 263.395H193.494C193.494 262.892 193.609 262.452 193.84 262.076C194.072 261.699 194.389 261.408 194.792 261.201C195.196 260.991 195.654 260.886 196.168 260.886C196.687 260.886 197.144 260.989 197.539 261.196C197.937 261.401 198.248 261.68 198.471 262.035C198.694 262.388 198.806 262.786 198.806 263.229C198.806 263.536 198.748 263.836 198.632 264.129C198.519 264.422 198.322 264.749 198.039 265.109C197.757 265.467 197.364 265.901 196.861 266.412L195.22 268.13V268.19H198.939V269.259H193.502ZM202.847 269.396C202.209 269.394 201.665 269.226 201.213 268.892C200.761 268.559 200.416 268.073 200.177 267.436C199.937 266.799 199.818 266.031 199.818 265.133C199.818 264.238 199.937 263.473 200.177 262.838C200.419 262.203 200.766 261.719 201.217 261.386C201.672 261.053 202.215 260.886 202.847 260.886C203.479 260.886 204.02 261.054 204.472 261.39C204.924 261.724 205.269 262.208 205.509 262.842C205.751 263.474 205.872 264.238 205.872 265.133C205.872 266.034 205.752 266.803 205.513 267.44C205.274 268.075 204.928 268.56 204.476 268.896C204.025 269.23 203.481 269.396 202.847 269.396ZM202.847 268.319C203.406 268.319 203.843 268.047 204.158 267.501C204.475 266.955 204.634 266.166 204.634 265.133C204.634 264.447 204.561 263.868 204.416 263.395C204.273 262.919 204.068 262.558 203.799 262.314C203.532 262.066 203.215 261.943 202.847 261.943C202.29 261.943 201.853 262.217 201.536 262.765C201.219 263.314 201.059 264.103 201.056 265.133C201.056 265.821 201.127 266.404 201.27 266.88C201.415 267.353 201.621 267.712 201.887 267.956C202.153 268.198 202.473 268.319 202.847 268.319ZM209.94 260.999V269.259H208.69V262.249H208.641L206.665 263.54V262.346L208.726 260.999H209.94ZM214.469 269.372C213.891 269.372 213.38 269.273 212.937 269.074C212.496 268.875 212.15 268.6 211.9 268.251C211.65 267.901 211.526 267.503 211.529 267.057C211.526 266.707 211.598 266.386 211.743 266.093C211.891 265.797 212.091 265.551 212.344 265.355C212.597 265.156 212.879 265.03 213.191 264.976V264.927C212.779 264.828 212.45 264.607 212.203 264.266C211.955 263.924 211.833 263.532 211.836 263.088C211.833 262.666 211.945 262.29 212.17 261.959C212.399 261.625 212.712 261.363 213.11 261.172C213.508 260.981 213.961 260.886 214.469 260.886C214.972 260.886 215.421 260.983 215.817 261.176C216.215 261.367 216.528 261.629 216.756 261.963C216.985 262.294 217.101 262.669 217.103 263.088C217.101 263.532 216.974 263.924 216.724 264.266C216.474 264.607 216.149 264.828 215.748 264.927V264.976C216.057 265.03 216.336 265.156 216.583 265.355C216.833 265.551 217.032 265.797 217.18 266.093C217.331 266.386 217.407 266.707 217.41 267.057C217.407 267.503 217.281 267.901 217.031 268.251C216.781 268.6 216.434 268.875 215.99 269.074C215.549 269.273 215.042 269.372 214.469 269.372ZM214.469 268.352C214.811 268.352 215.107 268.295 215.357 268.182C215.607 268.067 215.801 267.907 215.938 267.702C216.075 267.495 216.145 267.253 216.147 266.976C216.145 266.689 216.069 266.435 215.922 266.214C215.776 265.994 215.579 265.82 215.329 265.694C215.079 265.567 214.792 265.504 214.469 265.504C214.144 265.504 213.855 265.567 213.602 265.694C213.35 265.82 213.151 265.994 213.005 266.214C212.86 266.435 212.789 266.689 212.792 266.976C212.789 267.253 212.855 267.495 212.989 267.702C213.126 267.907 213.321 268.067 213.574 268.182C213.827 268.295 214.125 268.352 214.469 268.352ZM214.469 264.508C214.744 264.508 214.987 264.453 215.2 264.343C215.412 264.232 215.579 264.079 215.7 263.883C215.823 263.686 215.887 263.457 215.889 263.193C215.887 262.935 215.825 262.709 215.704 262.515C215.585 262.322 215.42 262.173 215.208 262.068C214.995 261.96 214.749 261.906 214.469 261.906C214.184 261.906 213.934 261.96 213.719 262.068C213.507 262.173 213.341 262.322 213.223 262.515C213.105 262.709 213.047 262.935 213.05 263.193C213.047 263.457 213.106 263.686 213.227 263.883C213.348 264.079 213.515 264.232 213.727 264.343C213.942 264.453 214.19 264.508 214.469 264.508ZM222.025 264.605V265.653H218.362V264.605H222.025ZM226.254 260.999V269.259H225.003V262.249H224.955L222.978 263.54V262.346L225.04 260.999H226.254ZM230.738 260.886C231.107 260.889 231.47 260.956 231.827 261.088C232.185 261.219 232.508 261.434 232.795 261.733C233.086 262.031 233.317 262.435 233.489 262.943C233.664 263.448 233.753 264.078 233.755 264.831C233.755 265.554 233.683 266.198 233.538 266.763C233.392 267.325 233.184 267.799 232.912 268.186C232.644 268.574 232.317 268.868 231.932 269.07C231.548 269.271 231.115 269.372 230.634 269.372C230.142 269.372 229.705 269.275 229.323 269.082C228.941 268.888 228.63 268.621 228.391 268.279C228.152 267.935 228.002 267.54 227.943 267.093H229.173C229.254 267.448 229.418 267.736 229.666 267.956C229.916 268.174 230.238 268.283 230.634 268.283C231.239 268.283 231.711 268.02 232.049 267.493C232.388 266.963 232.559 266.223 232.562 265.274H232.497C232.357 265.506 232.182 265.704 231.973 265.871C231.766 266.038 231.533 266.167 231.275 266.258C231.017 266.35 230.741 266.396 230.448 266.396C229.972 266.396 229.539 266.279 229.149 266.045C228.759 265.811 228.449 265.489 228.218 265.081C227.986 264.672 227.871 264.205 227.871 263.681C227.871 263.159 227.989 262.686 228.226 262.261C228.465 261.836 228.798 261.5 229.226 261.253C229.656 261.003 230.16 260.881 230.738 260.886ZM230.742 261.935C230.428 261.935 230.144 262.013 229.891 262.169C229.641 262.322 229.444 262.53 229.299 262.794C229.153 263.055 229.081 263.345 229.081 263.665C229.081 263.985 229.151 264.275 229.29 264.536C229.433 264.794 229.627 265 229.871 265.153C230.119 265.304 230.401 265.379 230.718 265.379C230.955 265.379 231.175 265.333 231.38 265.242C231.584 265.151 231.763 265.024 231.916 264.863C232.069 264.699 232.189 264.513 232.275 264.306C232.361 264.099 232.404 263.881 232.404 263.653C232.404 263.349 232.332 263.067 232.186 262.806C232.044 262.545 231.848 262.335 231.598 262.177C231.347 262.015 231.062 261.935 230.742 261.935Z" fill="#7A7A7A"/>
<path d="M273.007 269.259V268.356L275.803 265.46C276.101 265.145 276.347 264.87 276.541 264.633C276.737 264.394 276.884 264.166 276.98 263.951C277.077 263.736 277.126 263.508 277.126 263.266C277.126 262.991 277.061 262.755 276.932 262.556C276.803 262.354 276.627 262.199 276.404 262.092C276.18 261.982 275.929 261.927 275.649 261.927C275.354 261.927 275.095 261.987 274.875 262.108C274.654 262.229 274.485 262.4 274.367 262.62C274.248 262.841 274.189 263.099 274.189 263.395H272.999C272.999 262.892 273.115 262.452 273.346 262.076C273.578 261.699 273.895 261.408 274.298 261.201C274.702 260.991 275.16 260.886 275.674 260.886C276.193 260.886 276.65 260.989 277.045 261.196C277.443 261.401 277.753 261.68 277.977 262.035C278.2 262.388 278.311 262.786 278.311 263.229C278.311 263.536 278.254 263.836 278.138 264.129C278.025 264.422 277.827 264.749 277.545 265.109C277.263 265.467 276.87 265.901 276.367 266.412L274.726 268.13V268.19H278.445V269.259H273.007ZM282.353 269.396C281.715 269.394 281.171 269.226 280.719 268.892C280.267 268.559 279.922 268.073 279.682 267.436C279.443 266.799 279.324 266.031 279.324 265.133C279.324 264.238 279.443 263.473 279.682 262.838C279.925 262.203 280.271 261.719 280.723 261.386C281.178 261.053 281.721 260.886 282.353 260.886C282.985 260.886 283.526 261.054 283.978 261.39C284.43 261.724 284.775 262.208 285.015 262.842C285.257 263.474 285.378 264.238 285.378 265.133C285.378 266.034 285.258 266.803 285.019 267.44C284.779 268.075 284.434 268.56 283.982 268.896C283.53 269.23 282.987 269.396 282.353 269.396ZM282.353 268.319C282.912 268.319 283.349 268.047 283.663 267.501C283.981 266.955 284.139 266.166 284.139 265.133C284.139 264.447 284.067 263.868 283.922 263.395C283.779 262.919 283.573 262.558 283.305 262.314C283.038 262.066 282.721 261.943 282.353 261.943C281.796 261.943 281.359 262.217 281.042 262.765C280.724 263.314 280.564 264.103 280.562 265.133C280.562 265.821 280.633 266.404 280.776 266.88C280.921 267.353 281.126 267.712 281.393 267.956C281.659 268.198 281.979 268.319 282.353 268.319ZM289.446 260.999V269.259H288.196V262.249H288.147L286.171 263.54V262.346L288.232 260.999H289.446ZM293.931 260.886C294.299 260.889 294.662 260.956 295.02 261.088C295.378 261.219 295.7 261.434 295.988 261.733C296.278 262.031 296.51 262.435 296.682 262.943C296.857 263.448 296.945 264.078 296.948 264.831C296.948 265.554 296.875 266.198 296.73 266.763C296.585 267.325 296.377 267.799 296.105 268.186C295.836 268.574 295.509 268.868 295.125 269.07C294.74 269.271 294.307 269.372 293.826 269.372C293.334 269.372 292.897 269.275 292.515 269.082C292.133 268.888 291.823 268.621 291.584 268.279C291.344 267.935 291.195 267.54 291.136 267.093H292.366C292.447 267.448 292.611 267.736 292.858 267.956C293.108 268.174 293.431 268.283 293.826 268.283C294.431 268.283 294.903 268.02 295.242 267.493C295.581 266.963 295.751 266.223 295.754 265.274H295.69C295.55 265.506 295.375 265.704 295.165 265.871C294.958 266.038 294.726 266.167 294.467 266.258C294.209 266.35 293.934 266.396 293.641 266.396C293.165 266.396 292.732 266.279 292.342 266.045C291.952 265.811 291.641 265.489 291.41 265.081C291.179 264.672 291.063 264.205 291.063 263.681C291.063 263.159 291.182 262.686 291.418 262.261C291.657 261.836 291.991 261.5 292.418 261.253C292.849 261.003 293.353 260.881 293.931 260.886ZM293.935 261.935C293.62 261.935 293.337 262.013 293.084 262.169C292.834 262.322 292.636 262.53 292.491 262.794C292.346 263.055 292.273 263.345 292.273 263.665C292.273 263.985 292.343 264.275 292.483 264.536C292.626 264.794 292.819 265 293.064 265.153C293.311 265.304 293.594 265.379 293.911 265.379C294.147 265.379 294.368 265.333 294.572 265.242C294.777 265.151 294.955 265.024 295.109 264.863C295.262 264.699 295.382 264.513 295.468 264.306C295.554 264.099 295.597 263.881 295.597 263.653C295.597 263.349 295.524 263.067 295.379 262.806C295.236 262.545 295.04 262.335 294.79 262.177C294.54 262.015 294.255 261.935 293.935 261.935ZM301.575 264.605V265.653H297.913V264.605H301.575ZM302.337 269.259V268.356L305.132 265.46C305.431 265.145 305.677 264.87 305.87 264.633C306.067 264.394 306.213 264.166 306.31 263.951C306.407 263.736 306.455 263.508 306.455 263.266C306.455 262.991 306.391 262.755 306.262 262.556C306.133 262.354 305.956 262.199 305.733 262.092C305.51 261.982 305.259 261.927 304.979 261.927C304.683 261.927 304.425 261.987 304.205 262.108C303.984 262.229 303.815 262.4 303.696 262.62C303.578 262.841 303.519 263.099 303.519 263.395H302.329C302.329 262.892 302.445 262.452 302.676 262.076C302.907 261.699 303.224 261.408 303.628 261.201C304.031 260.991 304.49 260.886 305.003 260.886C305.522 260.886 305.979 260.989 306.375 261.196C306.772 261.401 307.083 261.68 307.306 262.035C307.529 262.388 307.641 262.786 307.641 263.229C307.641 263.536 307.583 263.836 307.468 264.129C307.355 264.422 307.157 264.749 306.875 265.109C306.592 265.467 306.2 265.901 305.697 266.412L304.055 268.13V268.19H307.774V269.259H302.337ZM311.682 269.396C311.045 269.394 310.5 269.226 310.049 268.892C309.597 268.559 309.251 268.073 309.012 267.436C308.773 266.799 308.653 266.031 308.653 265.133C308.653 264.238 308.773 263.473 309.012 262.838C309.254 262.203 309.601 261.719 310.053 261.386C310.507 261.053 311.05 260.886 311.682 260.886C312.314 260.886 312.856 261.054 313.308 261.39C313.759 261.724 314.105 262.208 314.344 262.842C314.586 263.474 314.707 264.238 314.707 265.133C314.707 266.034 314.588 266.803 314.348 267.44C314.109 268.075 313.763 268.56 313.312 268.896C312.86 269.23 312.317 269.396 311.682 269.396ZM311.682 268.319C312.242 268.319 312.678 268.047 312.993 267.501C313.31 266.955 313.469 266.166 313.469 265.133C313.469 264.447 313.396 263.868 313.251 263.395C313.109 262.919 312.903 262.558 312.634 262.314C312.368 262.066 312.051 261.943 311.682 261.943C311.126 261.943 310.689 262.217 310.371 262.765C310.054 263.314 309.894 264.103 309.891 265.133C309.891 265.821 309.963 266.404 310.105 266.88C310.25 267.353 310.456 267.712 310.722 267.956C310.988 268.198 311.308 268.319 311.682 268.319Z" fill="#7A7A7A"/>
<path d="M351.947 269.259V268.356L354.742 265.46C355.041 265.145 355.287 264.87 355.48 264.633C355.676 264.394 355.823 264.166 355.92 263.951C356.017 263.736 356.065 263.508 356.065 263.266C356.065 262.991 356.001 262.755 355.871 262.556C355.742 262.354 355.566 262.199 355.343 262.092C355.12 261.982 354.868 261.927 354.589 261.927C354.293 261.927 354.035 261.987 353.814 262.108C353.594 262.229 353.424 262.4 353.306 262.62C353.188 262.841 353.129 263.099 353.129 263.395H351.939C351.939 262.892 352.054 262.452 352.286 262.076C352.517 261.699 352.834 261.408 353.238 261.201C353.641 260.991 354.099 260.886 354.613 260.886C355.132 260.886 355.589 260.989 355.984 261.196C356.382 261.401 356.693 261.68 356.916 262.035C357.139 262.388 357.251 262.786 357.251 263.229C357.251 263.536 357.193 263.836 357.077 264.129C356.964 264.422 356.767 264.749 356.485 265.109C356.202 265.467 355.81 265.901 355.307 266.412L353.665 268.13V268.19H357.384V269.259H351.947ZM361.292 269.396C360.655 269.394 360.11 269.226 359.659 268.892C359.207 268.559 358.861 268.073 358.622 267.436C358.383 266.799 358.263 266.031 358.263 265.133C358.263 264.238 358.383 263.473 358.622 262.838C358.864 262.203 359.211 261.719 359.663 261.386C360.117 261.053 360.66 260.886 361.292 260.886C361.924 260.886 362.466 261.054 362.918 261.39C363.369 261.724 363.715 262.208 363.954 262.842C364.196 263.474 364.317 264.238 364.317 265.133C364.317 266.034 364.197 266.803 363.958 267.44C363.719 268.075 363.373 268.56 362.922 268.896C362.47 269.23 361.927 269.396 361.292 269.396ZM361.292 268.319C361.851 268.319 362.288 268.047 362.603 267.501C362.92 266.955 363.079 266.166 363.079 265.133C363.079 264.447 363.006 263.868 362.861 263.395C362.719 262.919 362.513 262.558 362.244 262.314C361.978 262.066 361.66 261.943 361.292 261.943C360.735 261.943 360.299 262.217 359.981 262.765C359.664 263.314 359.504 264.103 359.501 265.133C359.501 265.821 359.572 266.404 359.715 266.88C359.86 267.353 360.066 267.712 360.332 267.956C360.598 268.198 360.918 268.319 361.292 268.319ZM365.252 269.259V268.356L368.047 265.46C368.345 265.145 368.591 264.87 368.785 264.633C368.981 264.394 369.128 264.166 369.225 263.951C369.321 263.736 369.37 263.508 369.37 263.266C369.37 262.991 369.305 262.755 369.176 262.556C369.047 262.354 368.871 262.199 368.648 262.092C368.425 261.982 368.173 261.927 367.893 261.927C367.598 261.927 367.34 261.987 367.119 262.108C366.899 262.229 366.729 262.4 366.611 262.62C366.493 262.841 366.433 263.099 366.433 263.395H365.244C365.244 262.892 365.359 262.452 365.59 262.076C365.822 261.699 366.139 261.408 366.542 261.201C366.946 260.991 367.404 260.886 367.918 260.886C368.437 260.886 368.894 260.989 369.289 261.196C369.687 261.401 369.998 261.68 370.221 262.035C370.444 262.388 370.556 262.786 370.556 263.229C370.556 263.536 370.498 263.836 370.382 264.129C370.269 264.422 370.072 264.749 369.789 265.109C369.507 265.467 369.114 265.901 368.611 266.412L366.97 268.13V268.19H370.689V269.259H365.252ZM374.597 269.396C373.959 269.394 373.415 269.226 372.963 268.892C372.511 268.559 372.166 268.073 371.927 267.436C371.687 266.799 371.568 266.031 371.568 265.133C371.568 264.238 371.687 263.473 371.927 262.838C372.169 262.203 372.515 261.719 372.967 261.386C373.422 261.053 373.965 260.886 374.597 260.886C375.229 260.886 375.77 261.054 376.222 261.39C376.674 261.724 377.019 262.208 377.259 262.842C377.501 263.474 377.622 264.238 377.622 265.133C377.622 266.034 377.502 266.803 377.263 267.44C377.024 268.075 376.678 268.56 376.226 268.896C375.774 269.23 375.231 269.396 374.597 269.396ZM374.597 268.319C375.156 268.319 375.593 268.047 375.908 267.501C376.225 266.955 376.384 266.166 376.384 265.133C376.384 264.447 376.311 263.868 376.166 263.395C376.023 262.919 375.818 262.558 375.549 262.314C375.282 262.066 374.965 261.943 374.597 261.943C374.04 261.943 373.603 262.217 373.286 262.765C372.969 263.314 372.809 264.103 372.806 265.133C372.806 265.821 372.877 266.404 373.02 266.88C373.165 267.353 373.371 267.712 373.637 267.956C373.903 268.198 374.223 268.319 374.597 268.319ZM382.223 264.605V265.653H378.56V264.605H382.223ZM382.985 269.259V268.356L385.78 265.46C386.078 265.145 386.324 264.87 386.518 264.633C386.714 264.394 386.861 264.166 386.958 263.951C387.054 263.736 387.103 263.508 387.103 263.266C387.103 262.991 387.038 262.755 386.909 262.556C386.78 262.354 386.604 262.199 386.381 262.092C386.158 261.982 385.906 261.927 385.627 261.927C385.331 261.927 385.073 261.987 384.852 262.108C384.632 262.229 384.462 262.4 384.344 262.62C384.226 262.841 384.166 263.099 384.166 263.395H382.977C382.977 262.892 383.092 262.452 383.323 262.076C383.555 261.699 383.872 261.408 384.275 261.201C384.679 260.991 385.137 260.886 385.651 260.886C386.17 260.886 386.627 260.989 387.022 261.196C387.42 261.401 387.731 261.68 387.954 262.035C388.177 262.388 388.289 262.786 388.289 263.229C388.289 263.536 388.231 263.836 388.115 264.129C388.002 264.422 387.805 264.749 387.522 265.109C387.24 265.467 386.847 265.901 386.345 266.412L384.703 268.13V268.19H388.422V269.259H382.985ZM392.588 260.999V269.259H391.338V262.249H391.289L389.313 263.54V262.346L391.374 260.999H392.588Z" fill="#7A7A7A"/>
<path d="M40.3093 39.8735H38.9841V36.0932H34.6003V39.8735H33.2751V31.3367H34.6003V34.9455H38.9841V31.3367H40.3093V39.8735ZM43.9009 39.9919C42.1201 39.9919 40.9488 38.7672 40.9488 36.7617C40.9488 34.7621 42.1261 33.5375 43.9009 33.5375C45.6757 33.5375 46.853 34.7621 46.853 36.7617C46.853 38.7672 45.6816 39.9919 43.9009 39.9919ZM43.9009 38.9388C44.9066 38.9388 45.5514 38.1461 45.5514 36.7617C45.5514 35.3833 44.9007 34.5905 43.9009 34.5905C42.9011 34.5905 42.2503 35.3833 42.2503 36.7617C42.2503 38.1461 42.9011 38.9388 43.9009 38.9388ZM52.6808 33.6499V39.8735H51.4562V38.8205H51.4266C51.0835 39.5659 50.4505 39.9859 49.498 39.9859C48.1432 39.9859 47.315 39.1045 47.315 37.6787V33.6499H48.5928V37.4302C48.5928 38.3768 49.0425 38.8856 49.9239 38.8856C50.8468 38.8856 51.403 38.2466 51.403 37.2764V33.6499H52.6808ZM53.3381 35.4128C53.3381 34.3006 54.3201 33.5375 55.7755 33.5375C57.1598 33.5375 58.13 34.3125 58.1715 35.4188H56.9705C56.9113 34.8567 56.4558 34.5077 55.74 34.5077C55.0478 34.5077 54.5863 34.8449 54.5863 35.3359C54.5863 35.7205 54.894 35.9808 55.5388 36.1405L56.586 36.3831C57.8402 36.6848 58.3134 37.1581 58.3134 38.0751C58.3134 39.2109 57.2545 39.9919 55.7281 39.9919C54.255 39.9919 53.2789 39.2287 53.1783 38.0869H54.4444C54.5449 38.6844 55.0064 39.0157 55.7873 39.0157C56.5564 39.0157 57.0297 38.6962 57.0297 38.1934C57.0297 37.797 56.793 37.5781 56.1423 37.4125L55.03 37.1403C53.906 36.8682 53.3381 36.2825 53.3381 35.4128ZM61.414 34.5669C60.5207 34.5669 59.8936 35.2472 59.8285 36.1878H62.9403C62.9108 35.2354 62.3073 34.5669 61.414 34.5669ZM62.9344 38.0455H64.1472C63.9697 39.1814 62.893 39.9919 61.4672 39.9919C59.6392 39.9919 58.5329 38.7554 58.5329 36.7913C58.5329 34.839 59.6569 33.5375 61.414 33.5375C63.1415 33.5375 64.2182 34.7562 64.2182 36.6434V37.0812H59.8226V37.1581C59.8226 38.2407 60.4733 38.9566 61.4968 38.9566C62.2245 38.9566 62.7629 38.5898 62.9344 38.0455ZM64.6033 35.4128C64.6033 34.3006 65.5854 33.5375 67.0407 33.5375C68.4251 33.5375 69.3953 34.3125 69.4367 35.4188H68.2357C68.1766 34.8567 67.721 34.5077 67.0052 34.5077C66.313 34.5077 65.8516 34.8449 65.8516 35.3359C65.8516 35.7205 66.1592 35.9808 66.8041 36.1405L67.8512 36.3831C69.1054 36.6848 69.5787 37.1581 69.5787 38.0751C69.5787 39.2109 68.5197 39.9919 66.9934 39.9919C65.5203 39.9919 64.5441 39.2287 64.4436 38.0869H65.7096C65.8102 38.6844 66.2716 39.0157 67.0525 39.0157C67.8216 39.0157 68.2949 38.6962 68.2949 38.1934C68.2949 37.797 68.0583 37.5781 67.4075 37.4125L66.2953 37.1403C65.1712 36.8682 64.6033 36.2825 64.6033 35.4128ZM75.7976 40.0155C73.4016 40.0155 71.8871 38.3235 71.8871 35.6022C71.8871 32.8985 73.4134 31.1947 75.7976 31.1947C77.7321 31.1947 79.1934 32.3838 79.4182 34.1646H78.1048C77.8682 33.0701 76.9571 32.3543 75.7976 32.3543C74.2476 32.3543 73.2418 33.6262 73.2418 35.6022C73.2418 37.5959 74.2357 38.856 75.8035 38.856C76.9926 38.856 77.8386 38.2466 78.1048 37.2172H79.4241C79.0987 38.9802 77.7617 40.0155 75.7976 40.0155ZM82.643 39.9919C80.8622 39.9919 79.6909 38.7672 79.6909 36.7617C79.6909 34.7621 80.8682 33.5375 82.643 33.5375C84.4178 33.5375 85.5951 34.7621 85.5951 36.7617C85.5951 38.7672 84.4237 39.9919 82.643 39.9919ZM82.643 38.9388C83.6487 38.9388 84.2935 38.1461 84.2935 36.7617C84.2935 35.3833 83.6428 34.5905 82.643 34.5905C81.6432 34.5905 80.9924 35.3833 80.9924 36.7617C80.9924 38.1461 81.6432 38.9388 82.643 38.9388ZM86.0867 39.8735V33.6499H87.3054V34.6911H87.3349C87.6722 33.9812 88.3347 33.5434 89.2931 33.5434C90.6657 33.5434 91.4525 34.419 91.4525 35.8447V39.8735H90.1687V36.0932C90.1687 35.1585 89.7309 34.6438 88.8435 34.6438C87.9443 34.6438 87.3645 35.2827 87.3645 36.247V39.8735H86.0867ZM92.0802 35.4128C92.0802 34.3006 93.0622 33.5375 94.5176 33.5375C95.9019 33.5375 96.8721 34.3125 96.9135 35.4188H95.7126C95.6534 34.8567 95.1979 34.5077 94.4821 34.5077C93.7899 34.5077 93.3284 34.8449 93.3284 35.3359C93.3284 35.7205 93.6361 35.9808 94.2809 36.1405L95.3281 36.3831C96.5823 36.6848 97.0555 37.1581 97.0555 38.0751C97.0555 39.2109 95.9966 39.9919 94.4702 39.9919C92.9971 39.9919 92.021 39.2287 91.9204 38.0869H93.1865C93.287 38.6844 93.7485 39.0157 94.5294 39.0157C95.2985 39.0157 95.7718 38.6962 95.7718 38.1934C95.7718 37.797 95.5351 37.5781 94.8844 37.4125L93.7721 37.1403C92.6481 36.8682 92.0802 36.2825 92.0802 35.4128ZM97.9258 32.1768H99.2095V33.6499H100.393V34.6615H99.2095V38.0928C99.2095 38.6312 99.4462 38.8737 99.9668 38.8737C100.097 38.8737 100.304 38.8619 100.387 38.8441V39.8558C100.245 39.8913 99.9609 39.9149 99.6769 39.9149C98.4168 39.9149 97.9258 39.4357 97.9258 38.2348V34.6615H97.0206V33.6499H97.9258V32.1768ZM100.949 39.8735V33.6499H102.168V34.7088H102.198C102.405 33.9812 102.961 33.5493 103.694 33.5493C103.878 33.5493 104.038 33.5789 104.132 33.5966V34.7858C104.032 34.7443 103.807 34.7148 103.558 34.7148C102.736 34.7148 102.227 35.2649 102.227 36.1464V39.8735H100.949ZM109.765 33.6499V39.8735H108.54V38.8205H108.511C108.168 39.5659 107.535 39.9859 106.582 39.9859C105.227 39.9859 104.399 39.1045 104.399 37.6787V33.6499H105.677V37.4302C105.677 38.3768 106.127 38.8856 107.008 38.8856C107.931 38.8856 108.487 38.2466 108.487 37.2764V33.6499H109.765ZM115.877 35.7915H114.658C114.528 35.1289 114.031 34.6024 113.197 34.6024C112.209 34.6024 111.558 35.4247 111.558 36.7617C111.558 38.1283 112.215 38.9211 113.209 38.9211C113.995 38.9211 114.51 38.4892 114.658 37.7674H115.889C115.752 39.0926 114.693 39.9919 113.197 39.9919C111.416 39.9919 110.256 38.7732 110.256 36.7617C110.256 34.7858 111.416 33.5375 113.185 33.5375C114.788 33.5375 115.764 34.5669 115.877 35.7915ZM116.67 32.1768H117.954V33.6499H119.137V34.6615H117.954V38.0928C117.954 38.6312 118.19 38.8737 118.711 38.8737C118.841 38.8737 119.048 38.8619 119.131 38.8441V39.8558C118.989 39.8913 118.705 39.9149 118.421 39.9149C117.161 39.9149 116.67 39.4357 116.67 38.2348V34.6615H115.765V33.6499H116.67V32.1768ZM122.143 34.5669C121.25 34.5669 120.622 35.2472 120.557 36.1878H123.669C123.64 35.2354 123.036 34.5669 122.143 34.5669ZM123.663 38.0455H124.876C124.699 39.1814 123.622 39.9919 122.196 39.9919C120.368 39.9919 119.262 38.7554 119.262 36.7913C119.262 34.839 120.386 33.5375 122.143 33.5375C123.87 33.5375 124.947 34.7562 124.947 36.6434V37.0812H120.551V37.1581C120.551 38.2407 121.202 38.9566 122.226 38.9566C122.953 38.9566 123.492 38.5898 123.663 38.0455ZM127.781 39.98C126.208 39.98 125.167 38.7258 125.167 36.7617C125.167 34.7976 126.208 33.5493 127.77 33.5493C128.663 33.5493 129.373 33.9989 129.722 34.6852H129.746V31.3367H131.029V39.8735H129.787V38.8146H129.763C129.396 39.5245 128.687 39.98 127.781 39.98ZM128.119 34.626C127.107 34.626 126.474 35.4543 126.474 36.7617C126.474 38.0751 127.107 38.8974 128.119 38.8974C129.101 38.8974 129.757 38.0632 129.757 36.7617C129.757 35.472 129.101 34.626 128.119 34.626ZM133.852 39.8735V33.6499H135.13V39.8735H133.852ZM134.491 32.7388C134.083 32.7388 133.752 32.4134 133.752 32.0111C133.752 31.6029 134.083 31.2775 134.491 31.2775C134.905 31.2775 135.237 31.6029 135.237 32.0111C135.237 32.4134 134.905 32.7388 134.491 32.7388ZM135.941 39.8735V33.6499H137.16V34.6911H137.19C137.527 33.9812 138.189 33.5434 139.148 33.5434C140.52 33.5434 141.307 34.419 141.307 35.8447V39.8735H140.023V36.0932C140.023 35.1585 139.586 34.6438 138.698 34.6438C137.799 34.6438 137.219 35.2827 137.219 36.247V39.8735H135.941ZM143.97 33.8392C143.97 32.301 145.207 31.177 146.905 31.177C148.532 31.177 149.745 32.2123 149.745 33.567C149.745 34.5609 149.212 35.3004 147.964 36.5783L145.828 38.7258V38.7554H149.881V39.8735H144.041V38.9743L147.124 35.8329C148.165 34.7503 148.437 34.3006 148.437 33.6321C148.437 32.8749 147.751 32.2714 146.863 32.2714C145.929 32.2714 145.225 32.9459 145.225 33.8333V33.851H143.97V33.8392ZM153.673 40.0333C151.626 40.0333 150.414 38.3176 150.414 35.5962C150.414 32.8926 151.638 31.177 153.673 31.177C155.714 31.177 156.921 32.8867 156.921 35.5903C156.921 38.3117 155.72 40.0333 153.673 40.0333ZM153.673 38.9211C154.892 38.9211 155.584 37.6609 155.584 35.5962C155.584 33.5611 154.88 32.2892 153.673 32.2892C152.466 32.2892 151.757 33.567 151.757 35.5962C151.757 37.655 152.455 38.9211 153.673 38.9211ZM157.448 33.8392C157.448 32.301 158.685 31.177 160.383 31.177C162.01 31.177 163.222 32.2123 163.222 33.567C163.222 34.5609 162.69 35.3004 161.442 36.5783L159.306 38.7258V38.7554H163.358V39.8735H157.519V38.9743L160.602 35.8329C161.643 34.7503 161.915 34.3006 161.915 33.6321C161.915 32.8749 161.229 32.2714 160.341 32.2714C159.407 32.2714 158.703 32.9459 158.703 33.8333V33.851H157.448V33.8392ZM167.151 40.0333C165.104 40.0333 163.891 38.3176 163.891 35.5962C163.891 32.8926 165.116 31.177 167.151 31.177C169.192 31.177 170.399 32.8867 170.399 35.5903C170.399 38.3117 169.198 40.0333 167.151 40.0333ZM167.151 38.9211C168.37 38.9211 169.062 37.6609 169.062 35.5962C169.062 33.5611 168.358 32.2892 167.151 32.2892C165.944 32.2892 165.234 33.567 165.234 35.5962C165.234 37.655 165.932 38.9211 167.151 38.9211ZM174.996 36.9865H171.115V35.8329H174.996V36.9865ZM175.778 33.8392C175.778 32.301 177.014 31.177 178.712 31.177C180.339 31.177 181.552 32.2123 181.552 33.567C181.552 34.5609 181.019 35.3004 179.771 36.5783L177.636 38.7258V38.7554H181.688V39.8735H175.849V38.9743L178.931 35.8329C179.972 34.7503 180.244 34.3006 180.244 33.6321C180.244 32.8749 179.558 32.2714 178.671 32.2714C177.736 32.2714 177.032 32.9459 177.032 33.8333V33.851H175.778V33.8392ZM184.528 39.8735V32.6501H184.499L182.268 34.2356V32.934L184.516 31.3367H185.824V39.8735H184.528Z" fill="#7A7A7A"/>
<path d="M44.131 60.6773L40.889 72.3438H37.5169L32.9971 55.2701H36.7005L39.3864 67.6346H39.481L42.6757 55.2701H45.6929L48.8875 67.6346H48.9822L51.6799 55.2701H55.3833L50.8516 72.3438H47.4795L44.2375 60.6773H44.131ZM61.4177 72.6159C57.5841 72.6159 55.1348 70.1548 55.1348 65.9899C55.1348 61.8842 57.6196 59.3876 61.4177 59.3876C65.2157 59.3876 67.7005 61.8724 67.7005 65.9899C67.7005 70.1667 65.2512 72.6159 61.4177 72.6159ZM61.4177 69.9773C63.1096 69.9773 64.1864 68.5457 64.1864 66.0018C64.1864 63.4815 63.0978 62.0262 61.4177 62.0262C59.7375 62.0262 58.6371 63.4815 58.6371 66.0018C58.6371 68.5457 59.7138 69.9773 61.4177 69.9773ZM69.4871 72.3438V59.6598H72.8238V61.9434H72.8948C73.3444 60.3342 74.4211 59.4586 75.9119 59.4586C76.3142 59.4586 76.6573 59.5178 76.894 59.5888V62.6296C76.61 62.5113 76.1367 62.4285 75.6398 62.4285C73.936 62.4285 72.9421 63.4697 72.9421 65.2563V72.3438H69.4871ZM81.899 64.7476L86.2058 59.6598H90.1222L85.2829 65.1025L90.3589 72.3438H86.3833L82.7509 67.185L81.8516 68.1552V72.3438H78.3967V55.2701H81.8516V64.7476H81.899ZM90.9031 63.3869C90.9031 60.9731 92.9974 59.3876 96.2512 59.3876C99.4341 59.3876 101.505 60.9968 101.552 63.4579H98.3692C98.2982 62.4403 97.4818 61.8132 96.2039 61.8132C95.0089 61.8132 94.228 62.3575 94.228 63.1739C94.228 63.801 94.7722 64.227 95.8844 64.4873L98.31 65.0079C100.854 65.5758 101.883 66.5815 101.883 68.4747C101.883 70.9712 99.5879 72.6159 96.2394 72.6159C92.8554 72.6159 90.773 70.9831 90.5837 68.5102H93.9558C94.1215 69.575 94.9615 70.1903 96.3341 70.1903C97.6474 70.1903 98.4402 69.6697 98.4402 68.8415C98.4402 68.2025 98.0142 67.8476 96.8783 67.5754L94.5356 67.0548C92.1337 66.5105 90.9031 65.2563 90.9031 63.3869ZM120.022 69.3857V72.3438H108.71V55.2701H120.022V58.2163H112.284V62.3338H119.584V65.0789H112.284V69.3857H120.022ZM127.523 67.9422H127.452L125.074 72.3438H121.442L125.417 66.0254L121.465 59.6598H125.358L127.642 63.943H127.713L129.961 59.6598H133.723L129.76 65.9308L133.688 72.3438H129.937L127.523 67.9422ZM142.515 59.4586C145.733 59.4586 147.709 61.9079 147.709 66.0018C147.709 70.0838 145.745 72.5449 142.574 72.5449C140.728 72.5449 139.308 71.6457 138.634 70.214H138.563V76.485H135.108V59.6598H138.515V61.8724H138.586C139.273 60.3815 140.681 59.4586 142.515 59.4586ZM141.355 69.7644C143.083 69.7644 144.171 68.309 144.171 66.0018C144.171 63.7063 143.083 62.2273 141.355 62.2273C139.663 62.2273 138.551 63.73 138.551 66.0018C138.551 68.2972 139.663 69.7644 141.355 69.7644ZM155.187 61.9434C153.672 61.9434 152.584 63.0911 152.465 64.6766H157.849C157.778 63.0556 156.725 61.9434 155.187 61.9434ZM157.896 68.4628H161.067C160.689 70.9476 158.417 72.6159 155.281 72.6159C151.377 72.6159 149.034 70.1193 149.034 66.0609C149.034 62.0144 151.4 59.3876 155.151 59.3876C158.843 59.3876 161.174 61.8842 161.174 65.7415V66.7945H152.43V67.0075C152.43 68.8178 153.578 70.0602 155.341 70.0602C156.607 70.0602 157.577 69.4331 157.896 68.4628ZM162.96 72.3438V59.6598H166.297V61.9197H166.368C167.042 60.346 168.379 59.4231 170.332 59.4231C173.148 59.4231 174.733 61.198 174.733 64.1678V72.3438H171.278V64.8896C171.278 63.2331 170.497 62.2865 168.947 62.2865C167.397 62.2865 166.415 63.4224 166.415 65.067V72.3438H162.96ZM181.631 72.5449C178.46 72.5449 176.461 70.0365 176.461 65.9781C176.461 61.9552 178.472 59.4586 181.655 59.4586C183.489 59.4586 184.909 60.4289 185.524 61.8369H185.595V55.2701H189.05V72.3438H185.642V70.1667H185.583C184.968 71.5628 183.501 72.5449 181.631 72.5449ZM182.803 62.2273C181.063 62.2273 179.999 63.6827 179.999 66.0018C179.999 68.3327 181.063 69.7644 182.803 69.7644C184.518 69.7644 185.619 68.3209 185.619 66.0018C185.619 63.6945 184.518 62.2273 182.803 62.2273ZM191.416 72.3438V59.6598H194.871V72.3438H191.416ZM193.144 58.2636C192.103 58.2636 191.298 57.4709 191.298 56.477C191.298 55.4712 192.103 54.6903 193.144 54.6903C194.185 54.6903 194.99 55.4712 194.99 56.477C194.99 57.4709 194.185 58.2636 193.144 58.2636ZM198.102 56.7373H201.557V59.6598H203.899V62.2628H201.557V68.3327C201.557 69.3029 202.03 69.7644 203.047 69.7644C203.355 69.7644 203.674 69.7407 203.887 69.7052V72.2491C203.532 72.3319 202.941 72.3911 202.243 72.3911C199.261 72.3911 198.102 71.3972 198.102 68.9243V62.2628H196.315V59.6598H198.102V56.7373ZM217.506 59.6598V72.3438H214.17V70.0602H214.099C213.471 71.6575 212.217 72.5804 210.3 72.5804C207.555 72.5804 205.733 70.7938 205.733 67.8357V59.6598H209.188V67.114C209.188 68.806 210.028 69.7052 211.555 69.7052C213.093 69.7052 214.051 68.6048 214.051 66.9247V59.6598H217.506ZM219.754 72.3438V59.6598H223.091V61.9434H223.162C223.611 60.3342 224.688 59.4586 226.179 59.4586C226.581 59.4586 226.924 59.5178 227.161 59.5888V62.6296C226.877 62.5113 226.404 62.4285 225.907 62.4285C224.203 62.4285 223.209 63.4697 223.209 65.2563V72.3438H219.754ZM233.846 61.9434C232.332 61.9434 231.243 63.0911 231.125 64.6766H236.508C236.437 63.0556 235.384 61.9434 233.846 61.9434ZM236.556 68.4628H239.727C239.348 70.9476 237.076 72.6159 233.941 72.6159C230.036 72.6159 227.694 70.1193 227.694 66.0609C227.694 62.0144 230.06 59.3876 233.811 59.3876C237.502 59.3876 239.833 61.8842 239.833 65.7415V66.7945H231.089V67.0075C231.089 68.8178 232.237 70.0602 234 70.0602C235.266 70.0602 236.236 69.4331 236.556 68.4628ZM246.305 60.4052C246.305 57.1751 248.885 54.8915 252.612 54.8915C256.209 54.8915 258.682 56.9739 258.682 59.8254C258.682 61.9552 257.262 63.5525 255.381 65.422L251.216 69.4331V69.5041H258.918V72.3438H246.507V69.9418L252.943 63.7418C254.671 62.0144 255.203 61.1506 255.203 59.9674C255.203 58.6896 254.079 57.672 252.494 57.672C250.837 57.672 249.618 58.8315 249.618 60.4052V60.4644H246.305V60.4052ZM267.745 72.7224C263.45 72.7224 260.835 69.3029 260.835 63.7773C260.835 58.2636 263.474 54.8796 267.745 54.8796C272.016 54.8796 274.643 58.2518 274.643 63.7655C274.643 69.2792 272.04 72.7224 267.745 72.7224ZM267.745 69.859C269.78 69.859 271.011 67.6701 271.011 63.7773C271.011 59.9201 269.768 57.743 267.745 57.743C265.734 57.743 264.468 59.9319 264.468 63.7773C264.468 67.6583 265.71 69.859 267.745 69.859ZM276.524 60.4052C276.524 57.1751 279.104 54.8915 282.831 54.8915C286.428 54.8915 288.901 56.9739 288.901 59.8254C288.901 61.9552 287.481 63.5525 285.6 65.422L281.435 69.4331V69.5041H289.137V72.3438H276.726V69.9418L283.162 63.7418C284.89 62.0144 285.422 61.1506 285.422 59.9674C285.422 58.6896 284.298 57.672 282.713 57.672C281.056 57.672 279.837 58.8315 279.837 60.4052V60.4644H276.524V60.4052ZM297.964 72.7224C293.669 72.7224 291.054 69.3029 291.054 63.7773C291.054 58.2636 293.693 54.8796 297.964 54.8796C302.235 54.8796 304.862 58.2518 304.862 63.7655C304.862 69.2792 302.259 72.7224 297.964 72.7224ZM297.964 69.859C299.999 69.859 301.23 67.6701 301.23 63.7773C301.23 59.9201 299.987 57.743 297.964 57.743C295.953 57.743 294.687 59.9319 294.687 63.7773C294.687 67.6583 295.929 69.859 297.964 69.859ZM315.097 66.9128H307.323V63.8957H315.097V66.9128ZM317.582 60.4052C317.582 57.1751 320.161 54.8915 323.888 54.8915C327.485 54.8915 329.958 56.9739 329.958 59.8254C329.958 61.9552 328.538 63.5525 326.657 65.422L322.492 69.4331V69.5041H330.195V72.3438H317.783V69.9418L324.219 63.7418C325.947 62.0144 326.479 61.1506 326.479 59.9674C326.479 58.6896 325.355 57.672 323.77 57.672C322.113 57.672 320.895 58.8315 320.895 60.4052V60.4644H317.582V60.4052ZM336.679 72.3438V58.5476H336.608L332.253 61.5529V58.3346L336.667 55.2701H340.216V72.3438H336.679Z" fill="#242424"/>
<rect x="5.25931" y="3.20951" width="518.339" height="301.008" rx="15.3163" stroke="#F9F9F9" stroke-width="1.13581" shape-rendering="crispEdges"/>
</g>
<defs>
<filter id="filter0_d_209_5620" x="0.148172" y="0.369984" width="528.561" height="311.23" filterUnits="userSpaceOnUse" color-interpolation-filters="sRGB">
<feFlood flood-opacity="0" result="BackgroundImageFix"/>
<feColorMatrix in="SourceAlpha" type="matrix" values="0 0 0 0 0 0 0 0 0 0 0 0 0 0 0 0 0 0 127 0" result="hardAlpha"/>
<feOffset dy="2.27162"/>
<feGaussianBlur stdDeviation="2.27162"/>
<feComposite in2="hardAlpha" operator="out"/>
<feColorMatrix type="matrix" values="0 0 0 0 0 0 0 0 0 0 0 0 0 0 0 0 0 0 0.04 0"/>
<feBlend mode="normal" in2="BackgroundImageFix" result="effect1_dropShadow_209_5620"/>
<feBlend mode="normal" in="SourceGraphic" in2="effect1_dropShadow_209_5620" result="shape"/>
</filter>
<linearGradient id="paint0_linear_209_5620" x1="117.725" y1="246.524" x2="116.482" y2="246.527" gradientUnits="userSpaceOnUse">
<stop stop-color="#F1F8FF"/>
<stop offset="1" stop-color="#FEFDFF"/>
</linearGradient>
<linearGradient id="paint1_linear_209_5620" x1="120.702" y1="246.524" x2="119.46" y2="246.527" gradientUnits="userSpaceOnUse">
<stop stop-color="#F1F8FF"/>
<stop offset="1" stop-color="#FEFDFF"/>
</linearGradient>
<linearGradient id="paint2_linear_209_5620" x1="123.681" y1="246.524" x2="122.439" y2="246.527" gradientUnits="userSpaceOnUse">
<stop stop-color="#F1F8FF"/>
<stop offset="1" stop-color="#FEFDFF"/>
</linearGradient>
<linearGradient id="paint3_linear_209_5620" x1="126.659" y1="246.524" x2="125.417" y2="246.527" gradientUnits="userSpaceOnUse">
<stop stop-color="#F1F8FF"/>
<stop offset="1" stop-color="#FEFDFF"/>
</linearGradient>
<linearGradient id="paint4_linear_209_5620" x1="129.638" y1="246.524" x2="128.396" y2="246.527" gradientUnits="userSpaceOnUse">
<stop stop-color="#F1F8FF"/>
<stop offset="1" stop-color="#FEFDFF"/>
</linearGradient>
<linearGradient id="paint5_linear_209_5620" x1="132.616" y1="246.524" x2="131.374" y2="246.527" gradientUnits="userSpaceOnUse">
<stop stop-color="#F1F8FF"/>
<stop offset="1" stop-color="#FEFDFF"/>
</linearGradient>
<linearGradient id="paint6_linear_209_5620" x1="135.594" y1="246.524" x2="134.352" y2="246.527" gradientUnits="userSpaceOnUse">
<stop stop-color="#F1F8FF"/>
<stop offset="1" stop-color="#FEFDFF"/>
</linearGradient>
<linearGradient id="paint7_linear_209_5620" x1="138.572" y1="246.524" x2="137.33" y2="246.527" gradientUnits="userSpaceOnUse">
<stop stop-color="#F1F8FF"/>
<stop offset="1" stop-color="#FEFDFF"/>
</linearGradient>
<linearGradient id="paint8_linear_209_5620" x1="141.551" y1="246.524" x2="140.309" y2="246.527" gradientUnits="userSpaceOnUse">
<stop stop-color="#F1F8FF"/>
<stop offset="1" stop-color="#FEFDFF"/>
</linearGradient>
<linearGradient id="paint9_linear_209_5620" x1="144.529" y1="246.524" x2="143.287" y2="246.527" gradientUnits="userSpaceOnUse">
<stop stop-color="#F1F8FF"/>
<stop offset="1" stop-color="#FEFDFF"/>
</linearGradient>
<linearGradient id="paint10_linear_209_5620" x1="147.507" y1="246.524" x2="146.265" y2="246.527" gradientUnits="userSpaceOnUse">
<stop stop-color="#F1F8FF"/>
<stop offset="1" stop-color="#FEFDFF"/>
</linearGradient>
<linearGradient id="paint11_linear_209_5620" x1="150.485" y1="246.524" x2="149.243" y2="246.527" gradientUnits="userSpaceOnUse">
<stop stop-color="#F1F8FF"/>
<stop offset="1" stop-color="#FEFDFF"/>
</linearGradient>
<linearGradient id="paint12_linear_209_5620" x1="134.212" y1="148.022" x2="135.016" y2="226.76" gradientUnits="userSpaceOnUse">
<stop stop-color="#1E5E98" stop-opacity="0.38"/>
<stop offset="1" stop-color="#184D7D" stop-opacity="0.94"/>
</linearGradient>
<linearGradient id="paint13_linear_209_5620" x1="197.231" y1="253.153" x2="195.989" y2="253.156" gradientUnits="userSpaceOnUse">
<stop stop-color="#F1F8FF"/>
<stop offset="1" stop-color="#FEFDFF"/>
</linearGradient>
<linearGradient id="paint14_linear_209_5620" x1="200.209" y1="253.153" x2="198.967" y2="253.156" gradientUnits="userSpaceOnUse">
<stop stop-color="#F1F8FF"/>
<stop offset="1" stop-color="#FEFDFF"/>
</linearGradient>
<linearGradient id="paint15_linear_209_5620" x1="203.187" y1="253.153" x2="201.945" y2="253.156" gradientUnits="userSpaceOnUse">
<stop stop-color="#F1F8FF"/>
<stop offset="1" stop-color="#FEFDFF"/>
</linearGradient>
<linearGradient id="paint16_linear_209_5620" x1="206.166" y1="253.153" x2="204.924" y2="253.156" gradientUnits="userSpaceOnUse">
<stop stop-color="#F1F8FF"/>
<stop offset="1" stop-color="#FEFDFF"/>
</linearGradient>
<linearGradient id="paint17_linear_209_5620" x1="209.144" y1="253.153" x2="207.902" y2="253.156" gradientUnits="userSpaceOnUse">
<stop stop-color="#F1F8FF"/>
<stop offset="1" stop-color="#FEFDFF"/>
</linearGradient>
<linearGradient id="paint18_linear_209_5620" x1="212.123" y1="253.153" x2="210.881" y2="253.156" gradientUnits="userSpaceOnUse">
<stop stop-color="#F1F8FF"/>
<stop offset="1" stop-color="#FEFDFF"/>
</linearGradient>
<linearGradient id="paint19_linear_209_5620" x1="215.101" y1="253.153" x2="213.858" y2="253.156" gradientUnits="userSpaceOnUse">
<stop stop-color="#F1F8FF"/>
<stop offset="1" stop-color="#FEFDFF"/>
</linearGradient>
<linearGradient id="paint20_linear_209_5620" x1="218.079" y1="253.153" x2="216.837" y2="253.156" gradientUnits="userSpaceOnUse">
<stop stop-color="#F1F8FF"/>
<stop offset="1" stop-color="#FEFDFF"/>
</linearGradient>
<linearGradient id="paint21_linear_209_5620" x1="221.058" y1="253.153" x2="219.816" y2="253.156" gradientUnits="userSpaceOnUse">
<stop stop-color="#F1F8FF"/>
<stop offset="1" stop-color="#FEFDFF"/>
</linearGradient>
<linearGradient id="paint22_linear_209_5620" x1="224.036" y1="253.153" x2="222.794" y2="253.156" gradientUnits="userSpaceOnUse">
<stop stop-color="#F1F8FF"/>
<stop offset="1" stop-color="#FEFDFF"/>
</linearGradient>
<linearGradient id="paint23_linear_209_5620" x1="227.014" y1="253.153" x2="225.772" y2="253.156" gradientUnits="userSpaceOnUse">
<stop stop-color="#F1F8FF"/>
<stop offset="1" stop-color="#FEFDFF"/>
</linearGradient>
<linearGradient id="paint24_linear_209_5620" x1="229.992" y1="253.153" x2="228.75" y2="253.156" gradientUnits="userSpaceOnUse">
<stop stop-color="#F1F8FF"/>
<stop offset="1" stop-color="#FEFDFF"/>
</linearGradient>
<linearGradient id="paint25_linear_209_5620" x1="213.719" y1="160.516" x2="214.343" y2="229.841" gradientUnits="userSpaceOnUse">
<stop stop-color="#1E5E98" stop-opacity="0.38"/>
<stop offset="1" stop-color="#184D7D" stop-opacity="0.94"/>
</linearGradient>
<linearGradient id="paint26_linear_209_5620" x1="276.738" y1="274.178" x2="275.496" y2="274.181" gradientUnits="userSpaceOnUse">
<stop stop-color="#F1F8FF"/>
<stop offset="1" stop-color="#FEFDFF"/>
</linearGradient>
<linearGradient id="paint27_linear_209_5620" x1="279.716" y1="274.178" x2="278.474" y2="274.181" gradientUnits="userSpaceOnUse">
<stop stop-color="#F1F8FF"/>
<stop offset="1" stop-color="#FEFDFF"/>
</linearGradient>
<linearGradient id="paint28_linear_209_5620" x1="282.694" y1="274.178" x2="281.452" y2="274.181" gradientUnits="userSpaceOnUse">
<stop stop-color="#F1F8FF"/>
<stop offset="1" stop-color="#FEFDFF"/>
</linearGradient>
<linearGradient id="paint29_linear_209_5620" x1="285.673" y1="274.178" x2="284.431" y2="274.181" gradientUnits="userSpaceOnUse">
<stop stop-color="#F1F8FF"/>
<stop offset="1" stop-color="#FEFDFF"/>
</linearGradient>
<linearGradient id="paint30_linear_209_5620" x1="288.651" y1="274.178" x2="287.409" y2="274.181" gradientUnits="userSpaceOnUse">
<stop stop-color="#F1F8FF"/>
<stop offset="1" stop-color="#FEFDFF"/>
</linearGradient>
<linearGradient id="paint31_linear_209_5620" x1="291.63" y1="274.178" x2="290.388" y2="274.181" gradientUnits="userSpaceOnUse">
<stop stop-color="#F1F8FF"/>
<stop offset="1" stop-color="#FEFDFF"/>
</linearGradient>
<linearGradient id="paint32_linear_209_5620" x1="294.607" y1="274.178" x2="293.365" y2="274.181" gradientUnits="userSpaceOnUse">
<stop stop-color="#F1F8FF"/>
<stop offset="1" stop-color="#FEFDFF"/>
</linearGradient>
<linearGradient id="paint33_linear_209_5620" x1="297.586" y1="274.178" x2="296.344" y2="274.181" gradientUnits="userSpaceOnUse">
<stop stop-color="#F1F8FF"/>
<stop offset="1" stop-color="#FEFDFF"/>
</linearGradient>
<linearGradient id="paint34_linear_209_5620" x1="300.564" y1="274.178" x2="299.322" y2="274.181" gradientUnits="userSpaceOnUse">
<stop stop-color="#F1F8FF"/>
<stop offset="1" stop-color="#FEFDFF"/>
</linearGradient>
<linearGradient id="paint35_linear_209_5620" x1="303.543" y1="274.178" x2="302.301" y2="274.181" gradientUnits="userSpaceOnUse">
<stop stop-color="#F1F8FF"/>
<stop offset="1" stop-color="#FEFDFF"/>
</linearGradient>
<linearGradient id="paint36_linear_209_5620" x1="306.52" y1="274.178" x2="305.278" y2="274.181" gradientUnits="userSpaceOnUse">
<stop stop-color="#F1F8FF"/>
<stop offset="1" stop-color="#FEFDFF"/>
</linearGradient>
<linearGradient id="paint37_linear_209_5620" x1="309.499" y1="274.178" x2="308.257" y2="274.181" gradientUnits="userSpaceOnUse">
<stop stop-color="#F1F8FF"/>
<stop offset="1" stop-color="#FEFDFF"/>
</linearGradient>
<linearGradient id="paint38_linear_209_5620" x1="293.226" y1="203.677" x2="293.402" y2="240.481" gradientUnits="userSpaceOnUse">
<stop stop-color="#1E5E98" stop-opacity="0.38"/>
<stop offset="1" stop-color="#184D7D" stop-opacity="0.94"/>
</linearGradient>
<linearGradient id="paint39_linear_209_5620" x1="356.244" y1="235.943" x2="355.002" y2="235.947" gradientUnits="userSpaceOnUse">
<stop stop-color="#F1F8FF"/>
<stop offset="1" stop-color="#FEFDFF"/>
</linearGradient>
<linearGradient id="paint40_linear_209_5620" x1="359.222" y1="235.943" x2="357.98" y2="235.947" gradientUnits="userSpaceOnUse">
<stop stop-color="#F1F8FF"/>
<stop offset="1" stop-color="#FEFDFF"/>
</linearGradient>
<linearGradient id="paint41_linear_209_5620" x1="362.2" y1="235.943" x2="360.958" y2="235.947" gradientUnits="userSpaceOnUse">
<stop stop-color="#F1F8FF"/>
<stop offset="1" stop-color="#FEFDFF"/>
</linearGradient>
<linearGradient id="paint42_linear_209_5620" x1="365.179" y1="235.943" x2="363.937" y2="235.947" gradientUnits="userSpaceOnUse">
<stop stop-color="#F1F8FF"/>
<stop offset="1" stop-color="#FEFDFF"/>
</linearGradient>
<linearGradient id="paint43_linear_209_5620" x1="368.157" y1="235.943" x2="366.915" y2="235.947" gradientUnits="userSpaceOnUse">
<stop stop-color="#F1F8FF"/>
<stop offset="1" stop-color="#FEFDFF"/>
</linearGradient>
<linearGradient id="paint44_linear_209_5620" x1="371.136" y1="235.943" x2="369.894" y2="235.947" gradientUnits="userSpaceOnUse">
<stop stop-color="#F1F8FF"/>
<stop offset="1" stop-color="#FEFDFF"/>
</linearGradient>
<linearGradient id="paint45_linear_209_5620" x1="374.113" y1="235.943" x2="372.871" y2="235.947" gradientUnits="userSpaceOnUse">
<stop stop-color="#F1F8FF"/>
<stop offset="1" stop-color="#FEFDFF"/>
</linearGradient>
<linearGradient id="paint46_linear_209_5620" x1="377.092" y1="235.943" x2="375.85" y2="235.947" gradientUnits="userSpaceOnUse">
<stop stop-color="#F1F8FF"/>
<stop offset="1" stop-color="#FEFDFF"/>
</linearGradient>
<linearGradient id="paint47_linear_209_5620" x1="380.07" y1="235.943" x2="378.828" y2="235.947" gradientUnits="userSpaceOnUse">
<stop stop-color="#F1F8FF"/>
<stop offset="1" stop-color="#FEFDFF"/>
</linearGradient>
<linearGradient id="paint48_linear_209_5620" x1="383.049" y1="235.943" x2="381.807" y2="235.947" gradientUnits="userSpaceOnUse">
<stop stop-color="#F1F8FF"/>
<stop offset="1" stop-color="#FEFDFF"/>
</linearGradient>
<linearGradient id="paint49_linear_209_5620" x1="386.026" y1="235.943" x2="384.784" y2="235.947" gradientUnits="userSpaceOnUse">
<stop stop-color="#F1F8FF"/>
<stop offset="1" stop-color="#FEFDFF"/>
</linearGradient>
<linearGradient id="paint50_linear_209_5620" x1="389.005" y1="235.943" x2="387.763" y2="235.947" gradientUnits="userSpaceOnUse">
<stop stop-color="#F1F8FF"/>
<stop offset="1" stop-color="#FEFDFF"/>
</linearGradient>
<linearGradient id="paint51_linear_209_5620" x1="372.732" y1="125.306" x2="373.924" y2="221.155" gradientUnits="userSpaceOnUse">
<stop stop-color="#1E5E98" stop-opacity="0.38"/>
<stop offset="1" stop-color="#184D7D" stop-opacity="0.94"/>
</linearGradient>
<clipPath id="clip0_209_5620">
<rect width="339.607" height="145.384" fill="white" transform="translate(67.1611 107.133)"/>
</clipPath>
</defs>
</svg>
