<svg width="200" height="190" viewBox="0 0 200 190" fill="none" xmlns="http://www.w3.org/2000/svg">
<g clip-path="url(#clip0_58_167)" filter="url(#filter0_d_58_167)">
<mask id="path-1-inside-1_58_167" fill="white">
<path d="M32.9568 48.6996C32.4367 52.7025 32.1813 56.7354 32.1923 60.772C32.1913 83.1235 39.9429 104.783 54.1256 122.059C68.3083 139.334 88.0439 151.155 109.968 155.507C131.891 159.859 154.646 156.472 174.352 145.923C194.057 135.374 209.494 118.317 218.03 97.6601C226.566 77.0028 227.673 54.0243 221.162 32.6422C214.651 11.2601 200.925 -7.20168 182.324 -19.5955C163.724 -31.9893 141.4 -37.5478 119.16 -35.3233C96.919 -33.0988 76.1386 -23.2291 60.3612 -7.39678"/>
</mask>
<path d="M22.3153 47.3168C23.079 41.4397 28.4625 37.2944 34.3396 38.0581C40.2168 38.8217 44.3621 44.2052 43.5984 50.0824L22.3153 47.3168ZM32.1923 60.772L42.9232 60.7428C42.9233 60.7527 42.9233 60.7626 42.9233 60.7725L32.1923 60.772ZM67.9623 0.17801C63.7789 4.376 56.9844 4.3878 52.7864 0.204358C48.5884 -3.97908 48.5766 -10.7736 52.76 -14.9716L67.9623 0.17801ZM43.5984 50.0824C43.1391 53.6171 42.9135 57.1783 42.9232 60.7428L21.4613 60.8012C21.449 56.2925 21.7343 51.7879 22.3153 47.3168L43.5984 50.0824ZM42.9233 60.7725C42.9224 80.6405 49.8127 99.8937 62.4196 115.25L45.8316 128.868C30.0731 109.673 21.4601 85.6065 21.4612 60.7715L42.9233 60.7725ZM62.4196 115.25C75.0264 130.606 92.5692 141.113 112.057 144.982L107.878 166.033C83.5187 161.198 61.5902 148.063 45.8316 128.868L62.4196 115.25ZM112.057 144.982C131.545 148.85 151.771 145.839 169.287 136.462L179.416 155.384C157.521 167.105 132.238 170.868 107.878 166.033L112.057 144.982ZM169.287 136.462C186.803 127.086 200.525 111.924 208.113 93.5619L227.948 101.758C218.463 124.711 201.311 143.663 179.416 155.384L169.287 136.462ZM208.113 93.5619C215.7 75.1998 216.684 54.7745 210.896 35.7682L231.428 29.5162C238.662 53.274 237.432 78.8057 227.948 101.758L208.113 93.5619ZM210.896 35.7682C205.109 16.7619 192.908 0.351428 176.374 -10.6653L188.275 -28.5257C208.942 -14.7548 224.193 5.75828 231.428 29.5162L210.896 35.7682ZM176.374 -10.6653C159.84 -21.682 139.997 -26.6229 120.228 -24.6456L118.092 -46.0011C142.803 -48.4727 167.607 -42.2966 188.275 -28.5257L176.374 -10.6653ZM120.228 -24.6456C100.458 -22.6683 81.9867 -13.8951 67.9623 0.17801L52.76 -14.9716C70.2905 -32.563 93.3799 -43.5294 118.092 -46.0011L120.228 -24.6456Z" fill="#7295B5" mask="url(#path-1-inside-1_58_167)"/>
<path d="M77.8922 49.187C77.0162 52.9906 76.5784 56.8819 76.5875 60.785C76.5894 73.1466 80.979 85.1062 88.9744 94.5339C96.9699 103.962 108.052 110.245 120.247 112.266C132.443 114.287 144.959 111.913 155.568 105.568C166.177 99.2226 174.189 89.3179 178.178 77.6175C182.167 65.9172 181.873 53.1808 177.349 41.6768C172.825 30.1727 164.365 20.6479 153.475 14.7985C142.585 8.9491 129.972 7.15498 117.883 9.73564C105.794 12.3163 95.013 19.1042 87.4606 28.8904" stroke="#7295B5" stroke-width="10.731" stroke-linecap="round" stroke-linejoin="round"/>
<path d="M128.767 81.1444C117.519 81.1444 108.4 72.0258 108.4 60.7774C108.4 49.5291 117.519 40.4105 128.767 40.4105C140.015 40.4105 149.134 49.5291 149.134 60.7774C149.134 72.0258 140.015 81.1444 128.767 81.1444Z" stroke="#7295B5" stroke-width="10.731" stroke-linecap="round" stroke-linejoin="round"/>
<path d="M128.771 60.772L30.7436 13.8909" stroke="#7295B5" stroke-width="8.04826" stroke-linecap="round" stroke-linejoin="round"/>
<path d="M63.4219 29.5053L59.4782 9.78708L32.1544 -7.7179L34.3677 15.6221" stroke="#7295B5" stroke-width="8.04826" stroke-linecap="round" stroke-linejoin="round"/>
<path d="M63.4219 29.5045L45.595 38.8404L14.8104 28.5789L34.3677 15.6212" stroke="#7295B5" stroke-width="8.04826" stroke-linecap="round" stroke-linejoin="round"/>
</g>
<defs>
<filter id="filter0_d_58_167" x="-4" y="-68" width="265.544" height="265.544" filterUnits="userSpaceOnUse" color-interpolation-filters="sRGB">
<feFlood flood-opacity="0" result="BackgroundImageFix"/>
<feColorMatrix in="SourceAlpha" type="matrix" values="0 0 0 0 0 0 0 0 0 0 0 0 0 0 0 0 0 0 127 0" result="hardAlpha"/>
<feOffset dy="4"/>
<feGaussianBlur stdDeviation="2"/>
<feComposite in2="hardAlpha" operator="out"/>
<feColorMatrix type="matrix" values="0 0 0 0 0 0 0 0 0 0 0 0 0 0 0 0 0 0 0.25 0"/>
<feBlend mode="normal" in2="BackgroundImageFix" result="effect1_dropShadow_58_167"/>
<feBlend mode="normal" in="SourceGraphic" in2="effect1_dropShadow_58_167" result="shape"/>
</filter>
<clipPath id="clip0_58_167">
<rect width="257.544" height="257.544" fill="white" transform="matrix(-1 0 0 1 257.544 -68)"/>
</clipPath>
</defs>
</svg>
